{
.appVersion = "1361";
classes = (
{
code = "dotcenter-ar
#dotcenter_threedotsdownbelow-ar
#twodotshorizontalcenter-ar
#twodotshorizontalcenter_tahabove-ar
#twodotsverticalcenter-ar
#threedotsupcenter-ar
#threedotsdowncenter-ar
#fourdotscenter-ar
#fourcenter-ar
#tahcenter-ar
#vinvertedcenter-ar
";
name = dotcenter;
},
{
code = "dotbelow-ar
#dotbelow_threedotsdownbelow-ar
#twodotshorizontalbelow-ar
#twodotshorizontalbelow_tahabove-ar
#twodotsverticalbelow-ar
#threedotsupbelow-ar
#threedotsdownbelow-ar
#fourdotsbelow-ar
#fourbelow-ar
#tahbelow-ar
#vinvertedbelow-ar
";
name = dotbelow;
},
{
code = "hamzaabove-ar
madda-ar
shadda-ar
fatha-ar
damma-ar
fathatan-ar
dammatan-ar
sukun-ar
kasra-ar
kasratan-ar
";
name = marktop;
},
{

glyphs = (
{
glyphname = "hamza-ar";
layers = (
{
anchors = (
{
name = bottom;
position = "{249, -96}";
},
{
name = top;
position = "{249, 509}";
}
);
layerId = "14EEE41F-D714-4243-A717-73445EE7DABA";
paths = (
{
closed = 1;
nodes = (
"236 75 LINE",
"209 75 OFFCURVE",
"192 96 OFFCURVE",
"192 122 CURVE SMOOTH",
"192 157 OFFCURVE",
"229 211 OFFCURVE",
"378 301 CURVE",
"341 362 LINE",
"334 362 LINE",
"240 304 OFFCURVE",
"120 235 OFFCURVE",
"120 134 CURVE SMOOTH",
"120 105 OFFCURVE",
"130 74 OFFCURVE",
"152 40 CURVE"
);
},
{
closed = 1;
nodes = (
"427 0 LINE",
"448 68 LINE",
"448 75 LINE",
"190 75 LINE",
"177 68 LINE",
"177 68 OFFCURVE",
"131 75 OFFCURVE",
"89 75 CURVE SMOOTH",
"87 75 LINE",
"50 6 LINE",
"53 0 LINE"
);
}
);
width = 498;
},
{
anchors = (
{
name = bottom;
position = "{271, -96}";
},
{
name = top;
position = "{271, 509}";
}
);
layerId = "090CB6A0-BE7C-4D17-A551-206C7456A8A3";
paths = (
{
closed = 1;
nodes = (
"313 119 LINE",
"290 119 OFFCURVE",
"276 136 OFFCURVE",
"276 158 CURVE SMOOTH",
"276 188 OFFCURVE",
"307 232 OFFCURVE",
"431 308 CURVE",
"362 406 LINE",
"355 406 LINE",
"261 348 OFFCURVE",
"141 279 OFFCURVE",
"141 178 CURVE SMOOTH",
"141 149 OFFCURVE",
"151 118 OFFCURVE",
"173 84 CURVE"
);
},
{
closed = 1;
nodes = (
"462 0 LINE",
"496 112 LINE",
"496 119 LINE",
"210 119 LINE",
"177 112 LINE",
"177 112 OFFCURVE",
"142 119 OFFCURVE",
"111 119 CURVE SMOOTH",
"103 119 LINE",
"45 9 LINE",
"50 0 LINE"
);
}
);
width = 541;
},
{
anchors = (
{
name = bottom;
position = "{219, -96}";
},
{
name = top;
position = "{219, 509}";
}
);
associatedMasterId = "090CB6A0-BE7C-4D17-A551-206C7456A8A3";
layerId = "B246FC91-93F8-4DCF-B897-BCAAE2BC900C";
name = "Mar 24 20, 14:37";
paths = (
{
closed = 1;
nodes = (
"158 0 LINE",
"158 0 OFFCURVE",
"167 106 OFFCURVE",
"167 137 CURVE SMOOTH",
"167 209 OFFCURVE",
"221 266 OFFCURVE",
"288 266 CURVE SMOOTH",
"362 266 LINE",
"372 361 LINE",
"288 361 LINE SMOOTH",
"162 361 OFFCURVE",
"59 261 OFFCURVE",
"59 137 CURVE SMOOTH",
"59 77 OFFCURVE",
"50 12 OFFCURVE",
"50 12 CURVE",
"59 0 LINE"
);
},
{
closed = 1;
nodes = (
"400 0 LINE",
"400 110 LINE",
"273 110 LINE SMOOTH",
"210 110 OFFCURVE",
"84 101 OFFCURVE",
"84 101 CURVE",
"84 0 LINE"
);
}
);
width = 600;
},
{
anchors = (
{
name = bottom;
position = "{226, -96}";
},
{
name = top;
position = "{226, 509}";
}
);
associatedMasterId = "090CB6A0-BE7C-4D17-A551-206C7456A8A3";
layerId = "C6BBE24D-4ABF-4E51-9CA1-B3CF4E022E54";
name = "Mar 25 20, 15:45";
paths = (
{
closed = 1;
nodes = (
"175 0 LINE",
"181 48 OFFCURVE",
"184 98 OFFCURVE",
"184 138 CURVE SMOOTH",
"184 202 OFFCURVE",
"231 252 OFFCURVE",
"289 252 CURVE SMOOTH",
"370 252 LINE",
"383 362 LINE",
"289 362 LINE SMOOTH",
"162 362 OFFCURVE",
"59 262 OFFCURVE",
"59 138 CURVE SMOOTH",
"59 96 OFFCURVE",
"55 47 OFFCURVE",
"51 12 CURVE",
"59 0 LINE"
);
},
{
closed = 1;
nodes = (
"400 0 LINE",
"400 119 LINE",
"303 119 LINE SMOOTH",
"240 119 OFFCURVE",
"114 110 OFFCURVE",
"114 110 CURVE",
"114 0 LINE"
);
}
);
width = 440;
},
{
anchors = (
{
name = bottom;
position = "{183, -96}";
},
{
name = top;
position = "{183, 381}";
}
);
associatedMasterId = "14EEE41F-D714-4243-A717-73445EE7DABA";
layerId = "1AD2DFE8-5B3A-4C9E-904F-52AE6D0D4E35";
name = "Sep 26 22, 14:47";
paths = (
{
closed = 1;
nodes = (
"135 0 LINE",
"135 0 OFFCURVE",
"142 72 OFFCURVE",
"142 108 CURVE SMOOTH",
"142 165 OFFCURVE",
"185 210 OFFCURVE",
"238 210 CURVE SMOOTH",
"296 210 LINE",
"304 285 LINE",
"238 285 LINE SMOOTH",
"138 285 OFFCURVE",
"57 206 OFFCURVE",
"57 108 CURVE SMOOTH",
"57 61 OFFCURVE",
"50 10 OFFCURVE",
"50 10 CURVE",
"57 0 LINE"
);
},
{
closed = 1;
nodes = (
"326 0 LINE",
"326 75 LINE",
"226 75 LINE SMOOTH",
"176 75 OFFCURVE",
"77 68 OFFCURVE",
"77 68 CURVE",
"77 0 LINE"
);
}
);
width = 366;
},
{
anchors = (
{
name = bottom;
position = "{183, -96}";
},
{
name = top;
position = "{183, 381}";
}
);
associatedMasterId = "14EEE41F-D714-4243-A717-73445EE7DABA";
layerId = "9545BBB6-8E10-43C2-B396-4495067B81ED";
name = "Sep 26 22, 18:07";
paths = (
{
closed = 1;
nodes = (
"326 0 LINE",
"326 85 LINE",
"226 85 LINE SMOOTH",
"176 85 OFFCURVE",
"77 78 OFFCURVE",
"77 78 CURVE",
"77 0 LINE"
);
},
{
closed = 1;
nodes = (
"124 0 LINE",
"129 35 OFFCURVE",
"132 77 OFFCURVE",
"132 108 CURVE SMOOTH",
"132 158 OFFCURVE",
"179 200 OFFCURVE",
"238 200 CURVE SMOOTH",
"295 200 LINE",
"304 285 LINE",
"238 285 LINE SMOOTH",
"138 285 OFFCURVE",
"57 206 OFFCURVE",
"57 108 CURVE SMOOTH",
"57 75 OFFCURVE",
"53 36 OFFCURVE",
"50 10 CURVE",
"57 0 LINE"
);
}
);
width = 366;
},
{
anchors = (
{
name = bottom;
position = "{228, -96}";
},
{
name = top;
position = "{228, 465}";
}
);
layerId = "3114FB65-9464-41A5-B67E-A8F9F43C0EF1";
paths = (
{
closed = 1;
nodes = (
"160 30 LINE",
"147 30 OFFCURVE",
"123 68 OFFCURVE",
"123 113 CURVE SMOOTH",
"123 209 OFFCURVE",
"238 276 OFFCURVE",
"337 340 CURVE",
"323 362 LINE",
"316 362 LINE",
"218 299 OFFCURVE",
"93 224 OFFCURVE",
"93 113 CURVE SMOOTH",
"93 81 OFFCURVE",
"103 48 OFFCURVE",
"126 10 CURVE"
);
},
{
closed = 1;
nodes = (
"394 0 LINE",
"401 23 LINE",
"401 30 LINE",
"142 30 LINE",
"136 23 LINE",
"136 23 OFFCURVE",
"108 30 OFFCURVE",
"74 30 CURVE SMOOTH",
"68 30 LINE",
"55 6 LINE",
"58 0 LINE"
);
}
);
width = 456;
},
{
anchors = (
{
name = bottom;
position = "{215, -96}";
},
{
name = top;
position = "{215, 509}";
}
);
associatedMasterId = "090CB6A0-BE7C-4D17-A551-206C7456A8A3";
layerId = "71A6EE0E-4526-4EF4-AE9C-D3BD436F0830";
name = "Oct 9 22, 12:37";
paths = (
{
closed = 1;
nodes = (
"164 0 LINE",
"170 48 OFFCURVE",
"173 99 OFFCURVE",
"173 138 CURVE SMOOTH",
"173 202 OFFCURVE",
"220 252 OFFCURVE",
"278 252 CURVE SMOOTH",
"359 252 LINE",
"372 362 LINE",
"278 362 LINE SMOOTH",
"151 362 OFFCURVE",
"48 262 OFFCURVE",
"48 138 CURVE SMOOTH",
"48 96 OFFCURVE",
"44 47 OFFCURVE",
"40 12 CURVE",
"48 0 LINE"
);
},
{
closed = 1;
nodes = (
"389 0 LINE",
"389 119 LINE",
"289 119 LINE SMOOTH",
"239 119 OFFCURVE",
"140 112 OFFCURVE",
"140 112 CURVE",
"140 0 LINE"
);
}
);
width = 429;
},
{
anchors = (
{
name = bottom;
position = "{183, -96}";
},
{
name = top;
position = "{183, 381}";
}
);
associatedMasterId = "14EEE41F-D714-4243-A717-73445EE7DABA";
layerId = "DD512D2B-5E84-4E5B-A474-443FC02E91C3";
name = "Oct 11 22, 13:48";
paths = (
{
closed = 1;
nodes = (
"125 0 LINE",
"128 27 OFFCURVE",
"132 71 OFFCURVE",
"132 108 CURVE SMOOTH",
"132 164 OFFCURVE",
"179 210 OFFCURVE",
"238 210 CURVE SMOOTH",
"296 210 LINE",
"303 274 LINE",
"303 285 LINE",
"238 285 LINE SMOOTH",
"138 285 OFFCURVE",
"57 206 OFFCURVE",
"57 108 CURVE SMOOTH",
"57 75 OFFCURVE",
"53 36 OFFCURVE",
"50 10 CURVE",
"57 0 LINE"
);
},
{
closed = 1;
nodes = (
"326 0 LINE",
"326 75 LINE",
"226 75 LINE SMOOTH",
"176 75 OFFCURVE",
"77 68 OFFCURVE",
"77 68 CURVE",
"77 0 LINE"
);
}
);
width = 376;
},
{
anchors = (
{
name = bottom;
position = "{215, -96}";
},
{
name = top;
position = "{215, 509}";
}
);
associatedMasterId = "090CB6A0-BE7C-4D17-A551-206C7456A8A3";
layerId = "E371FC15-7A5F-400F-9AB7-B5C6ABFE6AC8";
name = "Oct 11 22, 13:50";
paths = (
{
closed = 1;
nodes = (
"164 0 LINE",
"170 48 OFFCURVE",
"173 99 OFFCURVE",
"173 138 CURVE SMOOTH",
"173 202 OFFCURVE",
"220 252 OFFCURVE",
"278 252 CURVE SMOOTH",
"359 252 LINE",
"371 351 LINE",
"371 362 LINE",
"278 362 LINE SMOOTH",
"151 362 OFFCURVE",
"48 262 OFFCURVE",
"48 138 CURVE SMOOTH",
"48 96 OFFCURVE",
"44 47 OFFCURVE",
"40 12 CURVE",
"48 0 LINE"
);
},
{
closed = 1;
nodes = (
"389 0 LINE",
"389 119 LINE",
"289 119 LINE SMOOTH",
"239 119 OFFCURVE",
"140 112 OFFCURVE",
"140 112 CURVE",
"140 0 LINE"
);
}
);
width = 429;
},
{
anchors = (
{
name = bottom;
position = "{193, -96}";
},
{
name = top;
position = "{193, 381}";
}
);
associatedMasterId = "3114FB65-9464-41A5-B67E-A8F9F43C0EF1";
layerId = "33857271-8D60-4D64-A06A-8211F3EE1A75";
name = "Oct 11 22, 13:51";
paths = (
{
closed = 1;
nodes = (
"89 0 LINE",
"92 25 OFFCURVE",
"97 70 OFFCURVE",
"97 108 CURVE SMOOTH",
"97 189 OFFCURVE",
"165 255 OFFCURVE",
"248 255 CURVE SMOOTH",
"298 255 LINE",
"300 274 LINE",
"300 285 LINE",
"248 285 LINE SMOOTH",
"148 285 OFFCURVE",
"67 206 OFFCURVE",
"67 108 CURVE SMOOTH",
"67 75 OFFCURVE",
"63 36 OFFCURVE",
"60 10 CURVE",
"67 0 LINE"
);
},
{
closed = 1;
nodes = (
"336 0 LINE",
"336 30 LINE",
"216 30 LINE SMOOTH",
"166 30 OFFCURVE",
"67 23 OFFCURVE",
"67 23 CURVE",
"67 0 LINE"
);
}
);
width = 396;
}
);
unicode = 0621;
},
{
glyphname = "alef-ar";
layers = (
{
anchors = (
{
name = bottom;
position = "{108, -48}";
},
{
name = top;
position = "{108, 804}";
}
);
layerId = "14EEE41F-D714-4243-A717-73445EE7DABA";
paths = (
{
closed = 1;
nodes = (
"145 0 LINE",
"160 14 LINE",
"160 14 OFFCURVE",
"145 138 OFFCURVE",
"145 247 CURVE SMOOTH",
"145 747 LINE",
"142 755 LINE",
"70 746 LINE",
"70 0 LINE"
);
}
);
width = 230;
},
{
anchors = (
{
name = bottom;
position = "{95, -70}";
},
{
name = top;
position = "{93, 780}";
}
);
associatedMasterId = "14EEE41F-D714-4243-A717-73445EE7DABA";
layerId = "000178C5-23D3-4A14-B85E-7A97FCC399F3";
name = "Dec 4 19, 13:45";
paths = (
{
closed = 1;
nodes = (
"135 0 LINE",
"150 14 LINE",
"144 95 OFFCURVE",
"134 166 OFFCURVE",
"135 237 CURVE",
"135 716 LINE",
"50 716 LINE",
"50 0 LINE"
);
}
);
width = 200;
},
{
anchors = (
{
name = bottom;
position = "{129, -48}";
},
{
name = top;
position = "{129, 804}";
}
);
layerId = "090CB6A0-BE7C-4D17-A551-206C7456A8A3";
paths = (
{
closed = 1;
nodes = (
"195 0 LINE",
"210 14 LINE",
"210 14 OFFCURVE",
"195 138 OFFCURVE",
"195 247 CURVE SMOOTH",
"195 753 LINE",
"192 761 LINE",
"60 745 LINE",
"60 0 LINE"
);
}
);
width = 270;
},
{
anchors = (
{
name = bottom;
position = "{104, -48}";
},
{
name = top;
position = "{104, 804}";
}
);
associatedMasterId = "14EEE41F-D714-4243-A717-73445EE7DABA";
layerId = "7F3F5221-23E9-47ED-BC99-F374C7E686C9";
name = "Sep 26 22, 14:44";
paths = (
{
closed = 1;
nodes = (
"145 0 LINE",
"160 14 LINE",
"160 14 OFFCURVE",
"145 138 OFFCURVE",
"145 247 CURVE SMOOTH",
"145 756 LINE",
"60 746 LINE",
"60 0 LINE"
);
}
);
width = 240;
},
{
anchors = (
{
name = bottom;
position = "{102, -48}";
},
{
name = top;
position = "{102, 804}";
}
);
layerId = "3114FB65-9464-41A5-B67E-A8F9F43C0EF1";
paths = (
{
closed = 1;
nodes = (
"110 0 LINE",
"125 14 LINE",
"125 14 OFFCURVE",
"110 138 OFFCURVE",
"110 247 CURVE SMOOTH",
"110 743 LINE",
"107 751 LINE",
"80 747 LINE",
"80 0 LINE"
);
}
);
width = 205;
}
);
unicode = 0627;
},
{
glyphname = "alef-ar.fina";
layers = (
{
anchors = (
{
name = bottom;
position = "{108, -48}";
},
{
name = top;
position = "{108, 804}";
}
);
components = (
{
name = _connection.r;
transform = "{1, 0, 0, 1, 181, 0}";
}
);
layerId = "14EEE41F-D714-4243-A717-73445EE7DABA";
paths = (
{
closed = 1;
nodes = (
"145 747 LINE",
"142 755 LINE",
"70 746 LINE",
"70 1 LINE",
"145 0 LINE"
);
},
{
closed = 1;
nodes = (
"231 0 LINE",
"231 75 LINE",
"70 75 LINE",
"70 0 LINE"
);
}
);
width = 231;
},
{
anchors = (
{
name = bottom;
position = "{95, -70}";
},
{
name = top;
position = "{95, 800}";
}
);
associatedMasterId = "14EEE41F-D714-4243-A717-73445EE7DABA";
components = (
{
name = _connection.r;
transform = "{1, 0, 0, 1, 201, 0}";
}
);
layerId = "6C46519A-E7B5-4255-B537-29BE5CAB0258";
name = "Dec 4 19, 13:52";
paths = (
{
closed = 1;
nodes = (
"251 0 LINE",
"251 75 LINE",
"221 75 LINE",
"125 67 LINE",
"125 0 LINE"
);
},
{
closed = 1;
nodes = (
"135 0 LINE",
"135 716 LINE",
"50 716 LINE",
"50 0 LINE"
);
}
);
width = 251;
},
{
anchors = (
{
name = bottom;
position = "{95, -70}";
},
{
name = top;
position = "{93, 760}";
}
);
associatedMasterId = "14EEE41F-D714-4243-A717-73445EE7DABA";
components = (
{
name = _connection.r;
transform = "{1, 0, 0, 1, 201, 0}";
}
);
layerId = "4329D98B-ABBA-4C60-B72B-0C6E96E377C0";
name = "Dec 4 19, 14:08";
paths = (
{
closed = 1;
nodes = (
"135 0 LINE",
"150 14 LINE",
"150 14 OFFCURVE",
"135 138 OFFCURVE",
"135 247 CURVE SMOOTH",
"135 716 LINE",
"50 706 LINE",
"50 0 LINE"
);
},
{
closed = 1;
nodes = (
"251 0 LINE",
"251 75 LINE",
"221 75 LINE",
"125 67 LINE",
"125 0 LINE"
);
}
);
width = 251;
},
{
anchors = (
{
name = bottom;
position = "{95, -70}";
},
{
name = top;
position = "{93, 760}";
}
);
associatedMasterId = "14EEE41F-D714-4243-A717-73445EE7DABA";
components = (
{
name = _connection.r;
transform = "{1, 0, 0, 1, 201, 0}";
}
);
layerId = "A2719580-B9B8-4878-9E29-1F1E5D8123EE";
name = "Dec 4 19, 14:10";
paths = (
{
closed = 1;
nodes = (
"135 0 LINE",
"135 14 LINE",
"135 716 LINE",
"50 706 LINE",
"50 0 LINE"
);
},
{
closed = 1;
nodes = (
"251 0 LINE",
"251 75 LINE",
"125 75 LINE",
"125 0 LINE"
);
},
{
closed = 1;
nodes = (
"135 247 LINE",
"50 247 LINE",
"50 138 OFFCURVE",
"35 14 OFFCURVE",
"35 14 CURVE",
"50 0 LINE",
"135 0 LINE"
);
}
);
width = 251;
},
{
anchors = (
{
name = bottom;
position = "{128, -48}";
},
{
name = top;
position = "{128, 804}";
}
);
components = (
{
name = _connection.r;
transform = "{1, 0, 0, 1, 231, 0}";
}
);
layerId = "090CB6A0-BE7C-4D17-A551-206C7456A8A3";
paths = (
{
closed = 1;
nodes = (
"195 753 LINE",
"192 761 LINE",
"60 745 LINE",
"60 1 LINE",
"195 0 LINE"
);
},
{
closed = 1;
nodes = (
"281 0 LINE",
"281 119 LINE",
"60 119 LINE",
"60 0 LINE"
);
}
);
width = 281;
},
{
anchors = (
{
name = bottom;
position = "{95, -48}";
},
{
name = top;
position = "{95, 804}";
}
);
components = (
{
name = _connection.r;
transform = "{1, 0, 0, 1, 146, 0}";
}
);
layerId = "3114FB65-9464-41A5-B67E-A8F9F43C0EF1";
paths = (
{
closed = 1;
nodes = (
"110 743 LINE",
"107 751 LINE",
"80 747 LINE",
"80 1 LINE",
"110 0 LINE"
);
},
{
closed = 1;
nodes = (
"196 0 LINE",
"196 30 LINE",
"80 30 LINE",
"80 0 LINE"
);
}
);
width = 196;
},
{
anchors = (
{
name = bottom;
position = "{128, -48}";
},
{
name = top;
position = "{128, 804}";
}
);
associatedMasterId = "090CB6A0-BE7C-4D17-A551-206C7456A8A3";
components = (
{
name = _connection.r;
transform = "{1, 0, 0, 1, 231, 0}";
}
);
layerId = "11D1FF1E-E260-4171-A6E0-6A9C24D95C97";
name = "Oct 7 22, 12:42";
paths = (
{
closed = 1;
nodes = (
"195 756 LINE",
"60 740 LINE",
"60 1 LINE",
"195 0 LINE"
);
},
{
closed = 1;
nodes = (
"281 0 LINE",
"281 119 LINE",
"60 119 LINE",
"60 0 LINE"
);
}
);
width = 281;
},
{
anchors = (
{
name = bottom;
position = "{108, -48}";
},
{
name = top;
position = "{108, 804}";
}
);
associatedMasterId = "14EEE41F-D714-4243-A717-73445EE7DABA";
components = (
{
name = _connection.r;
transform = "{1, 0, 0, 1, 181, 0}";
}
);
layerId = "CE5ECA3C-0F8A-4540-9E42-9B5D40A8FC49";
name = "Oct 7 22, 12:42";
paths = (
{
closed = 1;
nodes = (
"145 0 LINE",
"145 755 LINE",
"70 746 LINE",
"70 0 LINE"
);
},
{
closed = 1;
nodes = (
"231 0 LINE",
"231 75 LINE",
"70 75 LINE",
"70 0 LINE"
);
}
);
width = 231;
},
{
anchors = (
{
name = bottom;
position = "{95, -48}";
},
{
name = top;
position = "{95, 804}";
}
);
associatedMasterId = "3114FB65-9464-41A5-B67E-A8F9F43C0EF1";
components = (
{
name = _connection.r;
transform = "{1, 0, 0, 1, 146, 0}";
}
);
layerId = "6B496B63-7FB5-44C6-AAA0-092D43F11A69";
name = "Oct 7 22, 12:42";
paths = (
{
closed = 1;
nodes = (
"110 0 LINE",
"110 752 LINE",
"80 748 LINE",
"80 0 LINE"
);
},
{
closed = 1;
nodes = (
"196 0 LINE",
"196 30 LINE",
"80 30 LINE",
"80 0 LINE"
);
}
);
width = 196;
}
);
leftMetricsKey = "=alef-ar";
rightMetricsKey = "=-20";
},
{
glyphname = "alef-ar.short";
layers = (
{
anchors = (
{
name = bottom;
position = "{108, -48}";
},
{
name = top;
position = "{108, 716}";
}
);
layerId = "14EEE41F-D714-4243-A717-73445EE7DABA";
paths = (
{
closed = 1;
nodes = (
"145 0 LINE",
"160 14 LINE",
"160 14 OFFCURVE",
"145 138 OFFCURVE",
"145 247 CURVE SMOOTH",
"145 659 LINE",
"142 667 LINE",
"70 658 LINE",
"70 0 LINE"
);
}
);
width = 230;
},
{
associatedMasterId = "14EEE41F-D714-4243-A717-73445EE7DABA";
components = (
{
name = "alef-ar";
}
);
layerId = "63067D81-B144-4BC7-9223-DE3B49682313";
name = "Dec 20 19, 16:30";
width = 230;
},
{
anchors = (
{
name = bottom;
position = "{129, -48}";
},
{
name = top;
position = "{129, 714}";
}
);
layerId = "090CB6A0-BE7C-4D17-A551-206C7456A8A3";
paths = (
{
closed = 1;
nodes = (
"195 0 LINE",
"210 14 LINE",
"210 14 OFFCURVE",
"195 138 OFFCURVE",
"195 247 CURVE SMOOTH",
"195 663 LINE",
"192 671 LINE",
"60 655 LINE",
"60 0 LINE"
);
}
);
width = 270;
},
{
anchors = (
{
name = bottom;
position = "{102, -48}";
},
{
name = top;
position = "{102, 717}";
}
);
layerId = "3114FB65-9464-41A5-B67E-A8F9F43C0EF1";
paths = (
{
closed = 1;
nodes = (
"110 0 LINE",
"125 14 LINE",
"125 14 OFFCURVE",
"110 138 OFFCURVE",
"110 247 CURVE SMOOTH",
"110 656 LINE",
"107 664 LINE",
"80 660 LINE",
"80 0 LINE"
);
}
);
width = 205;
}
);
},
{
glyphname = "alef-ar.short.fina";
layers = (
{
anchors = (
{
name = bottom;
position = "{108, -48}";
},
{
name = top;
position = "{108, 716}";
}
);
components = (
{
name = _connection.r;
transform = "{1, 0, 0, 1, 181, 0}";
}
);
layerId = "14EEE41F-D714-4243-A717-73445EE7DABA";
paths = (
{
closed = 1;
nodes = (
"145 659 LINE",
"142 667 LINE",
"70 658 LINE",
"70 1 LINE",
"145 0 LINE"
);
},
{
closed = 1;
nodes = (
"231 0 LINE",
"231 75 LINE",
"70 75 LINE",
"70 0 LINE"
);
}
);
width = 231;
},
{
anchors = (
{
name = bottom;
position = "{128, -48}";
},
{
name = top;
position = "{128, 714}";
}
);
components = (
{
name = _connection.r;
transform = "{1, 0, 0, 1, 231, 0}";
}
);
layerId = "090CB6A0-BE7C-4D17-A551-206C7456A8A3";
paths = (
{
closed = 1;
nodes = (
"195 663 LINE",
"192 671 LINE",
"60 655 LINE",
"60 1 LINE",
"195 0 LINE"
);
},
{
closed = 1;
nodes = (
"281 0 LINE",
"281 119 LINE",
"60 119 LINE",
"60 0 LINE"
);
}
);
width = 281;
},
{
anchors = (
{
name = bottom;
position = "{95, -48}";
},
{
name = top;
position = "{95, 717}";
}
);
components = (
{
name = _connection.r;
transform = "{1, 0, 0, 1, 146, 0}";
}
);
layerId = "3114FB65-9464-41A5-B67E-A8F9F43C0EF1";
paths = (
{
closed = 1;
nodes = (
"110 656 LINE",
"107 664 LINE",
"80 660 LINE",
"80 1 LINE",
"110 0 LINE"
);
},
{
closed = 1;
nodes = (
"196 0 LINE",
"196 30 LINE",
"80 30 LINE",
"80 0 LINE"
);
}
);
width = 196;
}
);
},
{
glyphname = "behDotless-ar";
layers = (
{
anchors = (
{
name = bottom;
position = "{458, -96}";
},
{
name = ring;
position = "{469, 0}";
},
{
name = top;
position = "{458, 338}";
}
);
components = (
{
name = "behDotless-ar.init";
transform = "{1, 0, 0, 1, 685, 0}";
}
);
layerId = "14EEE41F-D714-4243-A717-73445EE7DABA";
paths = (
{
closed = 1;
nodes = (
"781 0 LINE",
"781 75 LINE",
"468 75 LINE SMOOTH",
"284 75 OFFCURVE",
"168 93 OFFCURVE",
"102 133 CURVE",
"91 133 LINE",
"55 74 LINE",
"153 11 OFFCURVE",
"318 0 OFFCURVE",
"468 0 CURVE SMOOTH"
);
}
);
width = 916;
},
{
anchors = (
{
name = bottom;
position = "{472, -70}";
},
{
name = ring;
position = "{472, 0}";
},
{
name = top;
position = "{472, 500}";
}
);
associatedMasterId = "14EEE41F-D714-4243-A717-73445EE7DABA";
layerId = "37F58C7D-4100-419F-A8F3-DEBE2078F050";
name = "Nov 20 19, 22:04";
paths = (
{
closed = 1;
nodes = (
"849 0 LINE",
"864 14 LINE",
"858 95 OFFCURVE",
"848 166 OFFCURVE",
"849 237 CURVE SMOOTH",
"849 448 LINE",
"764 448 LINE",
"764 135 LINE",
"777 42 LINE",
"773 0 LINE"
);
},
{
closed = 1;
nodes = (
"784 67 LINE",
"678 75 LINE",
"391 75 LINE",
"391 0 LINE",
"784 0 LINE"
);
},
{
closed = 1;
nodes = (
"70 319 OFFCURVE",
"50 276 OFFCURVE",
"50 217 CURVE SMOOTH",
"50 28 OFFCURVE",
"241 0 OFFCURVE",
"391 0 CURVE",
"391 75 LINE",
"208 75 OFFCURVE",
"135 116 OFFCURVE",
"135 217 CURVE SMOOTH",
"135 254 OFFCURVE",
"143 281 OFFCURVE",
"168 325 CURVE",
"94 362 LINE"
);
}
);
width = 944;
},
{
anchors = (
{
name = bottom;
position = "{472, -70}";
},
{
name = ring;
position = "{472, 0}";
},
{
name = top;
position = "{472, 500}";
}
);
associatedMasterId = "14EEE41F-D714-4243-A717-73445EE7DABA";
layerId = "F43BD355-534A-4EC5-BD64-A98DF66E58FC";
name = "Nov 21 19, 16:58";
paths = (
{
closed = 1;
nodes = (
"849 0 LINE",
"864 14 LINE",
"858 95 OFFCURVE",
"849 166 OFFCURVE",
"849 237 CURVE SMOOTH",
"849 389 LINE",
"764 389 LINE",
"764 135 LINE",
"777 42 LINE",
"773 0 LINE"
);
},
{
closed = 1;
nodes = (
"784 67 LINE",
"678 75 LINE",
"343 75 LINE",
"343 0 LINE",
"784 0 LINE"
);
},
{
closed = 1;
nodes = (
"90 16 OFFCURVE",
"229 0 OFFCURVE",
"343 0 CURVE",
"343 75 LINE",
"200 75 OFFCURVE",
"114 100 OFFCURVE",
"88 159 CURVE",
"108 159 LINE",
"21 85 LINE",
"31 108 LINE"
);
}
);
width = 944;
},
{
anchors = (
{
name = bottom;
position = "{472, -70}";
},
{
name = ring;
position = "{472, 0}";
},
{
name = top;
position = "{472, 480}";
}
);
associatedMasterId = "14EEE41F-D714-4243-A717-73445EE7DABA";
layerId = "C1DDC24F-F64E-448E-B04C-2D56C94CFCE6";
name = "Nov 22 19, 17:04";
paths = (
{
closed = 1;
nodes = (
"849 0 LINE",
"864 14 LINE",
"858 95 OFFCURVE",
"849 166 OFFCURVE",
"849 237 CURVE SMOOTH",
"849 398 LINE",
"764 398 LINE",
"764 135 LINE",
"777 42 LINE",
"773 0 LINE"
);
},
{
closed = 1;
nodes = (
"784 67 LINE",
"678 75 LINE",
"391 75 LINE",
"391 0 LINE",
"784 0 LINE"
);
},
{
closed = 1;
nodes = (
"70 319 OFFCURVE",
"50 276 OFFCURVE",
"50 217 CURVE SMOOTH",
"50 28 OFFCURVE",
"241 0 OFFCURVE",
"391 0 CURVE",
"391 75 LINE",
"208 75 OFFCURVE",
"135 116 OFFCURVE",
"135 217 CURVE SMOOTH",
"135 254 OFFCURVE",
"143 281 OFFCURVE",
"168 325 CURVE",
"94 362 LINE"
);
}
);
width = 944;
},
{
anchors = (
{
name = bottom;
position = "{472, -70}";
},
{
name = ring;
position = "{472, 0}";
},
{
name = top;
position = "{472, 480}";
}
);
associatedMasterId = "14EEE41F-D714-4243-A717-73445EE7DABA";
layerId = "8C13A46E-D854-4321-A2C2-E014E1D7D66A";
name = "Nov 22 19, 17:08";
paths = (
{
closed = 1;
nodes = (
"849 0 LINE",
"864 14 LINE",
"858 95 OFFCURVE",
"849 166 OFFCURVE",
"849 237 CURVE SMOOTH",
"849 389 LINE",
"764 389 LINE",
"764 135 LINE",
"777 42 LINE",
"773 0 LINE"
);
},
{
closed = 1;
nodes = (
"784 67 LINE",
"678 75 LINE",
"343 75 LINE",
"343 0 LINE",
"784 0 LINE"
);
},
{
closed = 1;
nodes = (
"90 16 OFFCURVE",
"229 0 OFFCURVE",
"343 0 CURVE",
"343 75 LINE",
"200 75 OFFCURVE",
"114 100 OFFCURVE",
"88 159 CURVE",
"108 159 LINE",
"21 85 LINE",
"31 108 LINE"
);
}
);
width = 944;
},
{
anchors = (
{
name = bottom;
position = "{472, -70}";
},
{
name = ring;
position = "{472, 0}";
},
{
name = top;
position = "{472, 480}";
}
);
associatedMasterId = "14EEE41F-D714-4243-A717-73445EE7DABA";
layerId = "3AC51FB4-E95A-4F53-8514-77D07B757D86";
name = "Dec 4 19, 14:14";
paths = (
{
closed = 1;
nodes = (
"343 75 LINE",
"200 75 OFFCURVE",
"114 100 OFFCURVE",
"88 159 CURVE",
"108 159 LINE",
"21 85 LINE",
"31 108 LINE",
"90 16 OFFCURVE",
"229 0 OFFCURVE",
"343 0 CURVE"
);
},
{
closed = 1;
nodes = (
"784 0 LINE",
"784 67 LINE",
"678 75 LINE",
"343 75 LINE",
"343 0 LINE"
);
},
{
closed = 1;
nodes = (
"849 0 LINE",
"864 14 LINE",
"858 95 OFFCURVE",
"849 166 OFFCURVE",
"849 237 CURVE SMOOTH",
"849 389 LINE",
"764 389 LINE",
"764 265 LINE SMOOTH",
"764 194 OFFCURVE",
"773 123 OFFCURVE",
"779 42 CURVE",
"773 0 LINE"
);
}
);
width = 944;
},
{
anchors = (
{
name = bottom;
position = "{472, -70}";
},
{
name = ring;
position = "{472, 0}";
},
{
name = top;
position = "{472, 480}";
}
);
associatedMasterId = "14EEE41F-D714-4243-A717-73445EE7DABA";
layerId = "6D784801-9313-4E0F-92C3-E1572AB7A0D4";
name = "Dec 4 19, 14:17";
paths = (
{
closed = 1;
nodes = (
"343 75 LINE",
"200 75 OFFCURVE",
"114 100 OFFCURVE",
"88 159 CURVE",
"108 159 LINE",
"21 85 LINE",
"31 108 LINE",
"90 16 OFFCURVE",
"229 0 OFFCURVE",
"343 0 CURVE"
);
},
{
closed = 1;
nodes = (
"784 0 LINE",
"784 67 LINE",
"678 75 LINE",
"343 75 LINE",
"343 0 LINE"
);
},
{
closed = 1;
nodes = (
"764 153 OFFCURVE",
"776 42 OFFCURVE",
"776 42 CURVE",
"773 0 LINE",
"849 0 LINE",
"864 14 LINE",
"864 14 OFFCURVE",
"849 138 OFFCURVE",
"849 247 CURVE SMOOTH",
"849 389 LINE",
"764 379 LINE",
"764 265 LINE SMOOTH"
);
},
{
closed = 1;
nodes = (
"980 75 LINE",
"980 0 LINE",
"1106 0 LINE",
"1106 68 LINE",
"1106 68 OFFCURVE",
"1050 75 OFFCURVE",
"1000 75 CURVE SMOOTH"
);
},
{
closed = 1;
nodes = (
"1186 14 LINE",
"1186 14 OFFCURVE",
"1171 138 OFFCURVE",
"1171 247 CURVE SMOOTH",
"1171 348 LINE",
"1086 338 LINE",
"1086 265 LINE SMOOTH",
"1086 153 OFFCURVE",
"1098 42 OFFCURVE",
"1098 42 CURVE",
"1095 0 LINE",
"1171 0 LINE"
);
}
);
width = 944;
},
{
anchors = (
{
name = bottom;
position = "{472, -70}";
},
{
name = ring;
position = "{472, 0}";
},
{
name = top;
position = "{472, 389}";
}
);
associatedMasterId = "14EEE41F-D714-4243-A717-73445EE7DABA";
layerId = "C54795E9-6FCE-4D88-BA72-376A535EF207";
name = "Dec 4 19, 14:26";
paths = (
{
closed = 1;
nodes = (
"343 75 LINE",
"200 75 OFFCURVE",
"114 100 OFFCURVE",
"88 159 CURVE",
"108 159 LINE",
"21 85 LINE",
"31 108 LINE",
"90 16 OFFCURVE",
"229 0 OFFCURVE",
"343 0 CURVE"
);
},
{
closed = 1;
nodes = (
"764 153 OFFCURVE",
"776 42 OFFCURVE",
"776 42 CURVE",
"773 0 LINE",
"849 0 LINE",
"864 14 LINE",
"864 14 OFFCURVE",
"849 138 OFFCURVE",
"849 247 CURVE SMOOTH",
"849 389 LINE",
"764 379 LINE",
"764 265 LINE SMOOTH"
);
},
{
closed = 1;
nodes = (
"784 0 LINE",
"784 68 LINE",
"784 68 OFFCURVE",
"728 75 OFFCURVE",
"678 75 CURVE SMOOTH",
"343 75 LINE",
"343 0 LINE"
);
}
);
width = 944;
},
{
anchors = (
{
name = bottom;
position = "{472, -70}";
},
{
name = ring;
position = "{472, 0}";
},
{
name = top;
position = "{472, 389}";
}
);
associatedMasterId = "14EEE41F-D714-4243-A717-73445EE7DABA";
layerId = "7B6CBCB8-3657-4C86-B5A7-A54938259C22";
name = "Dec 4 19, 14:28";
paths = (
{
closed = 1;
nodes = (
"764 153 OFFCURVE",
"776 42 OFFCURVE",
"776 42 CURVE",
"773 0 LINE",
"849 0 LINE",
"864 14 LINE",
"864 14 OFFCURVE",
"849 138 OFFCURVE",
"849 247 CURVE SMOOTH",
"849 389 LINE",
"764 379 LINE",
"764 265 LINE SMOOTH"
);
},
{
closed = 1;
nodes = (
"784 0 LINE",
"784 68 LINE",
"784 68 OFFCURVE",
"728 75 OFFCURVE",
"678 75 CURVE SMOOTH",
"343 75 LINE",
"343 0 LINE"
);
},
{
closed = 1;
nodes = (
"188 75 OFFCURVE",
"112 99 OFFCURVE",
"88 149 CURVE",
"127 139 LINE",
"34 42 LINE",
"17 108 LINE",
"65 15 OFFCURVE",
"219 0 OFFCURVE",
"343 0 CURVE",
"343 75 LINE"
);
}
);
width = 944;
},
{
anchors = (
{
name = bottom;
position = "{472, -70}";
},
{
name = ring;
position = "{472, 0}";
},
{
name = top;
position = "{472, 389}";
}
);
associatedMasterId = "14EEE41F-D714-4243-A717-73445EE7DABA";
layerId = "E8FB3D7A-E026-4884-94C9-158A59A7BF55";
name = "Dec 4 19, 14:31";
paths = (
{
closed = 1;
nodes = (
"764 153 OFFCURVE",
"776 42 OFFCURVE",
"776 42 CURVE",
"773 0 LINE",
"849 0 LINE",
"864 14 LINE",
"864 14 OFFCURVE",
"849 138 OFFCURVE",
"849 247 CURVE SMOOTH",
"849 389 LINE",
"764 379 LINE",
"764 265 LINE SMOOTH"
);
},
{
closed = 1;
nodes = (
"784 0 LINE",
"784 68 LINE",
"784 68 OFFCURVE",
"728 75 OFFCURVE",
"678 75 CURVE SMOOTH",
"471 75 LINE",
"471 0 LINE"
);
},
{
closed = 0;
nodes = (
"127 139 LINE"
);
},
{
closed = 1;
nodes = (
"237 75 OFFCURVE",
"116 106 OFFCURVE",
"68 172 CURVE",
"116 170 LINE",
"34 51 LINE",
"2 126 LINE",
"80 17 OFFCURVE",
"287 0 OFFCURVE",
"471 0 CURVE",
"471 75 LINE"
);
}
);
width = 944;
},
{
anchors = (
{
name = bottom;
position = "{472, -70}";
},
{
name = ring;
position = "{472, 0}";
},
{
name = top;
position = "{472, 389}";
}
);
associatedMasterId = "14EEE41F-D714-4243-A717-73445EE7DABA";
layerId = "2B2C5DE6-45EF-4702-A719-EB7C9B9BA05E";
name = "Jan 3 20, 12:19";
paths = (
{
closed = 1;
nodes = (
"464 75 LINE",
"230 75 OFFCURVE",
"109 106 OFFCURVE",
"61 172 CURVE",
"116 170 LINE",
"34 51 LINE",
"2 126 LINE",
"80 17 OFFCURVE",
"287 0 OFFCURVE",
"471 0 CURVE"
);
},
{
closed = 0;
nodes = (
"127 139 LINE"
);
},
{
closed = 1;
nodes = (
"784 0 LINE",
"784 68 LINE",
"784 68 OFFCURVE",
"728 75 OFFCURVE",
"678 75 CURVE SMOOTH",
"461 75 LINE",
"471 0 LINE"
);
},
{
closed = 1;
nodes = (
"849 0 LINE",
"864 14 LINE",
"864 14 OFFCURVE",
"849 138 OFFCURVE",
"849 247 CURVE SMOOTH",
"849 389 LINE",
"764 379 LINE",
"764 265 LINE SMOOTH",
"764 153 OFFCURVE",
"776 42 OFFCURVE",
"776 42 CURVE",
"773 0 LINE"
);
}
);
width = 944;
},
{
anchors = (
{
name = bottom;
position = "{468, -96}";
},
{
name = ring;
position = "{462, 0}";
},
{
name = top;
position = "{468, 338}";
}
);
components = (
{
name = "behDotless-ar.init";
transform = "{1, 0, 0, 1, 650, 0}";
}
);
layerId = "090CB6A0-BE7C-4D17-A551-206C7456A8A3";
paths = (
{
closed = 1;
nodes = (
"734 0 LINE",
"739 119 LINE",
"461 119 LINE SMOOTH",
"296 119 OFFCURVE",
"186 134 OFFCURVE",
"117 165 CURVE",
"107 165 LINE",
"50 73 LINE",
"148 11 OFFCURVE",
"312 0 OFFCURVE",
"461 0 CURVE SMOOTH"
);
}
);
width = 936;
},
{
anchors = (
{
name = bottom;
position = "{453, -96}";
},
{
name = ring;
position = "{472, 0}";
},
{
name = top;
position = "{453, 338}";
}
);
associatedMasterId = "090CB6A0-BE7C-4D17-A551-206C7456A8A3";
layerId = "5BA81F59-69C4-4F24-8488-53AC7B31885D";
name = "Mar 24 20, 15:03";
paths = (
{
closed = 1;
nodes = (
"849 0 LINE",
"864 14 LINE",
"864 14 OFFCURVE",
"849 138 OFFCURVE",
"849 247 CURVE SMOOTH",
"849 463 LINE",
"724 448 LINE",
"724 265 LINE SMOOTH",
"724 153 OFFCURVE",
"736 42 OFFCURVE",
"736 42 CURVE",
"733 0 LINE"
);
},
{
closed = 1;
nodes = (
"744 0 LINE",
"744 103 LINE",
"744 103 OFFCURVE",
"688 110 OFFCURVE",
"638 110 CURVE SMOOTH",
"471 110 LINE",
"471 0 LINE",
"638 0 LINE"
);
},
{
closed = 1;
nodes = (
"237 110 OFFCURVE",
"125 140 OFFCURVE",
"96 203 CURVE",
"141 211 LINE",
"40 44 LINE",
"-11 147 LINE",
"55 19 OFFCURVE",
"276 0 OFFCURVE",
"471 0 CURVE",
"471 110 LINE"
);
}
);
width = 600;
},
{
anchors = (
{
name = bottom;
position = "{453, -96}";
},
{
name = ring;
position = "{472, 0}";
},
{
name = top;
position = "{453, 338}";
}
);
associatedMasterId = "14EEE41F-D714-4243-A717-73445EE7DABA";
layerId = "508B38CD-8BAC-4CD6-BED1-F63F6D2502AE";
name = "Mar 24 20, 15:03";
paths = (
{
closed = 1;
nodes = (
"464 75 LINE",
"230 75 OFFCURVE",
"109 106 OFFCURVE",
"61 172 CURVE",
"116 170 LINE",
"44 51 LINE",
"2 126 LINE",
"80 17 OFFCURVE",
"287 0 OFFCURVE",
"471 0 CURVE"
);
},
{
closed = 1;
nodes = (
"784 0 LINE",
"784 68 LINE",
"784 68 OFFCURVE",
"728 75 OFFCURVE",
"678 75 CURVE SMOOTH",
"464 75 LINE",
"471 0 LINE"
);
},
{
closed = 1;
nodes = (
"849 0 LINE",
"864 14 LINE",
"864 14 OFFCURVE",
"849 138 OFFCURVE",
"849 247 CURVE SMOOTH",
"849 458 LINE",
"764 448 LINE",
"764 265 LINE SMOOTH",
"764 153 OFFCURVE",
"776 42 OFFCURVE",
"776 42 CURVE",
"773 0 LINE"
);
}
);
width = 944;
},
{
anchors = (
{
name = bottom;
position = "{453, -96}";
},
{
name = ring;
position = "{472, 0}";
},
{
name = top;
position = "{453, 338}";
}
);
associatedMasterId = "090CB6A0-BE7C-4D17-A551-206C7456A8A3";
layerId = "F6BF9D77-F83E-4FF5-97F5-A0E9F5FADAD8";
name = "Mar 24 20, 15:12";
paths = (
{
closed = 1;
nodes = (
"471 110 LINE",
"223 110 OFFCURVE",
"104 140 OFFCURVE",
"73 203 CURVE",
"141 211 LINE",
"40 44 LINE",
"-11 147 LINE",
"55 19 OFFCURVE",
"276 0 OFFCURVE",
"471 0 CURVE"
);
},
{
closed = 1;
nodes = (
"744 0 LINE",
"744 103 LINE",
"744 103 OFFCURVE",
"688 110 OFFCURVE",
"638 110 CURVE SMOOTH",
"471 110 LINE",
"471 0 LINE"
);
},
{
closed = 1;
nodes = (
"849 0 LINE",
"864 14 LINE",
"864 14 OFFCURVE",
"849 138 OFFCURVE",
"849 247 CURVE SMOOTH",
"849 458 LINE",
"724 443 LINE",
"724 265 LINE SMOOTH",
"724 153 OFFCURVE",
"736 42 OFFCURVE",
"736 42 CURVE",
"733 0 LINE"
);
}
);
width = 944;
},
{
anchors = (
{
name = bottom;
position = "{448, -96}";
},
{
name = ring;
position = "{472, 0}";
},
{
name = top;
position = "{448, 338}";
}
);
associatedMasterId = "090CB6A0-BE7C-4D17-A551-206C7456A8A3";
layerId = "8098BD34-70D8-48E5-BC4E-70186168AE43";
name = "Mar 25 20, 15:48";
paths = (
{
closed = 1;
nodes = (
"471 110 LINE",
"223 110 OFFCURVE",
"104 140 OFFCURVE",
"73 203 CURVE",
"141 211 LINE",
"40 44 LINE",
"-11 147 LINE",
"55 19 OFFCURVE",
"276 0 OFFCURVE",
"471 0 CURVE"
);
},
{
closed = 1;
nodes = (
"744 0 LINE",
"749 109 LINE",
"749 109 OFFCURVE",
"659 119 OFFCURVE",
"659 119 CURVE SMOOTH",
"471 119 LINE",
"471 0 LINE"
);
},
{
closed = 1;
nodes = (
"849 0 LINE",
"864 14 LINE",
"864 14 OFFCURVE",
"849 138 OFFCURVE",
"849 247 CURVE SMOOTH",
"849 458 LINE",
"679 438 LINE",
"714 488 LINE",
"714 265 LINE SMOOTH",
"714 153 OFFCURVE",
"726 42 OFFCURVE",
"726 42 CURVE",
"723 0 LINE"
);
}
);
width = 944;
},
{
anchors = (
{
name = bottom;
position = "{448, -96}";
},
{
name = ring;
position = "{472, 0}";
},
{
name = top;
position = "{448, 338}";
}
);
associatedMasterId = "090CB6A0-BE7C-4D17-A551-206C7456A8A3";
layerId = "997B86A4-DB16-4D01-AEB4-88F9E21D0FB7";
name = "Mar 25 20, 15:50";
paths = (
{
closed = 1;
nodes = (
"228 119 OFFCURVE",
"121 152 OFFCURVE",
"104 215 CURVE",
"146 221 LINE",
"28 19 LINE",
"-21 170 LINE",
"30 21 OFFCURVE",
"265 0 OFFCURVE",
"471 0 CURVE",
"471 119 LINE"
);
},
{
closed = 1;
nodes = (
"744 0 LINE",
"749 109 LINE",
"749 109 OFFCURVE",
"659 119 OFFCURVE",
"659 119 CURVE",
"471 119 LINE",
"471 0 LINE"
);
},
{
closed = 1;
nodes = (
"849 0 LINE",
"864 14 LINE",
"864 14 OFFCURVE",
"849 138 OFFCURVE",
"849 247 CURVE SMOOTH",
"849 458 LINE",
"679 438 LINE",
"714 488 LINE",
"714 265 LINE SMOOTH",
"714 153 OFFCURVE",
"726 42 OFFCURVE",
"726 42 CURVE",
"723 0 LINE"
);
}
);
width = 944;
},
{
anchors = (
{
name = bottom;
position = "{455, -96}";
},
{
name = ring;
position = "{474, 0}";
},
{
name = top;
position = "{455, 338}";
}
);
associatedMasterId = "14EEE41F-D714-4243-A717-73445EE7DABA";
layerId = "3A16A303-781F-4781-AFE1-2B3B6F87E2FF";
name = "Sep 26 22, 15:00";
paths = (
{
closed = 1;
nodes = (
"466 75 LINE",
"229 75 OFFCURVE",
"106 106 OFFCURVE",
"57 172 CURVE",
"118 170 LINE",
"46 51 LINE",
"4 126 LINE",
"82 17 OFFCURVE",
"289 0 OFFCURVE",
"473 0 CURVE"
);
},
{
closed = 1;
nodes = (
"786 0 LINE",
"786 68 LINE",
"786 68 OFFCURVE",
"730 75 OFFCURVE",
"680 75 CURVE SMOOTH",
"466 75 LINE",
"473 0 LINE"
);
},
{
closed = 1;
nodes = (
"851 0 LINE",
"866 14 LINE",
"866 14 OFFCURVE",
"851 138 OFFCURVE",
"851 247 CURVE SMOOTH",
"851 362 LINE",
"766 352 LINE",
"766 265 LINE SMOOTH",
"766 153 OFFCURVE",
"778 42 OFFCURVE",
"778 42 CURVE",
"775 0 LINE"
);
}
);
width = 946;
},
{
anchors = (
{
name = bottom;
position = "{443, -96}";
},
{
name = ring;
position = "{474, 0}";
},
{
name = top;
position = "{443, 338}";
}
);
components = (
{
name = "behDotless-ar.init";
transform = "{1, 0, 0, 1, 690, 0}";
}
);
layerId = "3114FB65-9464-41A5-B67E-A8F9F43C0EF1";
paths = (
{
closed = 1;
nodes = (
"786 0 LINE",
"786 30 LINE",
"473 30 LINE SMOOTH",
"283 30 OFFCURVE",
"159 50 OFFCURVE",
"84 94 CURVE",
"73 94 LINE",
"60 74 LINE",
"158 11 OFFCURVE",
"323 0 OFFCURVE",
"473 0 CURVE SMOOTH"
);
}
);
width = 881;
}
);
unicode = 066E;
},
{
glyphname = "behDotless-ar.fina";
layers = (
{
components = (
{
name = _connection.r;
transform = "{1, 0, 0, 1, 869, 0}";
},
{
name = "behDotless-ar";
}
);
layerId = "14EEE41F-D714-4243-A717-73445EE7DABA";
paths = (
{
closed = 1;
nodes = (
"919 0 LINE",
"919 75 LINE",
"815 75 LINE",
"815 0 LINE"
);
}
);
width = 919;
},
{
anchors = (
{
name = bottom;
position = "{472, -70}";
},
{
name = ring;
position = "{472, 0}";
},
{
name = top;
position = "{472, 430}";
}
);
associatedMasterId = "14EEE41F-D714-4243-A717-73445EE7DABA";
components = (
{
name = _connection.r;
transform = "{1, 0, 0, 1, 892, 0}";
}
);
layerId = "1C3EA0F1-3220-45A7-BB0E-E54029F06AC2";
name = "Nov 22 19, 17:04";
paths = (
{
closed = 1;
nodes = (
"784 67 LINE",
"678 75 LINE",
"391 75 LINE",
"391 0 LINE",
"784 0 LINE"
);
},
{
closed = 1;
nodes = (
"70 319 OFFCURVE",
"50 276 OFFCURVE",
"50 217 CURVE SMOOTH",
"50 28 OFFCURVE",
"241 0 OFFCURVE",
"391 0 CURVE",
"391 75 LINE",
"208 75 OFFCURVE",
"135 116 OFFCURVE",
"135 217 CURVE SMOOTH",
"135 254 OFFCURVE",
"143 281 OFFCURVE",
"168 325 CURVE",
"94 362 LINE"
);
},
{
closed = 1;
nodes = (
"849 0 LINE",
"864 14 LINE",
"858 95 OFFCURVE",
"848 166 OFFCURVE",
"849 237 CURVE",
"849 348 LINE",
"764 348 LINE",
"764 135 LINE",
"777 42 LINE",
"773 0 LINE"
);
},
{
closed = 1;
nodes = (
"942 0 LINE",
"942 75 LINE",
"818 75 LINE",
"818 0 LINE"
);
}
);
width = 942;
},
{
anchors = (
{
name = bottom;
position = "{472, -70}";
},
{
name = ring;
position = "{472, 0}";
},
{
name = top;
position = "{472, 430}";
}
);
associatedMasterId = "14EEE41F-D714-4243-A717-73445EE7DABA";
components = (
{
name = _connection.r;
transform = "{1, 0, 0, 1, 892, 0}";
}
);
layerId = "CD4F5824-A2A7-4F7F-A4FC-114B8B1CFD0A";
name = "Dec 4 19, 14:23";
paths = (
{
closed = 1;
nodes = (
"942 0 LINE",
"942 75 LINE",
"818 75 LINE",
"818 0 LINE"
);
},
{
closed = 1;
nodes = (
"784 67 LINE",
"678 75 LINE",
"343 75 LINE",
"343 0 LINE",
"784 0 LINE"
);
},
{
closed = 1;
nodes = (
"90 16 OFFCURVE",
"229 0 OFFCURVE",
"343 0 CURVE",
"343 75 LINE",
"200 75 OFFCURVE",
"114 100 OFFCURVE",
"88 159 CURVE",
"108 159 LINE",
"21 85 LINE",
"31 108 LINE"
);
},
{
closed = 1;
nodes = (
"849 0 LINE",
"864 14 LINE",
"858 95 OFFCURVE",
"849 166 OFFCURVE",
"849 237 CURVE SMOOTH",
"849 348 LINE",
"764 348 LINE",
"764 265 LINE SMOOTH",
"764 194 OFFCURVE",
"773 123 OFFCURVE",
"779 42 CURVE",
"773 0 LINE"
);
}
);
width = 942;
},
{
anchors = (
{
name = bottom;
position = "{472, -70}";
},
{
name = ring;
position = "{472, 0}";
},
{
name = top;
position = "{472, 348}";
}
);
associatedMasterId = "14EEE41F-D714-4243-A717-73445EE7DABA";
components = (
{
name = _connection.r;
transform = "{1, 0, 0, 1, 892, 0}";
}
);
layerId = "ABAE9F08-D66F-429D-B789-E4CB17D3BD14";
name = "Dec 4 19, 14:30";
paths = (
{
closed = 1;
nodes = (
"942 0 LINE",
"942 75 LINE",
"818 75 LINE",
"818 0 LINE"
);
},
{
closed = 1;
nodes = (
"343 75 LINE",
"200 75 OFFCURVE",
"114 100 OFFCURVE",
"88 159 CURVE",
"108 159 LINE",
"21 85 LINE",
"31 108 LINE",
"90 16 OFFCURVE",
"229 0 OFFCURVE",
"343 0 CURVE"
);
},
{
closed = 1;
nodes = (
"764 153 OFFCURVE",
"776 42 OFFCURVE",
"776 42 CURVE",
"773 0 LINE",
"849 0 LINE",
"864 14 LINE",
"864 14 OFFCURVE",
"849 138 OFFCURVE",
"849 247 CURVE SMOOTH",
"849 348 LINE",
"764 338 LINE",
"764 265 LINE SMOOTH"
);
},
{
closed = 1;
nodes = (
"784 0 LINE",
"784 68 LINE",
"784 68 OFFCURVE",
"728 75 OFFCURVE",
"678 75 CURVE SMOOTH",
"343 75 LINE",
"343 0 LINE"
);
}
);
width = 942;
},
{
anchors = (
{
name = bottom;
position = "{472, -70}";
},
{
name = ring;
position = "{472, 0}";
},
{
name = top;
position = "{472, 348}";
}
);
associatedMasterId = "14EEE41F-D714-4243-A717-73445EE7DABA";
components = (
{
name = _connection.r;
transform = "{1, 0, 0, 1, 892, 0}";
}
);
layerId = "5584AF21-BC7A-4AE0-8B54-2D30F2A6CB39";
name = "Dec 4 19, 14:30";
paths = (
{
closed = 1;
nodes = (
"942 0 LINE",
"942 75 LINE",
"818 75 LINE",
"818 0 LINE"
);
},
{
closed = 1;
nodes = (
"764 153 OFFCURVE",
"776 42 OFFCURVE",
"776 42 CURVE",
"773 0 LINE",
"849 0 LINE",
"864 14 LINE",
"864 14 OFFCURVE",
"849 138 OFFCURVE",
"849 247 CURVE SMOOTH",
"849 348 LINE",
"764 338 LINE",
"764 265 LINE SMOOTH"
);
},
{
closed = 1;
nodes = (
"784 0 LINE",
"784 68 LINE",
"784 68 OFFCURVE",
"728 75 OFFCURVE",
"678 75 CURVE SMOOTH",
"471 75 LINE",
"471 0 LINE"
);
},
{
closed = 1;
nodes = (
"237 75 OFFCURVE",
"116 106 OFFCURVE",
"68 172 CURVE",
"116 170 LINE",
"34 51 LINE",
"2 126 LINE",
"80 17 OFFCURVE",
"287 0 OFFCURVE",
"471 0 CURVE",
"471 75 LINE"
);
}
);
width = 942;
},
{
components = (
{
name = _connection.r;
transform = "{1, 0, 0, 1, 894, 0}";
},
{
name = "behDotless-ar";
}
);
layerId = "090CB6A0-BE7C-4D17-A551-206C7456A8A3";
paths = (
{
closed = 1;
nodes = (
"944 0 LINE",
"944 119 LINE",
"840 119 LINE",
"840 0 LINE"
);
}
);
width = 944;
},
{
anchors = (
{
name = bottom;
position = "{453, -96}";
},
{
name = ring;
position = "{472, 0}";
},
{
name = top;
position = "{453, 338}";
}
);
associatedMasterId = "090CB6A0-BE7C-4D17-A551-206C7456A8A3";
components = (
{
name = _connection.r;
transform = "{1, 0, 0, 1, 872, 0}";
}
);
layerId = "A28DD53D-98C3-4B44-AE48-4D8F69A067E8";
name = "Mar 25 20, 15:57";
paths = (
{
closed = 1;
nodes = (
"471 110 LINE",
"223 110 OFFCURVE",
"104 140 OFFCURVE",
"73 203 CURVE",
"141 211 LINE",
"40 44 LINE",
"-11 147 LINE",
"55 19 OFFCURVE",
"276 0 OFFCURVE",
"471 0 CURVE"
);
},
{
closed = 1;
nodes = (
"744 0 LINE",
"744 103 LINE",
"744 103 OFFCURVE",
"688 110 OFFCURVE",
"638 110 CURVE SMOOTH",
"471 110 LINE",
"471 0 LINE"
);
},
{
closed = 1;
nodes = (
"922 0 LINE",
"922 110 LINE",
"818 110 LINE",
"818 0 LINE"
);
},
{
closed = 1;
nodes = (
"849 0 LINE",
"864 14 LINE",
"864 14 OFFCURVE",
"849 138 OFFCURVE",
"849 247 CURVE SMOOTH",
"849 362 LINE",
"724 347 LINE",
"724 265 LINE SMOOTH",
"724 153 OFFCURVE",
"736 42 OFFCURVE",
"736 42 CURVE",
"733 0 LINE"
);
}
);
width = 922;
},
{
anchors = (
{
name = bottom;
position = "{472, -96}";
},
{
name = ring;
position = "{472, 0}";
},
{
name = top;
position = "{472, 389}";
}
);
associatedMasterId = "14EEE41F-D714-4243-A717-73445EE7DABA";
components = (
{
name = _connection.r;
transform = "{1, 0, 0, 1, 862, 0}";
}
);
layerId = "E22B6EEE-6842-474A-B052-07DBF7054198";
name = "Sep 26 22, 12:49";
paths = (
{
closed = 1;
nodes = (
"464 75 LINE",
"230 75 OFFCURVE",
"109 106 OFFCURVE",
"61 172 CURVE",
"116 170 LINE",
"44 51 LINE",
"2 126 LINE",
"80 17 OFFCURVE",
"287 0 OFFCURVE",
"471 0 CURVE"
);
},
{
closed = 1;
nodes = (
"784 0 LINE",
"784 68 LINE",
"784 68 OFFCURVE",
"728 75 OFFCURVE",
"678 75 CURVE SMOOTH",
"461 75 LINE",
"471 0 LINE"
);
},
{
closed = 1;
nodes = (
"912 0 LINE",
"912 75 LINE",
"818 75 LINE",
"818 0 LINE"
);
},
{
closed = 1;
nodes = (
"849 0 LINE",
"864 14 LINE",
"864 14 OFFCURVE",
"849 138 OFFCURVE",
"849 247 CURVE SMOOTH",
"849 362 LINE",
"764 352 LINE",
"764 265 LINE SMOOTH",
"764 153 OFFCURVE",
"776 42 OFFCURVE",
"776 42 CURVE",
"773 0 LINE"
);
}
);
width = 912;
},
{
anchors = (
{
name = bottom;
position = "{472, -96}";
},
{
name = ring;
position = "{472, 0}";
},
{
name = top;
position = "{472, 389}";
}
);
associatedMasterId = "14EEE41F-D714-4243-A717-73445EE7DABA";
components = (
{
name = _connection.r;
transform = "{1, 0, 0, 1, 862, 0}";
}
);
layerId = "EC5B39AC-B435-4847-9C9C-62B693468D07";
name = "Sep 26 22, 15:03";
paths = (
{
closed = 1;
nodes = (
"464 75 LINE",
"230 75 OFFCURVE",
"109 106 OFFCURVE",
"61 172 CURVE",
"116 170 LINE",
"44 51 LINE",
"2 126 LINE",
"80 17 OFFCURVE",
"287 0 OFFCURVE",
"471 0 CURVE"
);
},
{
closed = 1;
nodes = (
"784 0 LINE",
"784 75 LINE",
"678 75 LINE",
"461 75 LINE",
"471 0 LINE"
);
},
{
closed = 1;
nodes = (
"912 0 LINE",
"912 75 LINE",
"818 75 LINE",
"818 0 LINE"
);
},
{
closed = 1;
nodes = (
"849 0 LINE",
"864 14 LINE",
"864 14 OFFCURVE",
"849 138 OFFCURVE",
"849 247 CURVE SMOOTH",
"849 362 LINE",
"764 352 LINE",
"764 265 LINE SMOOTH",
"764 153 OFFCURVE",
"776 42 OFFCURVE",
"776 42 CURVE",
"773 0 LINE"
);
}
);
width = 912;
},
{
components = (
{
name = _connection.r;
transform = "{1, 0, 0, 1, 819, 0}";
},
{
name = "behDotless-ar";
}
);
layerId = "3114FB65-9464-41A5-B67E-A8F9F43C0EF1";
paths = (
{
closed = 1;
nodes = (
"869 0 LINE",
"869 30 LINE",
"775 30 LINE",
"775 0 LINE"
);
}
);
width = 869;
}
);
leftMetricsKey = "=behDotless-ar";
rightMetricsKey = "=-20";
},
{
glyphname = "behDotless-ar.medi";
layers = (
{
components = (
{
name = _connection.r;
transform = "{1, 0, 0, 1, 194, 0}";
},
{
name = "behDotless-ar.init";
}
);
layerId = "14EEE41F-D714-4243-A717-73445EE7DABA";
paths = (
{
closed = 1;
nodes = (
"244 0 LINE",
"244 75 LINE",
"140 75 LINE",
"140 0 LINE"
);
}
);
width = 244;
},
{
anchors = (
{
name = bottom;
position = "{149, -70}";
},
{
name = ring;
position = "{137, 0}";
},
{
name = top;
position = "{149, 440}";
}
);
associatedMasterId = "14EEE41F-D714-4243-A717-73445EE7DABA";
components = (
{
name = _connection.l;
},
{
name = _connection.r;
transform = "{1, 0, 0, 1, 234, 0}";
}
);
layerId = "144B7664-46A8-4EA6-A04B-5EFEBF9A4BB3";
name = "Nov 21 19, 23:29";
paths = (
{
closed = 1;
nodes = (
"191 0 LINE",
"206 14 LINE",
"200 95 OFFCURVE",
"190 166 OFFCURVE",
"191 237 CURVE",
"191 359 LINE",
"106 359 LINE",
"106 135 LINE",
"119 42 LINE",
"115 0 LINE"
);
},
{
closed = 1;
nodes = (
"126 67 LINE",
"20 75 LINE",
"0 75 LINE",
"0 0 LINE",
"126 0 LINE"
);
},
{
closed = 1;
nodes = (
"284 0 LINE",
"284 75 LINE",
"160 75 LINE",
"160 0 LINE"
);
}
);
width = 284;
},
{
anchors = (
{
name = bottom;
position = "{149, -70}";
},
{
name = ring;
position = "{137, 0}";
},
{
name = top;
position = "{149, 470}";
}
);
associatedMasterId = "14EEE41F-D714-4243-A717-73445EE7DABA";
components = (
{
name = _connection.l;
},
{
name = _connection.r;
transform = "{1, 0, 0, 1, 234, 0}";
}
);
layerId = "7DD1563C-59C8-4118-9A63-9376B00B3CC0";
name = "Nov 22 19, 17:10";
paths = (
{
closed = 1;
nodes = (
"191 0 LINE",
"206 14 LINE",
"200 95 OFFCURVE",
"190 166 OFFCURVE",
"191 237 CURVE",
"191 389 LINE",
"106 389 LINE",
"106 135 LINE",
"119 42 LINE",
"115 0 LINE"
);
},
{
closed = 1;
nodes = (
"126 67 LINE",
"20 75 LINE",
"0 75 LINE",
"0 0 LINE",
"126 0 LINE"
);
},
{
closed = 1;
nodes = (
"284 0 LINE",
"284 75 LINE",
"160 75 LINE",
"160 0 LINE"
);
}
);
width = 284;
},
{
anchors = (
{
name = bottom;
position = "{149, -70}";
},
{
name = ring;
position = "{137, 0}";
},
{
name = top;
position = "{149, 470}";
}
);
associatedMasterId = "14EEE41F-D714-4243-A717-73445EE7DABA";
components = (
{
name = _connection.l;
},
{
name = _connection.r;
transform = "{1, 0, 0, 1, 234, 0}";
}
);
layerId = "38AFEFC2-E275-4C25-AE72-527830276AC0";
name = "Nov 22 19, 17:10";
paths = (
{
closed = 1;
nodes = (
"126 67 LINE",
"20 75 LINE",
"0 75 LINE",
"0 0 LINE",
"126 0 LINE"
);
},
{
closed = 1;
nodes = (
"284 0 LINE",
"284 75 LINE",
"160 75 LINE",
"160 0 LINE"
);
},
{
closed = 1;
nodes = (
"191 0 LINE",
"206 14 LINE",
"200 95 OFFCURVE",
"191 166 OFFCURVE",
"191 237 CURVE SMOOTH",
"191 389 LINE",
"106 389 LINE",
"106 265 LINE SMOOTH",
"106 194 OFFCURVE",
"115 123 OFFCURVE",
"121 42 CURVE",
"115 0 LINE"
);
}
);
width = 284;
},
{
anchors = (
{
name = bottom;
position = "{149, -70}";
},
{
name = ring;
position = "{137, 0}";
},
{
name = top;
position = "{149, 470}";
}
);
associatedMasterId = "14EEE41F-D714-4243-A717-73445EE7DABA";
components = (
{
name = _connection.l;
},
{
name = _connection.r;
transform = "{1, 0, 0, 1, 234, 0}";
}
);
layerId = "598002F6-35EF-425B-B9DB-2C4AEBA90AF1";
name = "Dec 4 19, 14:01";
paths = (
{
closed = 1;
nodes = (
"126 67 LINE",
"20 75 LINE",
"0 75 LINE",
"0 0 LINE",
"126 0 LINE"
);
},
{
closed = 1;
nodes = (
"284 0 LINE",
"284 75 LINE",
"160 75 LINE",
"160 0 LINE"
);
},
{
closed = 1;
nodes = (
"191 0 LINE",
"206 14 LINE",
"200 95 OFFCURVE",
"190 166 OFFCURVE",
"191 237 CURVE",
"191 389 LINE",
"106 389 LINE",
"106 135 LINE",
"119 42 LINE",
"115 0 LINE"
);
}
);
width = 284;
},
{
components = (
{
name = _connection.r;
transform = "{1, 0, 0, 1, 234, 0}";
},
{
name = "behDotless-ar.init";
}
);
layerId = "090CB6A0-BE7C-4D17-A551-206C7456A8A3";
paths = (
{
closed = 1;
nodes = (
"284 0 LINE",
"284 119 LINE",
"180 119 LINE",
"180 0 LINE"
);
}
);
width = 284;
},
{
components = (
{
name = _connection.r;
transform = "{1, 0, 0, 1, 149, 0}";
},
{
name = "behDotless-ar.init";
}
);
layerId = "3114FB65-9464-41A5-B67E-A8F9F43C0EF1";
paths = (
{
closed = 1;
nodes = (
"199 0 LINE",
"199 30 LINE",
"95 30 LINE",
"95 0 LINE"
);
}
);
width = 199;
}
);
leftMetricsKey = "=-20";
rightMetricsKey = "=-20";
},
{
glyphname = "behDotless-ar.medi.high";
layers = (
{
components = (
{
name = _connection.r;
transform = "{1, 0, 0, 1, 194, 0}";
},
{
name = "behDotless-ar.init.high";
}
);
layerId = "14EEE41F-D714-4243-A717-73445EE7DABA";
paths = (
{
closed = 1;
nodes = (
"244 0 LINE",
"244 75 LINE",
"140 75 LINE",
"140 0 LINE"
);
}
);
width = 244;
},
{
anchors = (
{
name = bottom;
position = "{149, -70}";
},
{
name = ring;
position = "{137, 0}";
},
{
name = top;
position = "{149, 440}";
}
);
associatedMasterId = "14EEE41F-D714-4243-A717-73445EE7DABA";
components = (
{
name = _connection.l;
},
{
name = _connection.r;
transform = "{1, 0, 0, 1, 234, 0}";
}
);
layerId = "144B7664-46A8-4EA6-A04B-5EFEBF9A4BB3";
name = "Nov 21 19, 23:29";
paths = (
{
closed = 1;
nodes = (
"191 0 LINE",
"206 14 LINE",
"200 95 OFFCURVE",
"190 166 OFFCURVE",
"191 237 CURVE",
"191 359 LINE",
"106 359 LINE",
"106 135 LINE",
"119 42 LINE",
"115 0 LINE"
);
},
{
closed = 1;
nodes = (
"126 67 LINE",
"20 75 LINE",
"0 75 LINE",
"0 0 LINE",
"126 0 LINE"
);
},
{
closed = 1;
nodes = (
"284 0 LINE",
"284 75 LINE",
"160 75 LINE",
"160 0 LINE"
);
}
);
width = 284;
},
{
anchors = (
{
name = bottom;
position = "{149, -70}";
},
{
name = ring;
position = "{137, 0}";
},
{
name = top;
position = "{149, 470}";
}
);
associatedMasterId = "14EEE41F-D714-4243-A717-73445EE7DABA";
components = (
{
name = _connection.l;
},
{
name = _connection.r;
transform = "{1, 0, 0, 1, 234, 0}";
}
);
layerId = "7DD1563C-59C8-4118-9A63-9376B00B3CC0";
name = "Nov 22 19, 17:10";
paths = (
{
closed = 1;
nodes = (
"191 0 LINE",
"206 14 LINE",
"200 95 OFFCURVE",
"190 166 OFFCURVE",
"191 237 CURVE",
"191 389 LINE",
"106 389 LINE",
"106 135 LINE",
"119 42 LINE",
"115 0 LINE"
);
},
{
closed = 1;
nodes = (
"126 67 LINE",
"20 75 LINE",
"0 75 LINE",
"0 0 LINE",
"126 0 LINE"
);
},
{
closed = 1;
nodes = (
"284 0 LINE",
"284 75 LINE",
"160 75 LINE",
"160 0 LINE"
);
}
);
width = 284;
},
{
anchors = (
{
name = bottom;
position = "{149, -70}";
},
{
name = ring;
position = "{137, 0}";
},
{
name = top;
position = "{149, 470}";
}
);
associatedMasterId = "14EEE41F-D714-4243-A717-73445EE7DABA";
components = (
{
name = _connection.l;
},
{
name = _connection.r;
transform = "{1, 0, 0, 1, 234, 0}";
}
);
layerId = "38AFEFC2-E275-4C25-AE72-527830276AC0";
name = "Nov 22 19, 17:10";
paths = (
{
closed = 1;
nodes = (
"126 67 LINE",
"20 75 LINE",
"0 75 LINE",
"0 0 LINE",
"126 0 LINE"
);
},
{
closed = 1;
nodes = (
"284 0 LINE",
"284 75 LINE",
"160 75 LINE",
"160 0 LINE"
);
},
{
closed = 1;
nodes = (
"191 0 LINE",
"206 14 LINE",
"200 95 OFFCURVE",
"191 166 OFFCURVE",
"191 237 CURVE SMOOTH",
"191 389 LINE",
"106 389 LINE",
"106 265 LINE SMOOTH",
"106 194 OFFCURVE",
"115 123 OFFCURVE",
"121 42 CURVE",
"115 0 LINE"
);
}
);
width = 284;
},
{
anchors = (
{
name = bottom;
position = "{149, -70}";
},
{
name = ring;
position = "{137, 0}";
},
{
name = top;
position = "{149, 470}";
}
);
associatedMasterId = "14EEE41F-D714-4243-A717-73445EE7DABA";
components = (
{
name = _connection.l;
},
{
name = _connection.r;
transform = "{1, 0, 0, 1, 234, 0}";
}
);
layerId = "598002F6-35EF-425B-B9DB-2C4AEBA90AF1";
name = "Dec 4 19, 14:01";
paths = (
{
closed = 1;
nodes = (
"126 67 LINE",
"20 75 LINE",
"0 75 LINE",
"0 0 LINE",
"126 0 LINE"
);
},
{
closed = 1;
nodes = (
"284 0 LINE",
"284 75 LINE",
"160 75 LINE",
"160 0 LINE"
);
},
{
closed = 1;
nodes = (
"191 0 LINE",
"206 14 LINE",
"200 95 OFFCURVE",
"190 166 OFFCURVE",
"191 237 CURVE",
"191 389 LINE",
"106 389 LINE",
"106 135 LINE",
"119 42 LINE",
"115 0 LINE"
);
}
);
width = 284;
},
{
components = (
{
name = _connection.r;
transform = "{1, 0, 0, 1, 234, 0}";
},
{
name = "behDotless-ar.init.high";
}
);
layerId = "090CB6A0-BE7C-4D17-A551-206C7456A8A3";
paths = (
{
closed = 1;
nodes = (
"284 0 LINE",
"284 119 LINE",
"180 119 LINE",
"180 0 LINE"
);
}
);
width = 284;
},
{
components = (
{
name = _connection.r;
transform = "{1, 0, 0, 1, 149, 0}";
},
{
name = "behDotless-ar.init.high";
}
);
layerId = "3114FB65-9464-41A5-B67E-A8F9F43C0EF1";
paths = (
{
closed = 1;
nodes = (
"199 0 LINE",
"199 30 LINE",
"95 30 LINE",
"95 0 LINE"
);
}
);
width = 199;
}
);
leftMetricsKey = "=-20";
rightMetricsKey = "=-20";
},
{
glyphname = "behDotless-ar.init";
layers = (
{
anchors = (
{
name = bottom;
position = "{119, -96}";
},
{
name = ring;
position = "{93, 0}";
},
{
name = top;
position = "{124, 458}";
}
);
components = (
{
name = _connection.l;
}
);
layerId = "14EEE41F-D714-4243-A717-73445EE7DABA";
paths = (
{
closed = 1;
nodes = (
"161 0 LINE",
"176 14 LINE",
"176 14 OFFCURVE",
"161 138 OFFCURVE",
"161 247 CURVE SMOOTH",
"161 354 LINE",
"158 362 LINE",
"86 353 LINE",
"86 265 LINE SMOOTH",
"86 153 OFFCURVE",
"98 42 OFFCURVE",
"98 42 CURVE",
"95 0 LINE"
);
},
{
closed = 1;
nodes = (
"106 0 LINE",
"106 75 LINE",
"0 75 LINE",
"0 0 LINE"
);
}
);
width = 231;
},
{
associatedMasterId = "14EEE41F-D714-4243-A717-73445EE7DABA";
layerId = "AA857F37-29A6-4D6C-8A70-77DDB2D759B1";
name = "Nov 20 19, 12:19";
paths = (
{
closed = 1;
nodes = (
"135 0 LINE",
"150 14 LINE",
"144 95 OFFCURVE",
"134 166 OFFCURVE",
"135 237 CURVE",
"135 448 LINE",
"50 448 LINE",
"50 135 LINE",
"63 42 LINE",
"59 0 LINE"
);
},
{
closed = 1;
nodes = (
"70 67 LINE",
"-36 75 LINE",
"-66 75 LINE",
"-66 0 LINE",
"70 0 LINE"
);
}
);
width = 600;
},
{
associatedMasterId = "14EEE41F-D714-4243-A717-73445EE7DABA";
layerId = "DA6C0E42-7196-464B-AD4B-496AAD5509A4";
name = "Nov 20 19, 12:21";
paths = (
{
closed = 1;
nodes = (
"135 0 LINE",
"150 14 LINE",
"144 95 OFFCURVE",
"134 166 OFFCURVE",
"135 237 CURVE",
"135 448 LINE",
"50 448 LINE",
"50 0 LINE"
);
},
{
closed = 1;
nodes = (
"60 67 LINE",
"-36 75 LINE",
"-66 75 LINE",
"-66 0 LINE",
"60 0 LINE"
);
}
);
width = 190;
},
{
anchors = (
{
name = bottom;
position = "{149, -70}";
},
{
name = ring;
position = "{123, 0}";
},
{
name = top;
position = "{149, 480}";
}
);
associatedMasterId = "14EEE41F-D714-4243-A717-73445EE7DABA";
components = (
{
name = _connection.l;
}
);
layerId = "E185AA56-B2D8-4F42-B9C7-E1BAED1D1A7A";
name = "Nov 21 19, 23:29";
paths = (
{
closed = 1;
nodes = (
"191 0 LINE",
"206 14 LINE",
"200 95 OFFCURVE",
"190 166 OFFCURVE",
"191 237 CURVE",
"191 398 LINE",
"106 398 LINE",
"106 135 LINE",
"119 42 LINE",
"115 0 LINE"
);
},
{
closed = 1;
nodes = (
"126 67 LINE",
"20 75 LINE",
"0 75 LINE",
"0 0 LINE",
"126 0 LINE"
);
}
);
width = 256;
},
{
anchors = (
{
name = bottom;
position = "{149, -70}";
},
{
name = ring;
position = "{123, 0}";
},
{
name = top;
position = "{149, 430}";
}
);
associatedMasterId = "14EEE41F-D714-4243-A717-73445EE7DABA";
components = (
{
name = _connection.l;
}
);
layerId = "97A729D1-8061-4233-A1CC-44C9FA2A390E";
name = "Nov 22 19, 17:10";
paths = (
{
closed = 1;
nodes = (
"191 0 LINE",
"206 14 LINE",
"200 95 OFFCURVE",
"190 166 OFFCURVE",
"191 237 CURVE",
"191 348 LINE",
"106 348 LINE",
"106 135 LINE",
"119 42 LINE",
"115 0 LINE"
);
},
{
closed = 1;
nodes = (
"126 67 LINE",
"20 75 LINE",
"0 75 LINE",
"0 0 LINE",
"126 0 LINE"
);
}
);
width = 256;
},
{
anchors = (
{
name = bottom;
position = "{149, -70}";
},
{
name = ring;
position = "{123, 0}";
},
{
name = top;
position = "{149, 430}";
}
);
associatedMasterId = "14EEE41F-D714-4243-A717-73445EE7DABA";
components = (
{
name = _connection.l;
}
);
layerId = "C4126E8E-961E-4191-9154-AFA14C252AA9";
name = "Dec 4 19, 13:56";
paths = (
{
closed = 1;
nodes = (
"126 67 LINE",
"20 75 LINE",
"0 75 LINE",
"0 0 LINE",
"126 0 LINE"
);
},
{
closed = 1;
nodes = (
"191 0 LINE",
"206 14 LINE",
"200 95 OFFCURVE",
"191 166 OFFCURVE",
"191 237 CURVE SMOOTH",
"191 348 LINE",
"106 348 LINE",
"106 265 LINE SMOOTH",
"106 194 OFFCURVE",
"115 123 OFFCURVE",
"121 42 CURVE",
"115 0 LINE"
);
}
);
width = 256;
},
{
anchors = (
{
name = bottom;
position = "{149, -70}";
},
{
name = ring;
position = "{123, 0}";
},
{
name = top;
position = "{149, 430}";
}
);
associatedMasterId = "14EEE41F-D714-4243-A717-73445EE7DABA";
components = (
{
name = _connection.l;
}
);
layerId = "147D4047-638D-4D26-A940-EFB2BFE2C2E3";
name = "Dec 4 19, 13:57";
paths = (
{
closed = 1;
nodes = (
"0 75 LINE",
"0 0 LINE",
"126 0 LINE",
"126 68 LINE",
"126 68 OFFCURVE",
"70 75 OFFCURVE",
"20 75 CURVE SMOOTH"
);
},
{
closed = 1;
nodes = (
"206 14 LINE",
"206 14 OFFCURVE",
"191 138 OFFCURVE",
"191 247 CURVE SMOOTH",
"191 348 LINE",
"106 338 LINE",
"106 265 LINE SMOOTH",
"106 194 OFFCURVE",
"115 123 OFFCURVE",
"121 42 CURVE",
"115 0 LINE",
"191 0 LINE"
);
}
);
width = 256;
},
{
anchors = (
{
name = bottom;
position = "{149, -70}";
},
{
name = ring;
position = "{123, 0}";
},
{
name = top;
position = "{149, 430}";
}
);
associatedMasterId = "14EEE41F-D714-4243-A717-73445EE7DABA";
components = (
{
name = _connection.l;
}
);
layerId = "3C3BDD9F-D7B0-4F7B-B078-CE54E149A5AE";
name = "Dec 4 19, 13:58";
paths = (
{
closed = 1;
nodes = (
"0 75 LINE",
"0 0 LINE",
"126 0 LINE",
"126 68 LINE",
"126 68 OFFCURVE",
"70 75 OFFCURVE",
"20 75 CURVE SMOOTH"
);
},
{
closed = 1;
nodes = (
"206 14 LINE",
"206 14 OFFCURVE",
"191 138 OFFCURVE",
"191 247 CURVE SMOOTH",
"191 348 LINE",
"106 338 LINE",
"106 0 LINE",
"191 0 LINE"
);
}
);
width = 256;
},
{
anchors = (
{
name = bottom;
position = "{93, -96}";
},
{
name = ring;
position = "{140, 0}";
},
{
name = top;
position = "{154, 469}";
}
);
components = (
{
name = _connection.l;
}
);
layerId = "090CB6A0-BE7C-4D17-A551-206C7456A8A3";
paths = (
{
closed = 1;
nodes = (
"221 0 LINE",
"236 14 LINE",
"236 14 OFFCURVE",
"221 138 OFFCURVE",
"221 247 CURVE SMOOTH",
"221 354 LINE",
"218 362 LINE",
"86 346 LINE",
"86 265 LINE SMOOTH",
"86 153 OFFCURVE",
"98 42 OFFCURVE",
"98 42 CURVE",
"95 0 LINE"
);
},
{
closed = 1;
nodes = (
"106 0 LINE",
"106 119 LINE",
"0 119 LINE",
"0 0 LINE"
);
}
);
width = 286;
},
{
anchors = (
{
name = bottom;
position = "{88, -96}";
},
{
name = ring;
position = "{140, 0}";
},
{
name = top;
position = "{149, 475}";
}
);
associatedMasterId = "090CB6A0-BE7C-4D17-A551-206C7456A8A3";
components = (
{
name = _connection.l;
}
);
layerId = "1FE189CD-2164-4C77-A700-392B9CD712B0";
name = "Mar 24 20, 15:16";
paths = (
{
closed = 1;
nodes = (
"211 0 LINE",
"226 14 LINE",
"226 14 OFFCURVE",
"211 138 OFFCURVE",
"211 247 CURVE SMOOTH",
"211 362 LINE",
"86 347 LINE",
"86 265 LINE SMOOTH",
"86 153 OFFCURVE",
"98 42 OFFCURVE",
"98 42 CURVE",
"95 0 LINE"
);
},
{
closed = 1;
nodes = (
"106 0 LINE",
"106 103 LINE",
"106 103 OFFCURVE",
"50 110 OFFCURVE",
"0 110 CURVE",
"0 0 LINE"
);
}
);
width = 276;
},
{
anchors = (
{
name = bottom;
position = "{129, -96}";
},
{
name = ring;
position = "{103, 0}";
},
{
name = top;
position = "{129, 458}";
}
);
associatedMasterId = "14EEE41F-D714-4243-A717-73445EE7DABA";
components = (
{
name = _connection.l;
}
);
layerId = "2D089F4E-3173-4340-89FB-E93D79E0CF39";
name = "Sep 26 22, 14:56";
paths = (
{
closed = 1;
nodes = (
"171 0 LINE",
"186 14 LINE",
"186 14 OFFCURVE",
"171 138 OFFCURVE",
"171 247 CURVE SMOOTH",
"171 362 LINE",
"86 352 LINE",
"86 265 LINE SMOOTH",
"86 153 OFFCURVE",
"98 42 OFFCURVE",
"98 42 CURVE",
"95 0 LINE"
);
},
{
closed = 1;
nodes = (
"106 0 LINE",
"106 68 LINE",
"106 68 OFFCURVE",
"51 75 OFFCURVE",
"1 75 CURVE",
"0 75 LINE",
"0 0 LINE"
);
}
);
width = 236;
},
{
anchors = (
{
name = bottom;
position = "{101, -96}";
},
{
name = ring;
position = "{93, 0}";
},
{
name = top;
position = "{101, 458}";
}
);
components = (
{
name = _connection.l;
}
);
layerId = "3114FB65-9464-41A5-B67E-A8F9F43C0EF1";
paths = (
{
closed = 1;
nodes = (
"116 0 LINE",
"131 14 LINE",
"124 77 OFFCURVE",
"116 170 OFFCURVE",
"116 247 CURVE SMOOTH",
"116 354 LINE",
"113 362 LINE",
"86 358 LINE",
"86 247 LINE SMOOTH",
"86 172 OFFCURVE",
"93 83 OFFCURVE",
"101 20 CURVE",
"103 0 LINE"
);
},
{
closed = 1;
nodes = (
"106 0 LINE",
"106 30 LINE",
"0 30 LINE",
"0 0 LINE"
);
}
);
width = 191;
}
);
leftMetricsKey = "=-20";
rightMetricsKey = "=behDotless-ar";
},
{
glyphname = "behDotless-ar.init.high";
layers = (
{
anchors = (
{
name = bottom;
position = "{119, -96}";
},
{
name = ring;
position = "{93, 0}";
},
{
name = top;
position = "{124, 553}";
}
);
components = (
{
name = "behDotless-ar.init";
}
);
layerId = "14EEE41F-D714-4243-A717-73445EE7DABA";
paths = (
{
closed = 1;
nodes = (
"161 449 LINE",
"158 457 LINE",
"86 448 LINE",
"86 342 LINE",
"161 342 LINE"
);
}
);
width = 231;
},
{
associatedMasterId = "14EEE41F-D714-4243-A717-73445EE7DABA";
layerId = "AA857F37-29A6-4D6C-8A70-77DDB2D759B1";
name = "Nov 20 19, 12:19";
paths = (
{
closed = 1;
nodes = (
"135 0 LINE",
"150 14 LINE",
"144 95 OFFCURVE",
"134 166 OFFCURVE",
"135 237 CURVE",
"135 448 LINE",
"50 448 LINE",
"50 135 LINE",
"63 42 LINE",
"59 0 LINE"
);
},
{
closed = 1;
nodes = (
"70 67 LINE",
"-36 75 LINE",
"-66 75 LINE",
"-66 0 LINE",
"70 0 LINE"
);
}
);
width = 600;
},
{
associatedMasterId = "14EEE41F-D714-4243-A717-73445EE7DABA";
layerId = "DA6C0E42-7196-464B-AD4B-496AAD5509A4";
name = "Nov 20 19, 12:21";
paths = (
{
closed = 1;
nodes = (
"135 0 LINE",
"150 14 LINE",
"144 95 OFFCURVE",
"134 166 OFFCURVE",
"135 237 CURVE",
"135 448 LINE",
"50 448 LINE",
"50 0 LINE"
);
},
{
closed = 1;
nodes = (
"60 67 LINE",
"-36 75 LINE",
"-66 75 LINE",
"-66 0 LINE",
"60 0 LINE"
);
}
);
width = 190;
},
{
anchors = (
{
name = bottom;
position = "{149, -70}";
},
{
name = ring;
position = "{123, 0}";
},
{
name = top;
position = "{149, 480}";
}
);
associatedMasterId = "14EEE41F-D714-4243-A717-73445EE7DABA";
components = (
{
name = _connection.l;
}
);
layerId = "E185AA56-B2D8-4F42-B9C7-E1BAED1D1A7A";
name = "Nov 21 19, 23:29";
paths = (
{
closed = 1;
nodes = (
"191 0 LINE",
"206 14 LINE",
"200 95 OFFCURVE",
"190 166 OFFCURVE",
"191 237 CURVE",
"191 398 LINE",
"106 398 LINE",
"106 135 LINE",
"119 42 LINE",
"115 0 LINE"
);
},
{
closed = 1;
nodes = (
"126 67 LINE",
"20 75 LINE",
"0 75 LINE",
"0 0 LINE",
"126 0 LINE"
);
}
);
width = 256;
},
{
anchors = (
{
name = bottom;
position = "{149, -70}";
},
{
name = ring;
position = "{123, 0}";
},
{
name = top;
position = "{149, 430}";
}
);
associatedMasterId = "14EEE41F-D714-4243-A717-73445EE7DABA";
components = (
{
name = _connection.l;
}
);
layerId = "97A729D1-8061-4233-A1CC-44C9FA2A390E";
name = "Nov 22 19, 17:10";
paths = (
{
closed = 1;
nodes = (
"191 0 LINE",
"206 14 LINE",
"200 95 OFFCURVE",
"190 166 OFFCURVE",
"191 237 CURVE",
"191 348 LINE",
"106 348 LINE",
"106 135 LINE",
"119 42 LINE",
"115 0 LINE"
);
},
{
closed = 1;
nodes = (
"126 67 LINE",
"20 75 LINE",
"0 75 LINE",
"0 0 LINE",
"126 0 LINE"
);
}
);
width = 256;
},
{
anchors = (
{
name = bottom;
position = "{149, -70}";
},
{
name = ring;
position = "{123, 0}";
},
{
name = top;
position = "{149, 430}";
}
);
associatedMasterId = "14EEE41F-D714-4243-A717-73445EE7DABA";
components = (
{
name = _connection.l;
}
);
layerId = "C4126E8E-961E-4191-9154-AFA14C252AA9";
name = "Dec 4 19, 13:56";
paths = (
{
closed = 1;
nodes = (
"126 67 LINE",
"20 75 LINE",
"0 75 LINE",
"0 0 LINE",
"126 0 LINE"
);
},
{
closed = 1;
nodes = (
"191 0 LINE",
"206 14 LINE",
"200 95 OFFCURVE",
"191 166 OFFCURVE",
"191 237 CURVE SMOOTH",
"191 348 LINE",
"106 348 LINE",
"106 265 LINE SMOOTH",
"106 194 OFFCURVE",
"115 123 OFFCURVE",
"121 42 CURVE",
"115 0 LINE"
);
}
);
width = 256;
},
{
anchors = (
{
name = bottom;
position = "{149, -70}";
},
{
name = ring;
position = "{123, 0}";
},
{
name = top;
position = "{149, 430}";
}
);
associatedMasterId = "14EEE41F-D714-4243-A717-73445EE7DABA";
components = (
{
name = _connection.l;
}
);
layerId = "147D4047-638D-4D26-A940-EFB2BFE2C2E3";
name = "Dec 4 19, 13:57";
paths = (
{
closed = 1;
nodes = (
"0 75 LINE",
"0 0 LINE",
"126 0 LINE",
"126 68 LINE",
"126 68 OFFCURVE",
"70 75 OFFCURVE",
"20 75 CURVE SMOOTH"
);
},
{
closed = 1;
nodes = (
"206 14 LINE",
"206 14 OFFCURVE",
"191 138 OFFCURVE",
"191 247 CURVE SMOOTH",
"191 348 LINE",
"106 338 LINE",
"106 265 LINE SMOOTH",
"106 194 OFFCURVE",
"115 123 OFFCURVE",
"121 42 CURVE",
"115 0 LINE",
"191 0 LINE"
);
}
);
width = 256;
},
{
anchors = (
{
name = bottom;
position = "{149, -70}";
},
{
name = ring;
position = "{123, 0}";
},
{
name = top;
position = "{149, 430}";
}
);
associatedMasterId = "14EEE41F-D714-4243-A717-73445EE7DABA";
components = (
{
name = _connection.l;
}
);
layerId = "3C3BDD9F-D7B0-4F7B-B078-CE54E149A5AE";
name = "Dec 4 19, 13:58";
paths = (
{
closed = 1;
nodes = (
"0 75 LINE",
"0 0 LINE",
"126 0 LINE",
"126 68 LINE",
"126 68 OFFCURVE",
"70 75 OFFCURVE",
"20 75 CURVE SMOOTH"
);
},
{
closed = 1;
nodes = (
"206 14 LINE",
"206 14 OFFCURVE",
"191 138 OFFCURVE",
"191 247 CURVE SMOOTH",
"191 348 LINE",
"106 338 LINE",
"106 0 LINE",
"191 0 LINE"
);
}
);
width = 256;
},
{
anchors = (
{
name = bottom;
position = "{93, -96}";
},
{
name = ring;
position = "{140, 0}";
},
{
name = top;
position = "{154, 564}";
}
);
components = (
{
name = "behDotless-ar.init";
}
);
layerId = "090CB6A0-BE7C-4D17-A551-206C7456A8A3";
paths = (
{
closed = 1;
nodes = (
"221 449 LINE",
"218 457 LINE",
"86 441 LINE",
"86 312 LINE",
"221 312 LINE"
);
}
);
width = 286;
},
{
anchors = (
{
name = bottom;
position = "{88, -96}";
},
{
name = ring;
position = "{140, 0}";
},
{
name = top;
position = "{149, 571}";
}
);
associatedMasterId = "090CB6A0-BE7C-4D17-A551-206C7456A8A3";
components = (
{
name = _connection.l;
}
);
layerId = "13ECEC7B-B340-409A-AEBE-6CF53A6997FD";
name = "Mar 24 20, 15:15";
paths = (
{
closed = 1;
nodes = (
"211 0 LINE",
"226 14 LINE",
"226 14 OFFCURVE",
"211 138 OFFCURVE",
"211 247 CURVE SMOOTH",
"211 458 LINE",
"86 443 LINE",
"86 265 LINE SMOOTH",
"86 153 OFFCURVE",
"98 42 OFFCURVE",
"98 42 CURVE",
"95 0 LINE"
);
},
{
closed = 1;
nodes = (
"106 0 LINE",
"106 103 LINE",
"106 103 OFFCURVE",
"50 110 OFFCURVE",
"0 110 CURVE",
"0 0 LINE"
);
}
);
width = 276;
},
{
anchors = (
{
name = bottom;
position = "{101, -96}";
},
{
name = ring;
position = "{93, 0}";
},
{
name = top;
position = "{101, 553}";
}
);
components = (
{
name = "behDotless-ar.init";
}
);
layerId = "3114FB65-9464-41A5-B67E-A8F9F43C0EF1";
paths = (
{
closed = 1;
nodes = (
"116 449 LINE",
"113 457 LINE",
"86 453 LINE",
"86 342 LINE",
"116 342 LINE"
);
}
);
width = 191;
}
);
leftMetricsKey = "=-20";
rightMetricsKey = "=behDotless-ar";
},
{
glyphname = "hah-ar";
layers = (
{
anchors = (
{
name = bottom;
position = "{300, -296}";
},
{
name = center;
position = "{507, -96}";
},
{
name = top;
position = "{230, 465}";
}
);
components = (
{
alignment = -1;
name = _HahTail;
}
);
layerId = "14EEE41F-D714-4243-A717-73445EE7DABA";
paths = (
{
closed = 1;
nodes = (
"622 69 LINE",
"427 109 OFFCURVE",
"250 257 OFFCURVE",
"166 362 CURVE",
"159 362 LINE",
"104 318 LINE",
"220 172 OFFCURVE",
"406 48 OFFCURVE",
"574 4 CURVE"
);
},
{
closed = 1;
nodes = (
"627 0 LINE",
"648 68 LINE",
"648 75 LINE",
"520 75 LINE",
"426 68 LINE",
"426 68 OFFCURVE",
"370 75 OFFCURVE",
"320 75 CURVE SMOOTH",
"279 75 LINE",
"279 0 LINE"
);
}
);
width = 708;
},
{
anchors = (
{
name = top;
position = "{206, 550}";
}
);
associatedMasterId = "14EEE41F-D714-4243-A717-73445EE7DABA";
layerId = "24E3DE38-D069-48D1-A37C-153B6C2A0307";
name = "Nov 20 19, 16:18";
paths = (
{
closed = 1;
nodes = (
"546 75 LINE",
"503 75 OFFCURVE",
"490 129 OFFCURVE",
"475 197 CURVE SMOOTH",
"450 312 OFFCURVE",
"413 466 OFFCURVE",
"206 466 CURVE SMOOTH",
"135 466 OFFCURVE",
"83 448 OFFCURVE",
"67 442 CURVE",
"97 372 LINE",
"131 385 OFFCURVE",
"168 391 OFFCURVE",
"206 391 CURVE SMOOTH",
"344 391 OFFCURVE",
"366 297 OFFCURVE",
"392 181 CURVE SMOOTH",
"417 70 OFFCURVE",
"450 0 OFFCURVE",
"546 0 CURVE"
);
},
{
closed = 1;
nodes = (
"546 0 LINE",
"441 67 LINE",
"335 75 LINE",
"66 75 LINE",
"66 0 LINE"
);
},
{
closed = 1;
nodes = (
"384 -168 OFFCURVE",
"325 -186 OFFCURVE",
"277 -186 CURVE SMOOTH",
"168 -186 OFFCURVE",
"88 -102 OFFCURVE",
"92 11 CURVE",
"50 -54 LINE",
"137 56 LINE",
"66 75 LINE",
"7 0 LINE",
"8 -182 OFFCURVE",
"163 -261 OFFCURVE",
"277 -261 CURVE SMOOTH",
"337 -261 OFFCURVE",
"417 -239 OFFCURVE",
"475 -203 CURVE",
"430 -139 LINE"
);
}
);
width = 600;
},
{
anchors = (
{
name = top;
position = "{206, 550}";
}
);
associatedMasterId = "14EEE41F-D714-4243-A717-73445EE7DABA";
layerId = "167AE931-A139-40D8-9042-80E7E2112C8E";
name = "Nov 20 19, 16:19";
paths = (
{
closed = 1;
nodes = (
"546 75 LINE",
"503 75 OFFCURVE",
"490 129 OFFCURVE",
"475 197 CURVE SMOOTH",
"450 312 OFFCURVE",
"413 466 OFFCURVE",
"206 466 CURVE SMOOTH",
"135 466 OFFCURVE",
"83 448 OFFCURVE",
"67 442 CURVE",
"97 372 LINE",
"131 385 OFFCURVE",
"168 391 OFFCURVE",
"206 391 CURVE SMOOTH",
"344 391 OFFCURVE",
"366 297 OFFCURVE",
"392 181 CURVE SMOOTH",
"417 70 OFFCURVE",
"450 0 OFFCURVE",
"546 0 CURVE"
);
},
{
closed = 1;
nodes = (
"546 0 LINE",
"441 67 LINE",
"335 75 LINE",
"66 75 LINE",
"66 0 LINE"
);
},
{
closed = 1;
nodes = (
"384 -168 OFFCURVE",
"325 -186 OFFCURVE",
"277 -186 CURVE SMOOTH",
"168 -186 OFFCURVE",
"88 -102 OFFCURVE",
"92 11 CURVE",
"50 -54 LINE",
"137 56 LINE",
"66 75 LINE",
"7 0 LINE",
"8 -182 OFFCURVE",
"163 -261 OFFCURVE",
"277 -261 CURVE SMOOTH",
"337 -261 OFFCURVE",
"417 -239 OFFCURVE",
"475 -203 CURVE",
"430 -139 LINE"
);
},
{
closed = 0;
nodes = (
"131 157 LINE",
"7 0 LINE",
"8 -182 OFFCURVE",
"163 -261 OFFCURVE",
"277 -261 CURVE SMOOTH",
"337 -261 OFFCURVE",
"417 -239 OFFCURVE",
"475 -203 CURVE"
);
}
);
width = 600;
},
{
anchors = (
{
name = top;
position = "{206, 550}";
}
);
associatedMasterId = "14EEE41F-D714-4243-A717-73445EE7DABA";
layerId = "88CDE6B6-46F7-4820-8676-204AD6A2D851";
name = "Nov 20 19, 16:21";
paths = (
{
closed = 1;
nodes = (
"546 75 LINE",
"503 75 OFFCURVE",
"490 129 OFFCURVE",
"475 197 CURVE SMOOTH",
"450 312 OFFCURVE",
"413 466 OFFCURVE",
"206 466 CURVE SMOOTH",
"135 466 OFFCURVE",
"83 448 OFFCURVE",
"67 442 CURVE",
"97 372 LINE",
"131 385 OFFCURVE",
"168 391 OFFCURVE",
"206 391 CURVE SMOOTH",
"344 391 OFFCURVE",
"366 297 OFFCURVE",
"392 181 CURVE SMOOTH",
"417 70 OFFCURVE",
"450 0 OFFCURVE",
"546 0 CURVE"
);
},
{
closed = 1;
nodes = (
"546 0 LINE",
"441 67 LINE",
"335 75 LINE",
"66 75 LINE",
"66 0 LINE"
);
},
{
closed = 0;
nodes = (
"417 -224 LINE",
"364 -247 OFFCURVE",
"290 -261 OFFCURVE",
"235 -261 CURVE SMOOTH",
"130 -261 OFFCURVE",
"-12 -211 OFFCURVE",
"-13 0 CURVE",
"62 175 LINE"
);
}
);
width = 600;
},
{
anchors = (
{
name = top;
position = "{206, 550}";
}
);
associatedMasterId = "14EEE41F-D714-4243-A717-73445EE7DABA";
layerId = "A33797F1-BEE2-42C7-B884-1F9B94865434";
name = "Nov 20 19, 16:23";
paths = (
{
closed = 1;
nodes = (
"546 75 LINE",
"503 75 OFFCURVE",
"490 129 OFFCURVE",
"475 197 CURVE SMOOTH",
"450 312 OFFCURVE",
"413 466 OFFCURVE",
"206 466 CURVE SMOOTH",
"135 466 OFFCURVE",
"83 448 OFFCURVE",
"67 442 CURVE",
"97 372 LINE",
"131 385 OFFCURVE",
"168 391 OFFCURVE",
"206 391 CURVE SMOOTH",
"344 391 OFFCURVE",
"366 297 OFFCURVE",
"392 181 CURVE SMOOTH",
"417 70 OFFCURVE",
"450 0 OFFCURVE",
"546 0 CURVE"
);
},
{
closed = 1;
nodes = (
"546 0 LINE",
"441 67 LINE",
"335 75 LINE",
"19 75 LINE",
"66 0 LINE"
);
},
{
closed = 1;
nodes = (
"28 95 LINE",
"-13 0 LINE",
"-12 -211 OFFCURVE",
"130 -261 OFFCURVE",
"235 -261 CURVE SMOOTH",
"271 -261 OFFCURVE",
"314 -255 OFFCURVE",
"355 -245 CURVE",
"335 -172 LINE",
"297 -181 OFFCURVE",
"264 -186 OFFCURVE",
"235 -186 CURVE SMOOTH",
"121 -186 OFFCURVE",
"65 -114 OFFCURVE",
"72 28 CURVE",
"102 57 LINE",
"108 41 LINE",
"-11 87 LINE"
);
}
);
width = 600;
},
{
anchors = (
{
name = top;
position = "{206, 550}";
}
);
associatedMasterId = "14EEE41F-D714-4243-A717-73445EE7DABA";
layerId = "C1A52078-6596-465C-95AF-EF4381D81C4D";
name = "Nov 20 19, 16:24";
paths = (
{
closed = 1;
nodes = (
"546 75 LINE",
"503 75 OFFCURVE",
"490 129 OFFCURVE",
"475 197 CURVE SMOOTH",
"450 312 OFFCURVE",
"413 466 OFFCURVE",
"206 466 CURVE SMOOTH",
"135 466 OFFCURVE",
"83 448 OFFCURVE",
"67 442 CURVE",
"97 372 LINE",
"131 385 OFFCURVE",
"168 391 OFFCURVE",
"206 391 CURVE SMOOTH",
"344 391 OFFCURVE",
"366 297 OFFCURVE",
"392 181 CURVE SMOOTH",
"417 70 OFFCURVE",
"450 0 OFFCURVE",
"546 0 CURVE"
);
},
{
closed = 1;
nodes = (
"546 0 LINE",
"441 67 LINE",
"335 75 LINE",
"19 75 LINE",
"66 0 LINE"
);
},
{
closed = 1;
nodes = (
"19 75 LINE",
"-13 0 LINE",
"-12 -227 OFFCURVE",
"130 -261 OFFCURVE",
"235 -261 CURVE SMOOTH",
"290 -261 OFFCURVE",
"364 -252 OFFCURVE",
"417 -236 CURVE",
"392 -164 LINE",
"348 -178 OFFCURVE",
"287 -186 OFFCURVE",
"235 -186 CURVE SMOOTH",
"112 -186 OFFCURVE",
"66 -126 OFFCURVE",
"72 30 CURVE",
"106 67 LINE"
);
}
);
width = 600;
},
{
anchors = (
{
name = bottom;
position = "{259, -338}";
},
{
name = center;
position = "{466, -70}";
},
{
name = top;
position = "{259, 550}";
}
);
associatedMasterId = "14EEE41F-D714-4243-A717-73445EE7DABA";
layerId = "7C6E3687-B375-4A72-BA7B-623903802467";
name = "Nov 20 19, 16:32";
paths = (
{
closed = 1;
nodes = (
"599 75 LINE",
"556 75 OFFCURVE",
"543 129 OFFCURVE",
"528 197 CURVE SMOOTH",
"503 312 OFFCURVE",
"466 466 OFFCURVE",
"259 466 CURVE SMOOTH",
"188 466 OFFCURVE",
"136 448 OFFCURVE",
"120 442 CURVE",
"150 372 LINE",
"184 385 OFFCURVE",
"221 391 OFFCURVE",
"259 391 CURVE SMOOTH",
"397 391 OFFCURVE",
"419 297 OFFCURVE",
"445 181 CURVE SMOOTH",
"470 70 OFFCURVE",
"503 0 OFFCURVE",
"599 0 CURVE"
);
},
{
closed = 1;
nodes = (
"599 0 LINE",
"494 67 LINE",
"388 75 LINE",
"82 75 LINE",
"129 0 LINE"
);
},
{
closed = 1;
nodes = (
"366 -182 OFFCURVE",
"330 -186 OFFCURVE",
"298 -186 CURVE SMOOTH",
"177 -186 OFFCURVE",
"129 -124 OFFCURVE",
"135 30 CURVE",
"117 10 LINE",
"160 46 LINE",
"82 75 LINE",
"50 0 LINE",
"51 -224 OFFCURVE",
"193 -261 OFFCURVE",
"298 -261 CURVE SMOOTH",
"334 -261 OFFCURVE",
"377 -257 OFFCURVE",
"418 -249 CURVE",
"402 -175 LINE"
);
}
);
width = 649;
},
{
anchors = (
{
name = bottom;
position = "{259, -338}";
},
{
name = center;
position = "{466, -70}";
},
{
name = top;
position = "{239, 550}";
}
);
associatedMasterId = "14EEE41F-D714-4243-A717-73445EE7DABA";
layerId = "A1AA60C5-98CC-4409-9E7D-043F401B4943";
name = "Nov 20 19, 16:38";
paths = (
{
closed = 1;
nodes = (
"579 75 LINE",
"536 75 OFFCURVE",
"523 129 OFFCURVE",
"508 197 CURVE SMOOTH",
"483 312 OFFCURVE",
"446 466 OFFCURVE",
"239 466 CURVE SMOOTH",
"168 466 OFFCURVE",
"116 448 OFFCURVE",
"100 442 CURVE",
"130 372 LINE",
"164 385 OFFCURVE",
"201 391 OFFCURVE",
"239 391 CURVE SMOOTH",
"377 391 OFFCURVE",
"399 297 OFFCURVE",
"425 181 CURVE SMOOTH",
"450 70 OFFCURVE",
"483 0 OFFCURVE",
"579 0 CURVE"
);
},
{
closed = 1;
nodes = (
"579 0 LINE",
"474 67 LINE",
"368 75 LINE",
"82 75 LINE",
"129 0 LINE"
);
},
{
closed = 1;
nodes = (
"353 -183 OFFCURVE",
"319 -186 OFFCURVE",
"286 -186 CURVE SMOOTH",
"170 -186 OFFCURVE",
"129 -129 OFFCURVE",
"136 33 CURVE",
"160 46 LINE",
"82 75 LINE",
"50 0 LINE",
"51 -231 OFFCURVE",
"186 -261 OFFCURVE",
"286 -261 CURVE SMOOTH",
"320 -261 OFFCURVE",
"361 -258 OFFCURVE",
"400 -251 CURVE",
"385 -177 LINE"
);
}
);
width = 629;
},
{
anchors = (
{
name = bottom;
position = "{259, -338}";
},
{
name = center;
position = "{466, -70}";
},
{
name = top;
position = "{239, 550}";
}
);
associatedMasterId = "14EEE41F-D714-4243-A717-73445EE7DABA";
layerId = "7A25C990-D2E5-4F7B-9A66-1139B92DF51B";
name = "Nov 20 19, 21:59";
paths = (
{
closed = 1;
nodes = (
"569 0 LINE",
"474 67 LINE",
"368 75 LINE",
"82 75 LINE",
"129 0 LINE"
);
},
{
closed = 1;
nodes = (
"353 -183 OFFCURVE",
"319 -186 OFFCURVE",
"286 -186 CURVE SMOOTH",
"170 -186 OFFCURVE",
"129 -129 OFFCURVE",
"136 33 CURVE",
"160 46 LINE",
"82 75 LINE",
"50 0 LINE",
"51 -231 OFFCURVE",
"186 -261 OFFCURVE",
"286 -261 CURVE SMOOTH",
"320 -261 OFFCURVE",
"361 -258 OFFCURVE",
"400 -251 CURVE",
"385 -177 LINE"
);
},
{
closed = 1;
nodes = (
"536 75 OFFCURVE",
"523 129 OFFCURVE",
"508 197 CURVE SMOOTH",
"483 312 OFFCURVE",
"446 466 OFFCURVE",
"239 466 CURVE SMOOTH",
"168 466 OFFCURVE",
"116 448 OFFCURVE",
"100 442 CURVE",
"130 372 LINE",
"164 385 OFFCURVE",
"201 391 OFFCURVE",
"239 391 CURVE SMOOTH",
"377 391 OFFCURVE",
"399 297 OFFCURVE",
"425 181 CURVE SMOOTH",
"449 74 OFFCURVE",
"481 5 OFFCURVE",
"569 0 CURVE",
"584 14 LINE",
"582 35 OFFCURVE",
"581 55 OFFCURVE",
"579 75 CURVE"
);
}
);
width = 629;
},
{
anchors = (
{
name = bottom;
position = "{259, -338}";
},
{
name = center;
position = "{466, -70}";
},
{
name = top;
position = "{239, 550}";
}
);
associatedMasterId = "14EEE41F-D714-4243-A717-73445EE7DABA";
layerId = "85C7940F-05B2-4887-8761-52450B0022EE";
name = "Nov 21 19, 17:22";
paths = (
{
closed = 1;
nodes = (
"569 0 LINE",
"474 67 LINE",
"368 75 LINE",
"82 75 LINE",
"129 0 LINE"
);
},
{
closed = 1;
nodes = (
"353 -183 OFFCURVE",
"319 -186 OFFCURVE",
"286 -186 CURVE SMOOTH",
"170 -186 OFFCURVE",
"129 -129 OFFCURVE",
"136 33 CURVE",
"160 46 LINE",
"82 75 LINE",
"50 0 LINE",
"51 -231 OFFCURVE",
"186 -261 OFFCURVE",
"286 -261 CURVE SMOOTH",
"320 -261 OFFCURVE",
"361 -258 OFFCURVE",
"400 -251 CURVE",
"385 -177 LINE"
);
},
{
closed = 1;
nodes = (
"536 75 OFFCURVE",
"523 129 OFFCURVE",
"508 197 CURVE SMOOTH",
"483 312 OFFCURVE",
"446 466 OFFCURVE",
"239 466 CURVE SMOOTH",
"168 466 OFFCURVE",
"116 448 OFFCURVE",
"100 442 CURVE",
"130 372 LINE",
"164 385 OFFCURVE",
"201 391 OFFCURVE",
"239 391 CURVE SMOOTH",
"377 391 OFFCURVE",
"399 297 OFFCURVE",
"425 181 CURVE SMOOTH",
"449 74 OFFCURVE",
"481 5 OFFCURVE",
"569 0 CURVE",
"584 14 LINE",
"582 35 OFFCURVE",
"581 55 OFFCURVE",
"579 75 CURVE"
);
}
);
width = 629;
},
{
anchors = (
{
name = bottom;
position = "{259, -338}";
},
{
name = center;
position = "{466, -70}";
},
{
name = top;
position = "{239, 460}";
}
);
associatedMasterId = "14EEE41F-D714-4243-A717-73445EE7DABA";
layerId = "431756CE-4F05-4EBA-9977-8987F513EDD9";
name = "Nov 21 19, 17:41";
paths = (
{
closed = 1;
nodes = (
"569 0 LINE",
"474 67 LINE",
"368 75 LINE",
"82 75 LINE",
"129 0 LINE"
);
},
{
closed = 1;
nodes = (
"353 -183 OFFCURVE",
"319 -186 OFFCURVE",
"286 -186 CURVE SMOOTH",
"170 -186 OFFCURVE",
"129 -129 OFFCURVE",
"136 33 CURVE",
"160 46 LINE",
"82 75 LINE",
"50 0 LINE",
"51 -231 OFFCURVE",
"186 -261 OFFCURVE",
"286 -261 CURVE SMOOTH",
"320 -261 OFFCURVE",
"361 -258 OFFCURVE",
"400 -251 CURVE",
"385 -177 LINE"
);
},
{
closed = 1;
nodes = (
"536 75 OFFCURVE",
"523 119 OFFCURVE",
"508 176 CURVE SMOOTH",
"483 272 OFFCURVE",
"446 398 OFFCURVE",
"239 398 CURVE SMOOTH",
"168 398 OFFCURVE",
"116 384 OFFCURVE",
"100 379 CURVE",
"125 307 LINE",
"157 317 OFFCURVE",
"199 323 OFFCURVE",
"239 323 CURVE SMOOTH",
"380 323 OFFCURVE",
"400 254 OFFCURVE",
"426 157 CURVE SMOOTH",
"451 63 OFFCURVE",
"486 5 OFFCURVE",
"569 0 CURVE",
"584 14 LINE",
"582 35 OFFCURVE",
"581 55 OFFCURVE",
"579 75 CURVE"
);
}
);
width = 629;
},
{
anchors = (
{
name = bottom;
position = "{259, -338}";
},
{
name = center;
position = "{466, -70}";
},
{
name = top;
position = "{239, 480}";
}
);
associatedMasterId = "14EEE41F-D714-4243-A717-73445EE7DABA";
layerId = "5D270EB8-F8E9-4BB3-9019-627CC2427077";
name = "Nov 21 19, 18:48";
paths = (
{
closed = 1;
nodes = (
"569 0 LINE",
"474 67 LINE",
"368 75 LINE",
"275 76 LINE",
"275 1 LINE"
);
},
{
closed = 1;
nodes = (
"536 75 OFFCURVE",
"523 119 OFFCURVE",
"508 176 CURVE SMOOTH",
"483 272 OFFCURVE",
"446 398 OFFCURVE",
"239 398 CURVE SMOOTH",
"168 398 OFFCURVE",
"116 384 OFFCURVE",
"100 379 CURVE",
"125 307 LINE",
"157 317 OFFCURVE",
"199 323 OFFCURVE",
"239 323 CURVE SMOOTH",
"380 323 OFFCURVE",
"400 254 OFFCURVE",
"426 157 CURVE SMOOTH",
"451 63 OFFCURVE",
"486 5 OFFCURVE",
"569 0 CURVE",
"584 14 LINE",
"582 35 OFFCURVE",
"581 55 OFFCURVE",
"579 75 CURVE"
);
},
{
closed = 1;
nodes = (
"339 -183 OFFCURVE",
"302 -186 OFFCURVE",
"276 -186 CURVE SMOOTH",
"178 -186 OFFCURVE",
"121 -144 OFFCURVE",
"121 -80 CURVE SMOOTH",
"121 -27 OFFCURVE",
"165 1 OFFCURVE",
"275 1 CURVE",
"275 76 LINE",
"131 76 OFFCURVE",
"36 25 OFFCURVE",
"36 -80 CURVE SMOOTH",
"36 -185 OFFCURVE",
"130 -261 OFFCURVE",
"276 -261 CURVE SMOOTH",
"305 -261 OFFCURVE",
"347 -258 OFFCURVE",
"386 -253 CURVE",
"375 -179 LINE"
);
}
);
width = 629;
},
{
anchors = (
{
name = bottom;
position = "{259, -338}";
},
{
name = center;
position = "{466, -70}";
},
{
name = top;
position = "{239, 480}";
}
);
associatedMasterId = "14EEE41F-D714-4243-A717-73445EE7DABA";
layerId = "F1027380-C9F3-422F-8F08-3F6AE919A48E";
name = "Nov 21 19, 23:35";
paths = (
{
closed = 1;
nodes = (
"569 0 LINE",
"474 67 LINE",
"368 75 LINE",
"275 76 LINE",
"275 1 LINE"
);
},
{
closed = 1;
nodes = (
"536 75 OFFCURVE",
"523 119 OFFCURVE",
"508 176 CURVE SMOOTH",
"483 272 OFFCURVE",
"446 398 OFFCURVE",
"239 398 CURVE SMOOTH",
"168 398 OFFCURVE",
"116 384 OFFCURVE",
"100 379 CURVE",
"125 307 LINE",
"157 317 OFFCURVE",
"199 323 OFFCURVE",
"239 323 CURVE SMOOTH",
"380 323 OFFCURVE",
"400 254 OFFCURVE",
"426 157 CURVE SMOOTH",
"451 63 OFFCURVE",
"486 5 OFFCURVE",
"569 0 CURVE",
"584 14 LINE",
"582 35 OFFCURVE",
"581 55 OFFCURVE",
"579 75 CURVE"
);
},
{
closed = 1;
nodes = (
"339 -183 OFFCURVE",
"302 -186 OFFCURVE",
"276 -186 CURVE SMOOTH",
"164 -186 OFFCURVE",
"81 -122 OFFCURVE",
"100 -43 CURVE",
"99 -115 LINE",
"84 -45 OFFCURVE",
"148 1 OFFCURVE",
"275 1 CURVE",
"275 76 LINE",
"131 76 OFFCURVE",
"36 25 OFFCURVE",
"36 -80 CURVE SMOOTH",
"36 -185 OFFCURVE",
"130 -261 OFFCURVE",
"276 -261 CURVE SMOOTH",
"305 -261 OFFCURVE",
"347 -258 OFFCURVE",
"386 -253 CURVE",
"375 -179 LINE"
);
}
);
width = 629;
},
{
anchors = (
{
name = bottom;
position = "{259, -338}";
},
{
name = center;
position = "{466, -70}";
},
{
name = top;
position = "{239, 480}";
}
);
associatedMasterId = "14EEE41F-D714-4243-A717-73445EE7DABA";
layerId = "40B1CD6D-32B1-4AC0-B463-A1D9EE8DD198";
name = "Dec 4 19, 15:52";
paths = (
{
closed = 1;
nodes = (
"569 0 LINE",
"474 67 LINE",
"368 75 LINE",
"275 76 LINE",
"275 1 LINE"
);
},
{
closed = 1;
nodes = (
"339 -183 OFFCURVE",
"302 -186 OFFCURVE",
"276 -186 CURVE SMOOTH",
"164 -186 OFFCURVE",
"81 -122 OFFCURVE",
"100 -43 CURVE",
"99 -115 LINE",
"84 -45 OFFCURVE",
"148 1 OFFCURVE",
"275 1 CURVE",
"275 76 LINE",
"131 76 OFFCURVE",
"36 25 OFFCURVE",
"36 -80 CURVE SMOOTH",
"36 -185 OFFCURVE",
"130 -261 OFFCURVE",
"276 -261 CURVE SMOOTH",
"305 -261 OFFCURVE",
"347 -258 OFFCURVE",
"386 -253 CURVE",
"375 -179 LINE"
);
},
{
closed = 1;
nodes = (
"584 14 LINE",
"582 35 OFFCURVE",
"581 55 OFFCURVE",
"579 75 CURVE",
"536 75 OFFCURVE",
"523 115 OFFCURVE",
"508 167 CURVE SMOOTH",
"483 255 OFFCURVE",
"446 370 OFFCURVE",
"239 370 CURVE SMOOTH",
"168 370 OFFCURVE",
"116 357 OFFCURVE",
"100 353 CURVE",
"121 280 LINE",
"137 284 OFFCURVE",
"180 295 OFFCURVE",
"239 295 CURVE SMOOTH",
"382 295 OFFCURVE",
"400 236 OFFCURVE",
"426 146 CURVE SMOOTH",
"451 58 OFFCURVE",
"489 4 OFFCURVE",
"569 0 CURVE"
);
}
);
width = 629;
},
{
anchors = (
{
name = bottom;
position = "{263, -338}";
},
{
name = center;
position = "{470, -70}";
},
{
name = top;
position = "{243, 480}";
}
);
associatedMasterId = "14EEE41F-D714-4243-A717-73445EE7DABA";
layerId = "B3E7ECA8-E2C1-4A26-9DF5-40D89D27D4FA";
name = "Dec 4 19, 16:20";
paths = (
{
closed = 1;
nodes = (
"343 -184 OFFCURVE",
"306 -187 OFFCURVE",
"280 -187 CURVE SMOOTH",
"168 -187 OFFCURVE",
"85 -123 OFFCURVE",
"104 -44 CURVE",
"103 -116 LINE",
"88 -46 OFFCURVE",
"152 0 OFFCURVE",
"279 0 CURVE",
"279 75 LINE",
"135 75 OFFCURVE",
"40 24 OFFCURVE",
"40 -81 CURVE SMOOTH",
"40 -186 OFFCURVE",
"134 -262 OFFCURVE",
"280 -262 CURVE SMOOTH",
"309 -262 OFFCURVE",
"351 -259 OFFCURVE",
"390 -254 CURVE",
"379 -180 LINE"
);
},
{
closed = 1;
nodes = (
"596 75 LINE",
"465 115 OFFCURVE",
"416 185 OFFCURVE",
"368 256 CURVE SMOOTH",
"327 316 OFFCURVE",
"279 384 OFFCURVE",
"175 384 CURVE SMOOTH",
"129 384 OFFCURVE",
"82 371 OFFCURVE",
"54 352 CURVE",
"77 407 LINE",
"123 257 LINE",
"73 289 LINE",
"100 301 OFFCURVE",
"138 309 OFFCURVE",
"170 309 CURVE SMOOTH",
"233 309 OFFCURVE",
"254 277 OFFCURVE",
"298 214 CURVE SMOOTH",
"349 141 OFFCURVE",
"420 37 OFFCURVE",
"613 -9 CURVE",
"555 -39 LINE"
);
},
{
closed = 1;
nodes = (
"570 0 LINE",
"596 75 LINE",
"444 68 LINE",
"444 68 OFFCURVE",
"388 75 OFFCURVE",
"338 75 CURVE SMOOTH",
"279 75 LINE",
"279 0 LINE"
);
}
);
width = 646;
},
{
anchors = (
{
name = bottom;
position = "{263, -338}";
},
{
name = center;
position = "{470, -70}";
},
{
name = top;
position = "{243, 480}";
}
);
associatedMasterId = "14EEE41F-D714-4243-A717-73445EE7DABA";
layerId = "1C7FEA87-180E-4F7A-8621-633F4E9DE534";
name = "Dec 4 19, 21:25";
paths = (
{
closed = 1;
nodes = (
"586 75 LINE",
"467 115 OFFCURVE",
"424 183 OFFCURVE",
"378 257 CURVE SMOOTH",
"341 316 OFFCURVE",
"299 384 OFFCURVE",
"200 384 CURVE SMOOTH",
"157 384 OFFCURVE",
"110 371 OFFCURVE",
"82 352 CURVE",
"158 254 LINE",
"103 273 LINE",
"120 295 OFFCURVE",
"158 309 OFFCURVE",
"198 309 CURVE SMOOTH",
"248 309 OFFCURVE",
"259 288 OFFCURVE",
"306 217 CURVE SMOOTH",
"383 101 OFFCURVE",
"421 52 OFFCURVE",
"559 4 CURVE"
);
},
{
closed = 1;
nodes = (
"309 -262 OFFCURVE",
"351 -259 OFFCURVE",
"390 -254 CURVE",
"379 -180 LINE",
"343 -184 OFFCURVE",
"306 -187 OFFCURVE",
"280 -187 CURVE SMOOTH",
"168 -187 OFFCURVE",
"85 -123 OFFCURVE",
"104 -44 CURVE",
"103 -116 LINE",
"88 -46 OFFCURVE",
"152 0 OFFCURVE",
"279 0 CURVE",
"279 75 LINE",
"135 75 OFFCURVE",
"40 24 OFFCURVE",
"40 -81 CURVE SMOOTH",
"40 -186 OFFCURVE",
"134 -262 OFFCURVE",
"280 -262 CURVE SMOOTH"
);
},
{
closed = 1;
nodes = (
"560 0 LINE",
"586 75 LINE",
"434 68 LINE",
"434 68 OFFCURVE",
"378 75 OFFCURVE",
"328 75 CURVE SMOOTH",
"279 75 LINE",
"279 0 LINE"
);
}
);
width = 646;
},
{
anchors = (
{
name = bottom;
position = "{263, -338}";
},
{
name = center;
position = "{470, -70}";
},
{
name = top;
position = "{370, 349}";
}
);
associatedMasterId = "14EEE41F-D714-4243-A717-73445EE7DABA";
layerId = "AB37A1A3-52AF-448B-B60C-F8BDEB312E4F";
name = "Dec 4 19, 21:32";
paths = (
{
closed = 1;
nodes = (
"562 75 LINE",
"401 159 OFFCURVE",
"273 253 OFFCURVE",
"166 370 CURVE",
"103 319 LINE",
"211 201 OFFCURVE",
"349 99 OFFCURVE",
"523 9 CURVE"
);
},
{
closed = 1;
nodes = (
"309 -262 OFFCURVE",
"351 -259 OFFCURVE",
"390 -254 CURVE",
"379 -180 LINE",
"343 -184 OFFCURVE",
"306 -187 OFFCURVE",
"280 -187 CURVE SMOOTH",
"168 -187 OFFCURVE",
"85 -123 OFFCURVE",
"104 -44 CURVE",
"103 -116 LINE",
"88 -46 OFFCURVE",
"152 0 OFFCURVE",
"279 0 CURVE",
"279 75 LINE",
"135 75 OFFCURVE",
"40 24 OFFCURVE",
"40 -81 CURVE SMOOTH",
"40 -186 OFFCURVE",
"134 -262 OFFCURVE",
"280 -262 CURVE SMOOTH"
);
},
{
closed = 1;
nodes = (
"536 0 LINE",
"562 75 LINE",
"430 68 LINE",
"430 68 OFFCURVE",
"374 75 OFFCURVE",
"324 75 CURVE SMOOTH",
"279 75 LINE",
"279 0 LINE"
);
}
);
width = 612;
},
{
anchors = (
{
name = bottom;
position = "{263, -338}";
},
{
name = center;
position = "{470, -70}";
},
{
name = top;
position = "{243, 480}";
}
);
associatedMasterId = "14EEE41F-D714-4243-A717-73445EE7DABA";
layerId = "CCDEADAD-DDC2-4926-9C02-13AEF957E08E";
name = "Dec 4 19, 21:33";
paths = (
{
closed = 1;
nodes = (
"586 75 LINE",
"467 115 OFFCURVE",
"424 183 OFFCURVE",
"378 257 CURVE SMOOTH",
"341 316 OFFCURVE",
"299 384 OFFCURVE",
"200 384 CURVE SMOOTH",
"157 384 OFFCURVE",
"110 371 OFFCURVE",
"82 352 CURVE",
"138 254 LINE",
"103 273 LINE",
"120 295 OFFCURVE",
"158 309 OFFCURVE",
"198 309 CURVE SMOOTH",
"248 309 OFFCURVE",
"259 288 OFFCURVE",
"306 217 CURVE SMOOTH",
"383 101 OFFCURVE",
"421 52 OFFCURVE",
"559 4 CURVE"
);
},
{
closed = 1;
nodes = (
"309 -262 OFFCURVE",
"351 -259 OFFCURVE",
"390 -254 CURVE",
"379 -180 LINE",
"343 -184 OFFCURVE",
"306 -187 OFFCURVE",
"280 -187 CURVE SMOOTH",
"168 -187 OFFCURVE",
"85 -123 OFFCURVE",
"104 -44 CURVE",
"103 -116 LINE",
"88 -46 OFFCURVE",
"152 0 OFFCURVE",
"279 0 CURVE",
"279 75 LINE",
"135 75 OFFCURVE",
"40 24 OFFCURVE",
"40 -81 CURVE SMOOTH",
"40 -186 OFFCURVE",
"134 -262 OFFCURVE",
"280 -262 CURVE SMOOTH"
);
},
{
closed = 1;
nodes = (
"560 0 LINE",
"586 75 LINE",
"434 68 LINE",
"434 68 OFFCURVE",
"378 75 OFFCURVE",
"328 75 CURVE SMOOTH",
"279 75 LINE",
"279 0 LINE"
);
}
);
width = 612;
},
{
anchors = (
{
name = bottom;
position = "{263, -338}";
},
{
name = center;
position = "{470, -70}";
},
{
name = top;
position = "{243, 480}";
}
);
associatedMasterId = "14EEE41F-D714-4243-A717-73445EE7DABA";
layerId = "5A49B9AA-EC7F-4C8C-BB68-90C1A3837238";
name = "Dec 18 19, 20:29";
paths = (
{
closed = 1;
nodes = (
"309 -262 OFFCURVE",
"351 -259 OFFCURVE",
"390 -254 CURVE",
"379 -180 LINE",
"343 -184 OFFCURVE",
"306 -187 OFFCURVE",
"280 -187 CURVE SMOOTH",
"168 -187 OFFCURVE",
"85 -123 OFFCURVE",
"104 -44 CURVE",
"103 -116 LINE",
"88 -46 OFFCURVE",
"152 0 OFFCURVE",
"279 0 CURVE",
"279 75 LINE",
"135 75 OFFCURVE",
"40 24 OFFCURVE",
"40 -81 CURVE SMOOTH",
"40 -186 OFFCURVE",
"134 -262 OFFCURVE",
"280 -262 CURVE SMOOTH"
);
},
{
closed = 1;
nodes = (
"560 0 LINE",
"586 75 LINE",
"444 68 LINE",
"444 68 OFFCURVE",
"388 75 OFFCURVE",
"338 75 CURVE SMOOTH",
"279 75 LINE",
"279 0 LINE"
);
},
{
closed = 1;
nodes = (
"137 283 OFFCURVE",
"171 296 OFFCURVE",
"212 296 CURVE SMOOTH",
"253 296 OFFCURVE",
"269 283 OFFCURVE",
"315 209 CURVE SMOOTH",
"387 92 OFFCURVE",
"446 41 OFFCURVE",
"559 4 CURVE",
"586 75 LINE",
"472 113 OFFCURVE",
"431 178 OFFCURVE",
"387 249 CURVE SMOOTH",
"351 306 OFFCURVE",
"311 371 OFFCURVE",
"216 371 CURVE SMOOTH",
"175 371 OFFCURVE",
"130 359 OFFCURVE",
"103 340 CURVE",
"160 244 LINE",
"126 261 LINE"
);
}
);
width = 612;
},
{
anchors = (
{
name = bottom;
position = "{263, -338}";
},
{
name = center;
position = "{470, -70}";
},
{
name = top;
position = "{243, 480}";
}
);
associatedMasterId = "14EEE41F-D714-4243-A717-73445EE7DABA";
layerId = "1EED92CA-64D7-455E-AF9F-59E52C18566F";
name = "Dec 18 19, 20:31";
paths = (
{
closed = 1;
nodes = (
"309 -262 OFFCURVE",
"351 -259 OFFCURVE",
"390 -254 CURVE",
"366 -135 LINE",
"411 -176 LINE",
"366 -182 OFFCURVE",
"314 -187 OFFCURVE",
"280 -187 CURVE SMOOTH",
"168 -187 OFFCURVE",
"85 -123 OFFCURVE",
"104 -44 CURVE",
"103 -116 LINE",
"88 -46 OFFCURVE",
"152 0 OFFCURVE",
"279 0 CURVE",
"279 75 LINE",
"135 75 OFFCURVE",
"40 24 OFFCURVE",
"40 -81 CURVE SMOOTH",
"40 -186 OFFCURVE",
"134 -262 OFFCURVE",
"280 -262 CURVE SMOOTH"
);
},
{
closed = 1;
nodes = (
"560 0 LINE",
"586 75 LINE",
"444 68 LINE",
"444 68 OFFCURVE",
"388 75 OFFCURVE",
"338 75 CURVE SMOOTH",
"279 75 LINE",
"279 0 LINE"
);
},
{
closed = 1;
nodes = (
"137 283 OFFCURVE",
"171 296 OFFCURVE",
"212 296 CURVE SMOOTH",
"253 296 OFFCURVE",
"269 283 OFFCURVE",
"315 209 CURVE SMOOTH",
"387 92 OFFCURVE",
"446 41 OFFCURVE",
"559 4 CURVE",
"586 75 LINE",
"472 113 OFFCURVE",
"431 178 OFFCURVE",
"387 249 CURVE SMOOTH",
"351 306 OFFCURVE",
"311 371 OFFCURVE",
"216 371 CURVE SMOOTH",
"175 371 OFFCURVE",
"130 359 OFFCURVE",
"103 340 CURVE",
"160 244 LINE",
"126 261 LINE"
);
}
);
width = 612;
},
{
anchors = (
{
name = bottom;
position = "{253, -338}";
},
{
name = center;
position = "{450, -70}";
},
{
name = top;
position = "{233, 480}";
}
);
associatedMasterId = "14EEE41F-D714-4243-A717-73445EE7DABA";
layerId = "DED98F1F-B80D-491B-AE64-8FD9F4B9663D";
name = "Dec 18 19, 20:33";
paths = (
{
closed = 1;
nodes = (
"309 -262 OFFCURVE",
"351 -259 OFFCURVE",
"390 -254 CURVE",
"366 -135 LINE",
"411 -176 LINE",
"366 -182 OFFCURVE",
"314 -187 OFFCURVE",
"280 -187 CURVE SMOOTH",
"168 -187 OFFCURVE",
"85 -123 OFFCURVE",
"104 -44 CURVE",
"103 -116 LINE",
"88 -46 OFFCURVE",
"152 0 OFFCURVE",
"279 0 CURVE",
"279 75 LINE",
"135 75 OFFCURVE",
"40 24 OFFCURVE",
"40 -81 CURVE SMOOTH",
"40 -186 OFFCURVE",
"134 -262 OFFCURVE",
"280 -262 CURVE SMOOTH"
);
},
{
closed = 1;
nodes = (
"540 0 LINE",
"566 75 LINE",
"424 68 LINE",
"424 68 OFFCURVE",
"368 75 OFFCURVE",
"318 75 CURVE SMOOTH",
"279 75 LINE",
"279 0 LINE"
);
},
{
closed = 1;
nodes = (
"117 283 OFFCURVE",
"151 296 OFFCURVE",
"191 296 CURVE SMOOTH",
"242 296 OFFCURVE",
"252 274 OFFCURVE",
"295 209 CURVE SMOOTH",
"370 95 OFFCURVE",
"407 49 OFFCURVE",
"539 4 CURVE",
"566 75 LINE",
"452 113 OFFCURVE",
"411 178 OFFCURVE",
"367 249 CURVE SMOOTH",
"331 306 OFFCURVE",
"291 371 OFFCURVE",
"196 371 CURVE SMOOTH",
"145 371 OFFCURVE",
"87 352 OFFCURVE",
"66 324 CURVE",
"97 391 LINE",
"126 244 LINE",
"106 261 LINE"
);
}
);
width = 596;
},
{
anchors = (
{
name = bottom;
position = "{253, -338}";
},
{
name = center;
position = "{450, -70}";
},
{
name = top;
position = "{233, 480}";
}
);
associatedMasterId = "14EEE41F-D714-4243-A717-73445EE7DABA";
layerId = "701EBA59-8BB3-4A41-A567-ECE7AD62D035";
name = "Dec 18 19, 20:34";
paths = (
{
closed = 1;
nodes = (
"309 -262 OFFCURVE",
"351 -259 OFFCURVE",
"390 -254 CURVE",
"366 -135 LINE",
"411 -176 LINE",
"366 -182 OFFCURVE",
"314 -187 OFFCURVE",
"280 -187 CURVE SMOOTH",
"168 -187 OFFCURVE",
"85 -123 OFFCURVE",
"104 -44 CURVE",
"103 -116 LINE",
"88 -46 OFFCURVE",
"152 0 OFFCURVE",
"279 0 CURVE",
"279 75 LINE",
"135 75 OFFCURVE",
"40 24 OFFCURVE",
"40 -81 CURVE SMOOTH",
"40 -186 OFFCURVE",
"134 -262 OFFCURVE",
"280 -262 CURVE SMOOTH"
);
},
{
closed = 1;
nodes = (
"540 0 LINE",
"566 75 LINE",
"424 68 LINE",
"424 68 OFFCURVE",
"368 75 OFFCURVE",
"318 75 CURVE SMOOTH",
"279 75 LINE",
"279 0 LINE"
);
},
{
closed = 0;
nodes = (
"566 75 LINE",
"351 138 OFFCURVE",
"376 371 OFFCURVE",
"196 371 CURVE SMOOTH",
"145 371 OFFCURVE",
"97 352 OFFCURVE",
"66 334 CURVE"
);
}
);
width = 596;
},
{
anchors = (
{
name = bottom;
position = "{253, -338}";
},
{
name = center;
position = "{450, -70}";
},
{
name = top;
position = "{233, 480}";
}
);
associatedMasterId = "14EEE41F-D714-4243-A717-73445EE7DABA";
layerId = "843D514A-33A5-46B1-8AC3-FF28ECC10FE6";
name = "Dec 18 19, 20:37";
paths = (
{
closed = 1;
nodes = (
"309 -262 OFFCURVE",
"351 -259 OFFCURVE",
"390 -254 CURVE",
"366 -135 LINE",
"411 -176 LINE",
"366 -182 OFFCURVE",
"314 -187 OFFCURVE",
"280 -187 CURVE SMOOTH",
"168 -187 OFFCURVE",
"85 -123 OFFCURVE",
"104 -44 CURVE",
"103 -116 LINE",
"88 -46 OFFCURVE",
"152 0 OFFCURVE",
"279 0 CURVE",
"279 75 LINE",
"135 75 OFFCURVE",
"40 24 OFFCURVE",
"40 -81 CURVE SMOOTH",
"40 -186 OFFCURVE",
"134 -262 OFFCURVE",
"280 -262 CURVE SMOOTH"
);
},
{
closed = 1;
nodes = (
"540 0 LINE",
"566 75 LINE",
"424 68 LINE",
"424 68 OFFCURVE",
"368 75 OFFCURVE",
"318 75 CURVE SMOOTH",
"279 75 LINE",
"279 0 LINE"
);
},
{
closed = 1;
nodes = (
"124 282 OFFCURVE",
"159 296 OFFCURVE",
"196 296 CURVE SMOOTH",
"238 296 OFFCURVE",
"248 277 OFFCURVE",
"298 204 CURVE SMOOTH",
"376 90 OFFCURVE",
"420 40 OFFCURVE",
"542 3 CURVE",
"566 75 LINE",
"459 106 OFFCURVE",
"412 179 OFFCURVE",
"369 245 CURVE SMOOTH",
"325 312 OFFCURVE",
"287 371 OFFCURVE",
"196 371 CURVE SMOOTH",
"134 371 OFFCURVE",
"76 343 OFFCURVE",
"48 323 CURVE",
"98 391 LINE",
"127 244 LINE",
"76 247 LINE"
);
}
);
width = 596;
},
{
anchors = (
{
name = bottom;
position = "{283, -338}";
},
{
name = center;
position = "{460, -70}";
},
{
name = top;
position = "{243, 450}";
}
);
associatedMasterId = "14EEE41F-D714-4243-A717-73445EE7DABA";
layerId = "AA83B52C-45C1-497A-8EF2-23C1A1911435";
name = "Dec 20 19, 16:23";
paths = (
{
closed = 1;
nodes = (
"576 75 LINE",
"469 106 OFFCURVE",
"422 179 OFFCURVE",
"379 245 CURVE SMOOTH",
"335 312 OFFCURVE",
"297 371 OFFCURVE",
"206 371 CURVE SMOOTH",
"144 371 OFFCURVE",
"86 343 OFFCURVE",
"58 323 CURVE",
"108 391 LINE",
"137 244 LINE",
"86 247 LINE",
"134 282 OFFCURVE",
"169 296 OFFCURVE",
"206 296 CURVE SMOOTH",
"248 296 OFFCURVE",
"258 277 OFFCURVE",
"308 204 CURVE SMOOTH",
"386 90 OFFCURVE",
"430 40 OFFCURVE",
"550 3 CURVE"
);
},
{
closed = 1;
nodes = (
"309 -262 OFFCURVE",
"351 -259 OFFCURVE",
"390 -254 CURVE",
"366 -135 LINE",
"411 -176 LINE",
"366 -182 OFFCURVE",
"314 -187 OFFCURVE",
"280 -187 CURVE SMOOTH",
"168 -187 OFFCURVE",
"85 -123 OFFCURVE",
"104 -44 CURVE",
"103 -116 LINE",
"88 -46 OFFCURVE",
"152 0 OFFCURVE",
"279 0 CURVE",
"279 75 LINE",
"135 75 OFFCURVE",
"40 24 OFFCURVE",
"40 -81 CURVE SMOOTH",
"40 -186 OFFCURVE",
"134 -262 OFFCURVE",
"280 -262 CURVE SMOOTH"
);
},
{
closed = 1;
nodes = (
"550 0 LINE",
"576 75 LINE",
"424 68 LINE",
"424 68 OFFCURVE",
"368 75 OFFCURVE",
"318 75 CURVE SMOOTH",
"279 75 LINE",
"279 0 LINE"
);
}
);
width = 606;
},
{
anchors = (
{
name = bottom;
position = "{283, -338}";
},
{
name = center;
position = "{480, -70}";
},
{
name = top;
position = "{243, 450}";
}
);
associatedMasterId = "14EEE41F-D714-4243-A717-73445EE7DABA";
layerId = "E7BA2D45-6995-45DE-9C6E-2BB484A82ED7";
name = "Jan 3 20, 01:26";
paths = (
{
closed = 1;
nodes = (
"576 75 LINE",
"469 106 OFFCURVE",
"422 179 OFFCURVE",
"379 245 CURVE SMOOTH",
"335 312 OFFCURVE",
"297 371 OFFCURVE",
"206 371 CURVE SMOOTH",
"144 371 OFFCURVE",
"86 343 OFFCURVE",
"58 323 CURVE",
"108 391 LINE",
"137 244 LINE",
"86 247 LINE",
"134 282 OFFCURVE",
"169 296 OFFCURVE",
"206 296 CURVE SMOOTH",
"248 296 OFFCURVE",
"258 277 OFFCURVE",
"308 204 CURVE SMOOTH",
"386 90 OFFCURVE",
"430 40 OFFCURVE",
"550 3 CURVE"
);
},
{
closed = 1;
nodes = (
"550 0 LINE",
"576 75 LINE",
"424 68 LINE",
"424 68 OFFCURVE",
"368 75 OFFCURVE",
"318 75 CURVE SMOOTH",
"279 75 LINE",
"279 0 LINE"
);
},
{
closed = 1;
nodes = (
"411 -118 LINE",
"366 -122 OFFCURVE",
"314 -125 OFFCURVE",
"280 -125 CURVE SMOOTH",
"168 -125 OFFCURVE",
"85 -82 OFFCURVE",
"104 -29 CURVE",
"103 -77 LINE",
"88 -31 OFFCURVE",
"152 0 OFFCURVE",
"279 0 CURVE",
"279 75 LINE",
"135 75 OFFCURVE",
"40 33 OFFCURVE",
"40 -52 CURVE SMOOTH",
"40 -134 OFFCURVE",
"128 -200 OFFCURVE",
"282 -200 CURVE SMOOTH",
"309 -200 OFFCURVE",
"351 -198 OFFCURVE",
"390 -194 CURVE",
"366 -75 LINE"
);
}
);
width = 606;
},
{
anchors = (
{
name = bottom;
position = "{273, -385}";
},
{
name = center;
position = "{298, -74}";
},
{
name = top;
position = "{233, 450}";
}
);
associatedMasterId = "14EEE41F-D714-4243-A717-73445EE7DABA";
layerId = "3BEE8F62-383D-4A4F-BA3A-C09E8BE26773";
name = "Jan 3 20, 11:46";
paths = (
{
closed = 1;
nodes = (
"566 75 LINE",
"459 106 OFFCURVE",
"412 179 OFFCURVE",
"369 245 CURVE SMOOTH",
"325 312 OFFCURVE",
"287 371 OFFCURVE",
"196 371 CURVE SMOOTH",
"134 371 OFFCURVE",
"76 343 OFFCURVE",
"48 323 CURVE",
"98 391 LINE",
"127 244 LINE",
"76 247 LINE",
"124 282 OFFCURVE",
"159 296 OFFCURVE",
"196 296 CURVE SMOOTH",
"238 296 OFFCURVE",
"248 277 OFFCURVE",
"298 204 CURVE SMOOTH",
"376 90 OFFCURVE",
"420 40 OFFCURVE",
"540 3 CURVE"
);
},
{
closed = 1;
nodes = (
"540 0 LINE",
"566 75 LINE",
"414 68 LINE",
"414 68 OFFCURVE",
"358 75 OFFCURVE",
"308 75 CURVE SMOOTH",
"279 75 LINE",
"279 0 LINE"
);
},
{
closed = 1;
nodes = (
"386 -212 LINE",
"345 -219 OFFCURVE",
"297 -225 OFFCURVE",
"266 -225 CURVE SMOOTH",
"161 -225 OFFCURVE",
"85 -148 OFFCURVE",
"103 -53 CURVE",
"103 -140 LINE",
"88 -55 OFFCURVE",
"152 0 OFFCURVE",
"279 0 CURVE",
"279 75 LINE",
"136 75 OFFCURVE",
"40 19 OFFCURVE",
"40 -100 CURVE SMOOTH",
"40 -209 OFFCURVE",
"120 -300 OFFCURVE",
"266 -300 CURVE SMOOTH",
"292 -300 OFFCURVE",
"331 -297 OFFCURVE",
"368 -291 CURVE",
"352 -209 LINE"
);
}
);
width = 596;
},
{
anchors = (
{
name = bottom;
position = "{273, -385}";
},
{
name = center;
position = "{330, -70}";
},
{
name = top;
position = "{263, 450}";
}
);
associatedMasterId = "14EEE41F-D714-4243-A717-73445EE7DABA";
layerId = "B8E254B4-98AB-4873-BE1A-DDE2607E79F0";
name = "Jan 3 20, 13:20";
paths = (
{
closed = 1;
nodes = (
"566 75 LINE",
"459 106 OFFCURVE",
"412 179 OFFCURVE",
"369 245 CURVE SMOOTH",
"325 312 OFFCURVE",
"287 371 OFFCURVE",
"196 371 CURVE SMOOTH",
"134 371 OFFCURVE",
"76 343 OFFCURVE",
"48 323 CURVE",
"98 391 LINE",
"127 244 LINE",
"76 247 LINE",
"124 282 OFFCURVE",
"159 296 OFFCURVE",
"196 296 CURVE SMOOTH",
"238 296 OFFCURVE",
"248 277 OFFCURVE",
"298 204 CURVE SMOOTH",
"376 90 OFFCURVE",
"420 40 OFFCURVE",
"540 3 CURVE"
);
},
{
closed = 1;
nodes = (
"289 -205 LINE",
"386 -212 LINE",
"345 -219 OFFCURVE",
"297 -225 OFFCURVE",
"266 -225 CURVE SMOOTH",
"161 -225 OFFCURVE",
"85 -148 OFFCURVE",
"103 -53 CURVE",
"103 -140 LINE",
"88 -55 OFFCURVE",
"152 0 OFFCURVE",
"279 0 CURVE",
"279 75 LINE",
"136 75 OFFCURVE",
"40 19 OFFCURVE",
"40 -100 CURVE SMOOTH",
"40 -209 OFFCURVE",
"120 -300 OFFCURVE",
"266 -300 CURVE SMOOTH",
"300 -300 OFFCURVE",
"355 -295 OFFCURVE",
"400 -285 CURVE",
"300 -328 LINE"
);
},
{
closed = 1;
nodes = (
"540 0 LINE",
"566 75 LINE",
"414 68 LINE",
"414 68 OFFCURVE",
"358 75 OFFCURVE",
"308 75 CURVE SMOOTH",
"279 75 LINE",
"279 0 LINE"
);
}
);
width = 596;
},
{
anchors = (
{
name = bottom;
position = "{283, -296}";
},
{
name = center;
position = "{520, -96}";
},
{
name = top;
position = "{234, 558}";
}
);
associatedMasterId = "14EEE41F-D714-4243-A717-73445EE7DABA";
layerId = "12296094-FB5E-4024-8280-3FFB5ACB0B4D";
name = "Feb 11 20, 18:09";
paths = (
{
closed = 1;
nodes = (
"316 -200 OFFCURVE",
"375 -197 OFFCURVE",
"421 -190 CURVE",
"379 -238 LINE",
"346 -75 LINE",
"411 -118 LINE",
"366 -122 OFFCURVE",
"314 -125 OFFCURVE",
"280 -125 CURVE SMOOTH",
"168 -125 OFFCURVE",
"85 -82 OFFCURVE",
"104 -29 CURVE",
"103 -77 LINE",
"88 -31 OFFCURVE",
"152 0 OFFCURVE",
"279 0 CURVE",
"279 75 LINE",
"135 75 OFFCURVE",
"40 33 OFFCURVE",
"40 -52 CURVE SMOOTH",
"40 -134 OFFCURVE",
"128 -200 OFFCURVE",
"282 -200 CURVE SMOOTH"
);
},
{
closed = 1;
nodes = (
"600 0 LINE",
"626 75 LINE",
"494 68 LINE",
"494 68 OFFCURVE",
"438 75 OFFCURVE",
"388 75 CURVE SMOOTH",
"279 75 LINE",
"279 0 LINE"
);
},
{
closed = 1;
nodes = (
"626 75 LINE",
"515 117 OFFCURVE",
"467 222 OFFCURVE",
"429 297 CURVE SMOOTH",
"385 385 OFFCURVE",
"340 462 OFFCURVE",
"234 462 CURVE SMOOTH",
"175 462 OFFCURVE",
"113 439 OFFCURVE",
"92 431 CURVE",
"96 480 LINE",
"130 317 LINE",
"92 356 LINE",
"113 364 OFFCURVE",
"177 387 OFFCURVE",
"230 387 CURVE SMOOTH",
"280 387 OFFCURVE",
"303 364 OFFCURVE",
"353 263 CURVE SMOOTH",
"394 181 OFFCURVE",
"455 58 OFFCURVE",
"596 5 CURVE"
);
}
);
width = 646;
},
{
anchors = (
{
name = bottom;
position = "{283, -313}";
},
{
name = center;
position = "{538, -86}";
},
{
name = top;
position = "{283, 509}";
}
);
components = (
{
name = _HahTail;
}
);
layerId = "090CB6A0-BE7C-4D17-A551-206C7456A8A3";
paths = (
{
closed = 1;
nodes = (
"675 113 LINE",
"481 153 OFFCURVE",
"304 300 OFFCURVE",
"219 406 CURVE",
"212 406 LINE",
"116 329 LINE",
"245 177 OFFCURVE",
"459 50 OFFCURVE",
"648 13 CURVE"
);
},
{
closed = 1;
nodes = (
"670 0 LINE",
"704 112 LINE",
"704 119 LINE",
"503 119 LINE",
"409 112 LINE",
"409 112 OFFCURVE",
"362 119 OFFCURVE",
"283 119 CURVE SMOOTH",
"279 119 LINE",
"279 0 LINE"
);
}
);
width = 759;
},
{
anchors = (
{
name = bottom;
position = "{283, -313}";
},
{
name = center;
position = "{520, -86}";
},
{
name = top;
position = "{234, 575}";
}
);
associatedMasterId = "090CB6A0-BE7C-4D17-A551-206C7456A8A3";
components = (
{
name = _HahTail;
}
);
layerId = "6C21E3A2-FD4A-4094-97D0-9CF9E1076F19";
name = "Mar 25 20, 18:47";
paths = (
{
closed = 1;
nodes = (
"638 110 LINE",
"524 148 OFFCURVE",
"475 244 OFFCURVE",
"436 312 CURVE SMOOTH",
"391 392 OFFCURVE",
"345 462 OFFCURVE",
"237 462 CURVE SMOOTH",
"176 462 OFFCURVE",
"103 439 OFFCURVE",
"64 423 CURVE",
"96 479 LINE",
"136 286 LINE",
"64 313 LINE",
"103 329 OFFCURVE",
"165 352 OFFCURVE",
"217 352 CURVE SMOOTH",
"272 352 OFFCURVE",
"285 326 OFFCURVE",
"327 258 CURVE SMOOTH",
"411 121 OFFCURVE",
"460 66 OFFCURVE",
"605 15 CURVE"
);
},
{
closed = 1;
nodes = (
"600 0 LINE",
"638 110 LINE",
"461 100 LINE",
"461 100 OFFCURVE",
"371 110 OFFCURVE",
"371 110 CURVE",
"279 110 LINE",
"279 0 LINE"
);
}
);
width = 658;
},
{
anchors = (
{
name = bottom;
position = "{283, -296}";
},
{
name = center;
position = "{520, -96}";
},
{
name = top;
position = "{234, 558}";
}
);
associatedMasterId = "14EEE41F-D714-4243-A717-73445EE7DABA";
components = (
{
name = _HahTail;
}
);
layerId = "669EE09B-BA62-4F17-9680-0A67FD388541";
name = "Sep 26 22, 15:15";
paths = (
{
closed = 1;
nodes = (
"626 75 LINE",
"515 117 OFFCURVE",
"467 222 OFFCURVE",
"429 297 CURVE SMOOTH",
"385 385 OFFCURVE",
"340 462 OFFCURVE",
"234 462 CURVE SMOOTH",
"175 462 OFFCURVE",
"113 439 OFFCURVE",
"92 431 CURVE",
"96 480 LINE",
"130 317 LINE",
"92 356 LINE",
"113 364 OFFCURVE",
"177 387 OFFCURVE",
"230 387 CURVE SMOOTH",
"280 387 OFFCURVE",
"303 364 OFFCURVE",
"353 263 CURVE SMOOTH",
"394 181 OFFCURVE",
"455 58 OFFCURVE",
"596 5 CURVE"
);
},
{
closed = 1;
nodes = (
"600 0 LINE",
"626 75 LINE",
"494 68 LINE",
"494 68 OFFCURVE",
"438 75 OFFCURVE",
"388 75 CURVE SMOOTH",
"279 75 LINE",
"279 0 LINE"
);
}
);
width = 646;
},
{
anchors = (
{
name = bottom;
position = "{300, -296}";
},
{
name = center;
position = "{487, -96}";
},
{
name = top;
position = "{219, 465}";
}
);
components = (
{
alignment = -1;
name = _HahTail;
}
);
layerId = "3114FB65-9464-41A5-B67E-A8F9F43C0EF1";
paths = (
{
closed = 1;
nodes = (
"611 24 LINE",
"417 70 OFFCURVE",
"239 241 OFFCURVE",
"155 362 CURVE",
"148 362 LINE",
"129 347 LINE",
"209 230 OFFCURVE",
"381 64 OFFCURVE",
"570 4 CURVE"
);
},
{
closed = 1;
nodes = (
"616 0 LINE",
"623 23 LINE",
"623 30 LINE",
"564 30 LINE",
"530 23 LINE",
"530 23 OFFCURVE",
"414 30 OFFCURVE",
"309 30 CURVE SMOOTH",
"279 30 LINE",
"279 0 LINE"
);
}
);
width = 688;
},
{
anchors = (
{
name = bottom;
position = "{283, -313}";
},
{
name = center;
position = "{520, -86}";
},
{
name = top;
position = "{234, 575}";
}
);
associatedMasterId = "090CB6A0-BE7C-4D17-A551-206C7456A8A3";
components = (
{
name = _HahTail;
}
);
layerId = "DA6F4E9C-CACD-45A2-BE0D-5868C2BA728E";
name = "Oct 7 22, 14:14";
paths = (
{
closed = 1;
nodes = (
"638 119 LINE",
"524 156 OFFCURVE",
"475 250 OFFCURVE",
"436 316 CURVE SMOOTH",
"391 394 OFFCURVE",
"345 462 OFFCURVE",
"237 462 CURVE SMOOTH",
"166 462 OFFCURVE",
"78 432 OFFCURVE",
"47 417 CURVE",
"96 480 LINE",
"130 317 LINE",
"56 304 LINE",
"82 315 OFFCURVE",
"160 343 OFFCURVE",
"218 343 CURVE SMOOTH",
"265 343 OFFCURVE",
"276 324 OFFCURVE",
"320 255 CURVE SMOOTH",
"405 122 OFFCURVE",
"449 72 OFFCURVE",
"606 19 CURVE"
);
},
{
closed = 1;
nodes = (
"600 0 LINE",
"638 119 LINE",
"461 109 LINE",
"461 109 OFFCURVE",
"371 119 OFFCURVE",
"371 119 CURVE",
"279 119 LINE",
"279 0 LINE"
);
}
);
width = 693;
},
{
anchors = (
{
name = bottom;
position = "{300, -296}";
},
{
name = center;
position = "{507, -96}";
},
{
name = top;
position = "{230, 465}";
}
);
associatedMasterId = "14EEE41F-D714-4243-A717-73445EE7DABA";
components = (
{
alignment = -1;
name = _HahTail;
}
);
layerId = "315DDDC1-440F-4996-BED0-04B8207372BF";
name = "Oct 9 22, 12:47";
paths = (
{
closed = 1;
nodes = (
"622 69 LINE",
"428 109 OFFCURVE",
"250 257 OFFCURVE",
"166 362 CURVE",
"107 315 LINE",
"223 170 OFFCURVE",
"407 48 OFFCURVE",
"574 4 CURVE"
);
},
{
closed = 1;
nodes = (
"627 0 LINE",
"650 75 LINE",
"520 75 LINE",
"426 68 LINE",
"426 68 OFFCURVE",
"370 75 OFFCURVE",
"320 75 CURVE SMOOTH",
"279 75 LINE",
"279 0 LINE"
);
}
);
width = 710;
}
);
unicode = 062D;
},
{
glyphname = "hah-ar.fina";
layers = (
{
components = (
{
name = "hah-ar";
},
{
name = _connection.r;
transform = "{1, 0, 0, 1, 626, 0}";
}
);
layerId = "14EEE41F-D714-4243-A717-73445EE7DABA";
paths = (
{
closed = 1;
nodes = (
"676 0 LINE",
"676 75 LINE",
"590 75 LINE",
"590 0 LINE"
);
}
);
width = 676;
},
{
components = (
{
name = "hah-ar";
},
{
name = _connection.r;
transform = "{1, 0, 0, 1, 672, 0}";
}
);
layerId = "090CB6A0-BE7C-4D17-A551-206C7456A8A3";
paths = (
{
closed = 1;
nodes = (
"722 0 LINE",
"722 119 LINE",
"636 119 LINE",
"636 0 LINE"
);
}
);
width = 722;
},
{
components = (
{
name = "hah-ar";
},
{
name = _connection.r;
transform = "{1, 0, 0, 1, 605, 0}";
}
);
layerId = "3114FB65-9464-41A5-B67E-A8F9F43C0EF1";
paths = (
{
closed = 1;
nodes = (
"655 0 LINE",
"655 30 LINE",
"569 30 LINE",
"569 0 LINE"
);
}
);
width = 655;
}
);
leftMetricsKey = "=hah-ar";
rightMetricsKey = "=-20";
},
{
glyphname = "hah-ar.medi";
layers = (
{
components = (
{
name = "hah-ar.init";
},
{
name = _connection.r;
transform = "{1, 0, 0, 1, 575, 0}";
}
);
layerId = "14EEE41F-D714-4243-A717-73445EE7DABA";
paths = (
{
closed = 1;
nodes = (
"625 0 LINE",
"625 75 LINE",
"539 75 LINE",
"539 0 LINE"
);
}
);
width = 625;
},
{
components = (
{
name = "hah-ar.init";
},
{
name = _connection.r;
transform = "{1, 0, 0, 1, 618, 0}";
}
);
layerId = "090CB6A0-BE7C-4D17-A551-206C7456A8A3";
paths = (
{
closed = 1;
nodes = (
"668 0 LINE",
"668 119 LINE",
"582 119 LINE",
"582 0 LINE"
);
}
);
width = 668;
},
{
components = (
{
name = "hah-ar.init";
},
{
name = _connection.r;
transform = "{1, 0, 0, 1, 535, 0}";
}
);
layerId = "3114FB65-9464-41A5-B67E-A8F9F43C0EF1";
paths = (
{
closed = 1;
nodes = (
"585 0 LINE",
"585 30 LINE",
"499 30 LINE",
"499 0 LINE"
);
}
);
width = 585;
}
);
leftMetricsKey = "=-20";
rightMetricsKey = "=-20";
},
{
glyphname = "hah-ar.init";
layers = (
{
anchors = (
{
name = bottom;
position = "{275, -96}";
},
{
name = top;
position = "{179, 465}";
}
);
components = (
{
name = _connection.l;
}
);
layerId = "14EEE41F-D714-4243-A717-73445EE7DABA";
paths = (
{
closed = 1;
nodes = (
"571 69 LINE",
"376 109 OFFCURVE",
"199 257 OFFCURVE",
"115 362 CURVE",
"108 362 LINE",
"53 318 LINE",
"169 172 OFFCURVE",
"355 48 OFFCURVE",
"523 4 CURVE"
);
},
{
closed = 1;
nodes = (
"576 0 LINE",
"597 68 LINE",
"597 75 LINE",
"469 75 LINE",
"375 68 LINE",
"375 68 OFFCURVE",
"319 75 OFFCURVE",
"269 75 CURVE SMOOTH",
"0 75 LINE",
"0 0 LINE"
);
}
);
width = 657;
},
{
associatedMasterId = "14EEE41F-D714-4243-A717-73445EE7DABA";
layerId = "A7AA982B-E044-4BAB-AF20-D592A5247E13";
name = "Nov 20 19, 14:26";
paths = (
{
closed = 1;
nodes = (
"155 0 LINE SMOOTH",
"238 1 OFFCURVE",
"341 38 OFFCURVE",
"411 92 CURVE",
"359 151 LINE",
"299 105 OFFCURVE",
"218 75 OFFCURVE",
"155 75 CURVE SMOOTH",
"0 74 LINE",
"1 -1 LINE"
);
},
{
closed = 1;
nodes = (
"575 51 LINE",
"573 69 LINE",
"510 112 OFFCURVE",
"453 144 OFFCURVE",
"400 185 CURVE SMOOTH",
"47 457 LINE",
"75 462 LINE",
"-1 373 LINE",
"-4 396 LINE",
"313 152 LINE",
"416 89 LINE",
"535 4 LINE"
);
},
{
closed = 1;
nodes = (
"-295 366 OFFCURVE",
"-246 336 OFFCURVE",
"-219 287 OFFCURVE",
"-209 225 OFFCURVE",
"-201 159 OFFCURVE",
"-188 95 OFFCURVE",
"-172 70 QCURVE",
"-504 70 LINE SMOOTH",
"-525 70 OFFCURVE",
"-544 57 OFFCURVE",
"-544 35 QCURVE SMOOTH",
"-544 0 OFFCURVE",
"-504 0 QCURVE SMOOTH",
"-81 0 LINE",
"-81 70 LINE",
"-100 94 OFFCURVE",
"-114 166 OFFCURVE",
"-125 247 OFFCURVE",
"-141 328 OFFCURVE",
"-184 393 OFFCURVE",
"-261 434 OFFCURVE",
"-326 434 QCURVE SMOOTH",
"-368 434 OFFCURVE",
"-431 419 OFFCURVE",
"-449 411 QCURVE",
"-449 348 LINE",
"-433 353 OFFCURVE",
"-377 366 OFFCURVE",
"-338 366 QCURVE",
"-338 366 LINE"
);
}
);
width = 600;
},
{
associatedMasterId = "14EEE41F-D714-4243-A717-73445EE7DABA";
layerId = "D39CAA9A-8FA1-460C-9283-BC4A79EC031E";
name = "Nov 20 19, 14:29";
paths = (
{
closed = 1;
nodes = (
"155 0 LINE SMOOTH",
"237 1 OFFCURVE",
"339 36 OFFCURVE",
"411 92 CURVE",
"359 151 LINE",
"299 105 OFFCURVE",
"218 75 OFFCURVE",
"155 75 CURVE SMOOTH",
"0 74 LINE",
"1 -1 LINE"
);
},
{
closed = 1;
nodes = (
"575 51 LINE",
"573 69 LINE",
"510 112 OFFCURVE",
"453 144 OFFCURVE",
"400 185 CURVE SMOOTH",
"47 457 LINE",
"75 462 LINE",
"-1 373 LINE",
"-4 396 LINE",
"313 152 LINE",
"416 89 LINE",
"535 4 LINE"
);
}
);
width = 600;
},
{
associatedMasterId = "14EEE41F-D714-4243-A717-73445EE7DABA";
layerId = "E40490F6-0593-4ABC-A671-8FF55F42AA7C";
name = "Nov 20 19, 14:30";
paths = (
{
closed = 1;
nodes = (
"616 0 LINE",
"616 75 LINE",
"57 75 LINE",
"58 0 LINE"
);
},
{
closed = 1;
nodes = (
"573 75 OFFCURVE",
"560 129 OFFCURVE",
"545 197 CURVE SMOOTH",
"520 312 OFFCURVE",
"483 466 OFFCURVE",
"276 466 CURVE SMOOTH",
"205 466 OFFCURVE",
"153 448 OFFCURVE",
"137 442 CURVE",
"167 372 LINE",
"201 385 OFFCURVE",
"238 391 OFFCURVE",
"276 391 CURVE SMOOTH",
"414 391 OFFCURVE",
"436 297 OFFCURVE",
"462 181 CURVE SMOOTH",
"487 70 OFFCURVE",
"520 0 OFFCURVE",
"616 0 CURVE",
"616 75 LINE"
);
},
{
closed = 1;
nodes = (
"554 67 LINE",
"448 75 LINE",
"161 75 LINE",
"161 0 LINE",
"554 0 LINE"
);
}
);
width = 600;
},
{
associatedMasterId = "14EEE41F-D714-4243-A717-73445EE7DABA";
layerId = "DC5076C4-BB8B-4E9D-91E6-73B7B85C4DF7";
name = "Nov 20 19, 14:33";
paths = (
{
closed = 1;
nodes = (
"543 75 OFFCURVE",
"530 129 OFFCURVE",
"515 197 CURVE SMOOTH",
"490 312 OFFCURVE",
"453 466 OFFCURVE",
"246 466 CURVE SMOOTH",
"175 466 OFFCURVE",
"123 448 OFFCURVE",
"107 442 CURVE",
"137 372 LINE",
"171 385 OFFCURVE",
"208 391 OFFCURVE",
"246 391 CURVE SMOOTH",
"384 391 OFFCURVE",
"406 297 OFFCURVE",
"432 181 CURVE SMOOTH",
"457 70 OFFCURVE",
"490 0 OFFCURVE",
"586 0 CURVE",
"586 75 LINE"
);
},
{
closed = 1;
nodes = (
"524 67 LINE",
"418 75 LINE",
"0 75 LINE",
"0 0 LINE",
"586 0 LINE"
);
}
);
width = 570;
},
{
anchors = (
{
name = bottom;
position = "{265, -70}";
},
{
name = top;
position = "{206, 550}";
}
);
associatedMasterId = "14EEE41F-D714-4243-A717-73445EE7DABA";
components = (
{
name = _connection.l;
}
);
layerId = "BA10249C-1BA0-4594-BAEF-86C9E4938888";
name = "Nov 20 19, 16:36";
paths = (
{
closed = 1;
nodes = (
"546 75 LINE",
"503 75 OFFCURVE",
"490 129 OFFCURVE",
"475 197 CURVE SMOOTH",
"450 312 OFFCURVE",
"413 466 OFFCURVE",
"206 466 CURVE SMOOTH",
"135 466 OFFCURVE",
"83 448 OFFCURVE",
"67 442 CURVE",
"97 372 LINE",
"131 385 OFFCURVE",
"168 391 OFFCURVE",
"206 391 CURVE SMOOTH",
"344 391 OFFCURVE",
"366 297 OFFCURVE",
"392 181 CURVE SMOOTH",
"417 70 OFFCURVE",
"450 0 OFFCURVE",
"546 0 CURVE"
);
},
{
closed = 1;
nodes = (
"546 0 LINE",
"441 67 LINE",
"335 75 LINE",
"0 75 LINE",
"0 0 LINE"
);
}
);
width = 596;
},
{
anchors = (
{
name = bottom;
position = "{265, -70}";
},
{
name = top;
position = "{206, 550}";
}
);
associatedMasterId = "14EEE41F-D714-4243-A717-73445EE7DABA";
components = (
{
name = _connection.l;
}
);
layerId = "C6FDEAB0-91B3-4637-A7B1-27A9F00DF618";
name = "Nov 21 19, 16:51";
paths = (
{
closed = 1;
nodes = (
"503 75 OFFCURVE",
"490 129 OFFCURVE",
"475 197 CURVE SMOOTH",
"450 312 OFFCURVE",
"413 466 OFFCURVE",
"206 466 CURVE SMOOTH",
"135 466 OFFCURVE",
"83 448 OFFCURVE",
"67 442 CURVE",
"97 372 LINE",
"131 385 OFFCURVE",
"168 391 OFFCURVE",
"206 391 CURVE SMOOTH",
"344 391 OFFCURVE",
"366 297 OFFCURVE",
"392 181 CURVE SMOOTH",
"416 74 OFFCURVE",
"448 5 OFFCURVE",
"536 0 CURVE",
"551 14 LINE",
"549 35 OFFCURVE",
"548 55 OFFCURVE",
"546 75 CURVE"
);
},
{
closed = 1;
nodes = (
"536 0 LINE",
"441 67 LINE",
"335 75 LINE",
"0 75 LINE",
"0 0 LINE"
);
}
);
width = 596;
},
{
anchors = (
{
name = bottom;
position = "{265, -70}";
},
{
name = top;
position = "{206, 550}";
}
);
associatedMasterId = "14EEE41F-D714-4243-A717-73445EE7DABA";
components = (
{
name = _connection.l;
}
);
layerId = "01B20095-59BC-41D1-B23E-0F7F16CA3A5E";
name = "Nov 21 19, 16:54";
paths = (
{
closed = 1;
nodes = (
"536 0 LINE",
"441 67 LINE",
"335 75 LINE",
"0 75 LINE",
"0 0 LINE"
);
},
{
closed = 1;
nodes = (
"1236 75 OFFCURVE",
"1231 129 OFFCURVE",
"1208 197 CURVE SMOOTH",
"1171 308 OFFCURVE",
"1076 487 OFFCURVE",
"800 442 CURVE",
"830 372 LINE",
"1004 380 OFFCURVE",
"1083 312 OFFCURVE",
"1125 181 CURVE SMOOTH",
"1159 74 OFFCURVE",
"1181 5 OFFCURVE",
"1269 0 CURVE",
"1284 14 LINE",
"1282 35 OFFCURVE",
"1281 55 OFFCURVE",
"1279 75 CURVE"
);
},
{
closed = 1;
nodes = (
"1269 0 LINE",
"1174 67 LINE",
"1068 75 LINE",
"733 75 LINE",
"733 0 LINE"
);
},
{
closed = 1;
nodes = (
"1628 75 OFFCURVE",
"1623 81 OFFCURVE",
"1597 166 CURVE SMOOTH",
"1564 274 OFFCURVE",
"1507 468 OFFCURVE",
"1161 445 CURVE",
"1161 492 LINE",
"1215 372 LINE",
"1448 372 OFFCURVE",
"1485 249 OFFCURVE",
"1516 145 CURVE SMOOTH",
"1539 67 OFFCURVE",
"1559 0 OFFCURVE",
"1654 0 CURVE",
"1654 75 LINE"
);
},
{
closed = 1;
nodes = (
"503 75 OFFCURVE",
"490 129 OFFCURVE",
"475 197 CURVE SMOOTH",
"450 312 OFFCURVE",
"413 466 OFFCURVE",
"206 466 CURVE SMOOTH",
"135 466 OFFCURVE",
"83 448 OFFCURVE",
"67 442 CURVE",
"97 372 LINE",
"131 385 OFFCURVE",
"168 391 OFFCURVE",
"206 391 CURVE SMOOTH",
"344 391 OFFCURVE",
"366 297 OFFCURVE",
"392 181 CURVE SMOOTH",
"416 74 OFFCURVE",
"448 5 OFFCURVE",
"536 0 CURVE",
"551 14 LINE",
"549 35 OFFCURVE",
"548 55 OFFCURVE",
"546 75 CURVE"
);
},
{
closed = 0;
nodes = (
"1644 0 LINE",
"1659 14 LINE",
"1657 35 OFFCURVE",
"1656 55 OFFCURVE",
"1654 75 CURVE"
);
}
);
width = 596;
},
{
anchors = (
{
name = bottom;
position = "{265, -70}";
},
{
name = top;
position = "{206, 550}";
}
);
associatedMasterId = "14EEE41F-D714-4243-A717-73445EE7DABA";
components = (
{
name = _connection.l;
}
);
layerId = "63F91D2A-4F30-47AA-8B85-C0816685E510";
name = "Nov 21 19, 16:57";
paths = (
{
closed = 1;
nodes = (
"1236 75 OFFCURVE",
"1231 129 OFFCURVE",
"1208 197 CURVE SMOOTH",
"1171 308 OFFCURVE",
"1076 487 OFFCURVE",
"800 442 CURVE",
"830 372 LINE",
"1004 380 OFFCURVE",
"1083 312 OFFCURVE",
"1125 181 CURVE SMOOTH",
"1159 74 OFFCURVE",
"1181 5 OFFCURVE",
"1269 0 CURVE",
"1284 14 LINE",
"1282 35 OFFCURVE",
"1281 55 OFFCURVE",
"1279 75 CURVE"
);
},
{
closed = 1;
nodes = (
"1269 0 LINE",
"1174 67 LINE",
"1068 75 LINE",
"733 75 LINE",
"733 0 LINE"
);
},
{
closed = 1;
nodes = (
"520 75 OFFCURVE",
"515 81 OFFCURVE",
"489 166 CURVE SMOOTH",
"456 274 OFFCURVE",
"399 468 OFFCURVE",
"53 445 CURVE",
"87 492 LINE",
"107 372 LINE",
"340 372 OFFCURVE",
"377 249 OFFCURVE",
"408 145 CURVE SMOOTH",
"430 70 OFFCURVE",
"450 5 OFFCURVE",
"536 0 CURVE",
"551 14 LINE",
"549 35 OFFCURVE",
"548 55 OFFCURVE",
"546 75 CURVE"
);
},
{
closed = 1;
nodes = (
"536 0 LINE",
"441 67 LINE",
"335 75 LINE",
"0 75 LINE",
"0 0 LINE"
);
}
);
width = 596;
},
{
anchors = (
{
name = bottom;
position = "{265, -70}";
},
{
name = top;
position = "{206, 550}";
}
);
associatedMasterId = "14EEE41F-D714-4243-A717-73445EE7DABA";
components = (
{
name = _connection.l;
}
);
layerId = "645424EE-6E77-48E8-94A8-E43FED2C3510";
name = "Nov 21 19, 17:03";
paths = (
{
closed = 1;
nodes = (
"536 0 LINE",
"441 67 LINE",
"335 75 LINE",
"0 75 LINE",
"0 0 LINE"
);
},
{
closed = 1;
nodes = (
"503 75 OFFCURVE",
"490 129 OFFCURVE",
"475 197 CURVE SMOOTH",
"450 312 OFFCURVE",
"413 466 OFFCURVE",
"206 466 CURVE SMOOTH",
"135 466 OFFCURVE",
"83 448 OFFCURVE",
"67 442 CURVE",
"97 372 LINE",
"131 385 OFFCURVE",
"168 391 OFFCURVE",
"206 391 CURVE SMOOTH",
"344 391 OFFCURVE",
"366 297 OFFCURVE",
"392 181 CURVE SMOOTH",
"416 74 OFFCURVE",
"448 5 OFFCURVE",
"536 0 CURVE",
"551 14 LINE",
"549 35 OFFCURVE",
"548 55 OFFCURVE",
"546 75 CURVE"
);
},
{
closed = 1;
nodes = (
"667 0 LINE",
"682 14 LINE",
"676 95 OFFCURVE",
"667 166 OFFCURVE",
"667 237 CURVE SMOOTH",
"667 388 LINE",
"582 388 LINE",
"582 135 LINE",
"595 42 LINE",
"591 0 LINE"
);
}
);
width = 596;
},
{
anchors = (
{
name = bottom;
position = "{265, -70}";
},
{
name = top;
position = "{206, 550}";
}
);
associatedMasterId = "14EEE41F-D714-4243-A717-73445EE7DABA";
components = (
{
name = _connection.l;
}
);
layerId = "C8B497AD-4EFA-4298-9538-6C2A1D600BF6";
name = "Nov 21 19, 17:17";
paths = (
{
closed = 1;
nodes = (
"500 0 LINE",
"441 67 LINE",
"335 75 LINE",
"0 75 LINE",
"0 0 LINE"
);
},
{
closed = 1;
nodes = (
"127 323 OFFCURVE",
"166 329 OFFCURVE",
"206 329 CURVE SMOOTH",
"347 329 OFFCURVE",
"367 258 OFFCURVE",
"393 159 CURVE SMOOTH",
"418 60 OFFCURVE",
"455 0 OFFCURVE",
"546 0 CURVE",
"546 75 LINE",
"503 75 OFFCURVE",
"490 120 OFFCURVE",
"475 178 CURVE SMOOTH",
"450 275 OFFCURVE",
"413 404 OFFCURVE",
"206 404 CURVE SMOOTH",
"135 404 OFFCURVE",
"83 389 OFFCURVE",
"67 384 CURVE",
"92 312 LINE"
);
},
{
closed = 0;
nodes = (
"543 0 LINE",
"558 14 LINE",
"556 35 OFFCURVE",
"555 55 OFFCURVE",
"553 75 CURVE"
);
}
);
width = 596;
},
{
anchors = (
{
name = bottom;
position = "{265, -70}";
},
{
name = top;
position = "{206, 450}";
}
);
associatedMasterId = "14EEE41F-D714-4243-A717-73445EE7DABA";
components = (
{
name = _connection.l;
}
);
layerId = "FA0F821F-9BBF-4DE7-B1B6-2ED8FCBD7DC0";
name = "Nov 21 19, 17:23";
paths = (
{
closed = 1;
nodes = (
"536 0 LINE",
"441 67 LINE",
"335 75 LINE",
"0 75 LINE",
"0 0 LINE"
);
},
{
closed = 1;
nodes = (
"503 75 OFFCURVE",
"490 120 OFFCURVE",
"475 178 CURVE SMOOTH",
"450 275 OFFCURVE",
"413 404 OFFCURVE",
"206 404 CURVE SMOOTH",
"135 404 OFFCURVE",
"83 389 OFFCURVE",
"67 384 CURVE",
"92 312 LINE",
"127 323 OFFCURVE",
"166 329 OFFCURVE",
"206 329 CURVE SMOOTH",
"347 329 OFFCURVE",
"367 258 OFFCURVE",
"393 159 CURVE SMOOTH",
"417 64 OFFCURVE",
"452 5 OFFCURVE",
"536 0 CURVE",
"551 14 LINE",
"549 35 OFFCURVE",
"548 55 OFFCURVE",
"546 75 CURVE"
);
},
{
closed = 1;
nodes = (
"-63 0 LINE",
"-48 14 LINE",
"-54 95 OFFCURVE",
"-63 166 OFFCURVE",
"-63 237 CURVE SMOOTH",
"-63 398 LINE",
"-148 398 LINE",
"-148 135 LINE",
"-135 42 LINE",
"-139 0 LINE"
);
}
);
width = 596;
},
{
anchors = (
{
name = bottom;
position = "{245, -70}";
},
{
name = top;
position = "{186, 480}";
}
);
associatedMasterId = "14EEE41F-D714-4243-A717-73445EE7DABA";
components = (
{
name = _connection.l;
}
);
layerId = "4458A856-8076-423E-9C4E-EB5AB36F93CE";
name = "Nov 21 19, 23:30";
paths = (
{
closed = 1;
nodes = (
"516 0 LINE",
"421 67 LINE",
"315 75 LINE",
"0 75 LINE",
"0 0 LINE"
);
},
{
closed = 1;
nodes = (
"483 75 OFFCURVE",
"470 119 OFFCURVE",
"455 176 CURVE SMOOTH",
"430 272 OFFCURVE",
"393 398 OFFCURVE",
"186 398 CURVE SMOOTH",
"115 398 OFFCURVE",
"63 384 OFFCURVE",
"47 379 CURVE",
"72 307 LINE",
"104 317 OFFCURVE",
"146 323 OFFCURVE",
"186 323 CURVE SMOOTH",
"327 323 OFFCURVE",
"347 254 OFFCURVE",
"373 157 CURVE SMOOTH",
"398 63 OFFCURVE",
"433 5 OFFCURVE",
"516 0 CURVE",
"531 14 LINE",
"529 35 OFFCURVE",
"528 55 OFFCURVE",
"526 75 CURVE"
);
}
);
width = 576;
},
{
anchors = (
{
name = bottom;
position = "{245, -70}";
},
{
name = top;
position = "{186, 480}";
}
);
associatedMasterId = "14EEE41F-D714-4243-A717-73445EE7DABA";
components = (
{
name = _connection.l;
}
);
layerId = "197EE562-D56C-4E72-847F-009C0B294B1B";
name = "Dec 4 19, 14:32";
paths = (
{
closed = 1;
nodes = (
"516 0 LINE",
"421 67 LINE",
"315 75 LINE",
"0 75 LINE",
"0 0 LINE"
);
},
{
closed = 1;
nodes = (
"531 14 LINE",
"529 35 OFFCURVE",
"528 55 OFFCURVE",
"526 75 CURVE",
"483 75 OFFCURVE",
"470 115 OFFCURVE",
"455 167 CURVE SMOOTH",
"430 255 OFFCURVE",
"393 370 OFFCURVE",
"186 370 CURVE SMOOTH",
"115 370 OFFCURVE",
"63 357 OFFCURVE",
"47 353 CURVE",
"68 280 LINE",
"84 284 OFFCURVE",
"127 295 OFFCURVE",
"186 295 CURVE SMOOTH",
"329 295 OFFCURVE",
"348 236 OFFCURVE",
"373 146 CURVE SMOOTH",
"399 58 OFFCURVE",
"436 4 OFFCURVE",
"516 0 CURVE"
);
}
);
width = 576;
},
{
anchors = (
{
name = bottom;
position = "{245, -70}";
},
{
name = top;
position = "{186, 480}";
}
);
associatedMasterId = "14EEE41F-D714-4243-A717-73445EE7DABA";
components = (
{
name = _connection.l;
}
);
layerId = "BF1E4306-78C2-4560-BB83-FB15A50BA203";
name = "Dec 4 19, 14:38";
paths = (
{
closed = 1;
nodes = (
"347 68 OFFCURVE",
"291 75 OFFCURVE",
"241 75 CURVE SMOOTH",
"0 75 LINE",
"0 0 LINE",
"503 0 LINE",
"347 68 LINE"
);
},
{
closed = 1;
nodes = (
"166 172 OFFCURVE",
"334 53 OFFCURVE",
"501 0 CURVE",
"526 72 LINE",
"347 128 OFFCURVE",
"199 261 OFFCURVE",
"115 367 CURVE",
"48 320 LINE"
);
},
{
closed = 0;
nodes = (
"-134 72 LINE",
"-313 128 OFFCURVE",
"-316 288 OFFCURVE",
"-474 367 CURVE SMOOTH",
"-492 376 OFFCURVE",
"-509 379 OFFCURVE",
"-525 379 CURVE SMOOTH",
"-569 379 OFFCURVE",
"-601 353 OFFCURVE",
"-613 350 CURVE"
);
}
);
width = 576;
},
{
anchors = (
{
name = bottom;
position = "{245, -70}";
},
{
name = top;
position = "{186, 480}";
}
);
associatedMasterId = "14EEE41F-D714-4243-A717-73445EE7DABA";
components = (
{
name = _connection.l;
}
);
layerId = "2D2C13BB-8A66-45C3-A0E6-65C26EC1806B";
name = "Dec 4 19, 14:44";
paths = (
{
closed = 1;
nodes = (
"516 0 LINE",
"420 68 LINE",
"420 68 OFFCURVE",
"364 75 OFFCURVE",
"314 75 CURVE SMOOTH",
"0 75 LINE",
"0 0 LINE"
);
},
{
closed = 1;
nodes = (
"1029 72 LINE",
"850 128 OFFCURVE",
"702 261 OFFCURVE",
"618 367 CURVE",
"551 320 LINE",
"669 172 OFFCURVE",
"837 53 OFFCURVE",
"1004 0 CURVE"
);
},
{
closed = 0;
nodes = (
"-363 72 LINE",
"-640 157 OFFCURVE",
"-597 379 OFFCURVE",
"-774 379 CURVE SMOOTH",
"-823 379 OFFCURVE",
"-859 362 OFFCURVE",
"-873 350 CURVE"
);
},
{
closed = 0;
nodes = (
"531 72 LINE",
"393 116 OFFCURVE",
"339 195 OFFCURVE",
"295 261 CURVE SMOOTH",
"254 321 OFFCURVE",
"222 370 OFFCURVE",
"142 370 CURVE SMOOTH",
"96 370 OFFCURVE",
"62 353 OFFCURVE",
"49 342 CURVE"
);
},
{
closed = 0;
nodes = (
"142 365 LINE SMOOTH",
"93 365 OFFCURVE",
"57 356 OFFCURVE",
"46 353 CURVE"
);
}
);
width = 576;
},
{
anchors = (
{
name = bottom;
position = "{245, -70}";
},
{
name = top;
position = "{186, 480}";
}
);
associatedMasterId = "14EEE41F-D714-4243-A717-73445EE7DABA";
components = (
{
name = _connection.l;
}
);
layerId = "C6A7AF75-10B5-4592-9A07-1A65FB66FA58";
name = "Dec 4 19, 14:46";
paths = (
{
closed = 1;
nodes = (
"516 0 LINE",
"420 68 LINE",
"420 68 OFFCURVE",
"364 75 OFFCURVE",
"314 75 CURVE SMOOTH",
"0 75 LINE",
"0 0 LINE"
);
},
{
closed = 1;
nodes = (
"1029 72 LINE",
"850 128 OFFCURVE",
"702 261 OFFCURVE",
"618 367 CURVE",
"551 320 LINE",
"669 172 OFFCURVE",
"837 53 OFFCURVE",
"1004 0 CURVE"
);
},
{
closed = 1;
nodes = (
"82 292 OFFCURVE",
"113 296 OFFCURVE",
"136 296 CURVE SMOOTH",
"193 296 OFFCURVE",
"208 273 OFFCURVE",
"253 207 CURVE SMOOTH",
"296 144 OFFCURVE",
"359 50 OFFCURVE",
"516 0 CURVE",
"541 72 LINE",
"416 112 OFFCURVE",
"368 181 OFFCURVE",
"323 249 CURVE SMOOTH",
"282 311 OFFCURVE",
"241 371 OFFCURVE",
"136 371 CURVE SMOOTH",
"106 371 OFFCURVE",
"65 366 OFFCURVE",
"37 358 CURVE",
"59 286 LINE"
);
}
);
width = 576;
},
{
anchors = (
{
name = bottom;
position = "{245, -70}";
},
{
name = top;
position = "{186, 480}";
}
);
associatedMasterId = "14EEE41F-D714-4243-A717-73445EE7DABA";
components = (
{
name = _connection.l;
}
);
layerId = "6C0A9A3A-3EF6-4A6E-BB8B-FF49EBCA9AB8";
name = "Dec 4 19, 15:22";
paths = (
{
closed = 1;
nodes = (
"516 0 LINE",
"390 68 LINE",
"390 68 OFFCURVE",
"334 75 OFFCURVE",
"284 75 CURVE SMOOTH",
"0 75 LINE",
"0 0 LINE"
);
},
{
closed = 1;
nodes = (
"542 72 LINE",
"411 112 OFFCURVE",
"362 182 OFFCURVE",
"314 253 CURVE SMOOTH",
"273 313 OFFCURVE",
"225 381 OFFCURVE",
"121 381 CURVE SMOOTH",
"75 381 OFFCURVE",
"28 368 OFFCURVE",
"0 349 CURVE",
"23 404 LINE",
"69 254 LINE",
"19 286 LINE",
"46 298 OFFCURVE",
"83 306 OFFCURVE",
"118 306 CURVE SMOOTH",
"178 306 OFFCURVE",
"200 274 OFFCURVE",
"244 211 CURVE SMOOTH",
"291 144 OFFCURVE",
"355 50 OFFCURVE",
"516 0 CURVE"
);
}
);
width = 576;
},
{
anchors = (
{
name = bottom;
position = "{245, -70}";
},
{
name = top;
position = "{186, 480}";
}
);
associatedMasterId = "14EEE41F-D714-4243-A717-73445EE7DABA";
components = (
{
name = _connection.l;
}
);
layerId = "064421AE-DAFB-4174-B2C8-CD869EBE4BA5";
name = "Dec 4 19, 15:50";
paths = (
{
closed = 1;
nodes = (
"542 75 LINE",
"411 115 OFFCURVE",
"362 185 OFFCURVE",
"314 256 CURVE SMOOTH",
"273 316 OFFCURVE",
"225 384 OFFCURVE",
"121 384 CURVE SMOOTH",
"75 384 OFFCURVE",
"28 371 OFFCURVE",
"0 352 CURVE",
"23 407 LINE",
"69 257 LINE",
"19 289 LINE",
"46 301 OFFCURVE",
"83 309 OFFCURVE",
"118 309 CURVE SMOOTH",
"178 309 OFFCURVE",
"200 277 OFFCURVE",
"244 214 CURVE SMOOTH",
"295 141 OFFCURVE",
"366 37 OFFCURVE",
"559 -9 CURVE",
"501 -39 LINE"
);
},
{
closed = 1;
nodes = (
"516 0 LINE",
"542 75 LINE",
"390 68 LINE",
"390 68 OFFCURVE",
"334 75 OFFCURVE",
"284 75 CURVE SMOOTH",
"0 75 LINE",
"0 0 LINE"
);
}
);
width = 576;
},
{
anchors = (
{
name = bottom;
position = "{245, -70}";
},
{
name = top;
position = "{186, 480}";
}
);
associatedMasterId = "14EEE41F-D714-4243-A717-73445EE7DABA";
components = (
{
name = _connection.l;
}
);
layerId = "EDC743D8-3B27-427E-8174-56D49654C947";
name = "Dec 4 19, 15:57";
paths = (
{
closed = 1;
nodes = (
"516 0 LINE",
"542 72 LINE",
"400 68 LINE",
"400 68 OFFCURVE",
"344 75 OFFCURVE",
"294 75 CURVE SMOOTH",
"0 75 LINE",
"0 0 LINE"
);
},
{
closed = 1;
nodes = (
"66 300 OFFCURVE",
"91 306 OFFCURVE",
"123 306 CURVE SMOOTH",
"172 306 OFFCURVE",
"190 294 OFFCURVE",
"253 213 CURVE SMOOTH",
"335 110 OFFCURVE",
"403 53 OFFCURVE",
"506 4 CURVE",
"542 72 LINE",
"426 127 OFFCURVE",
"368 199 OFFCURVE",
"320 260 CURVE SMOOTH",
"266 328 OFFCURVE",
"223 381 OFFCURVE",
"123 381 CURVE SMOOTH",
"74 381 OFFCURVE",
"28 368 OFFCURVE",
"0 349 CURVE",
"48 287 LINE"
);
}
);
width = 576;
},
{
anchors = (
{
name = bottom;
position = "{245, -70}";
},
{
name = top;
position = "{186, 480}";
}
);
associatedMasterId = "14EEE41F-D714-4243-A717-73445EE7DABA";
components = (
{
name = _connection.l;
}
);
layerId = "6AC1C1FD-57E1-4A01-8627-0587B9EA9798";
name = "Dec 4 19, 16:15";
paths = (
{
closed = 1;
nodes = (
"542 75 LINE",
"411 115 OFFCURVE",
"362 185 OFFCURVE",
"314 256 CURVE SMOOTH",
"273 316 OFFCURVE",
"225 384 OFFCURVE",
"121 384 CURVE SMOOTH",
"75 384 OFFCURVE",
"28 371 OFFCURVE",
"0 352 CURVE",
"23 407 LINE",
"69 257 LINE",
"19 289 LINE",
"46 301 OFFCURVE",
"84 309 OFFCURVE",
"116 309 CURVE SMOOTH",
"179 309 OFFCURVE",
"200 277 OFFCURVE",
"244 214 CURVE SMOOTH",
"295 141 OFFCURVE",
"366 37 OFFCURVE",
"559 -9 CURVE",
"501 -39 LINE"
);
},
{
closed = 1;
nodes = (
"516 0 LINE",
"542 75 LINE",
"390 68 LINE",
"390 68 OFFCURVE",
"334 75 OFFCURVE",
"284 75 CURVE SMOOTH",
"0 75 LINE",
"0 0 LINE"
);
}
);
width = 592;
},
{
anchors = (
{
name = bottom;
position = "{235, -70}";
},
{
name = top;
position = "{176, 480}";
}
);
associatedMasterId = "14EEE41F-D714-4243-A717-73445EE7DABA";
components = (
{
name = _connection.l;
}
);
layerId = "9685887E-BBFA-4698-99C6-0ABD8A246FA9";
name = "Dec 4 19, 21:23";
paths = (
{
closed = 1;
nodes = (
"532 75 LINE",
"413 115 OFFCURVE",
"370 183 OFFCURVE",
"324 257 CURVE SMOOTH",
"287 316 OFFCURVE",
"245 384 OFFCURVE",
"146 384 CURVE SMOOTH",
"103 384 OFFCURVE",
"56 371 OFFCURVE",
"28 352 CURVE",
"104 254 LINE",
"49 273 LINE",
"66 295 OFFCURVE",
"104 309 OFFCURVE",
"144 309 CURVE SMOOTH",
"194 309 OFFCURVE",
"205 288 OFFCURVE",
"252 217 CURVE SMOOTH",
"329 101 OFFCURVE",
"367 52 OFFCURVE",
"505 4 CURVE"
);
},
{
closed = 1;
nodes = (
"506 0 LINE",
"532 75 LINE",
"380 68 LINE",
"380 68 OFFCURVE",
"324 75 OFFCURVE",
"274 75 CURVE SMOOTH",
"0 75 LINE",
"0 0 LINE"
);
}
);
width = 582;
},
{
anchors = (
{
name = bottom;
position = "{235, -70}";
},
{
name = top;
position = "{176, 480}";
}
);
associatedMasterId = "14EEE41F-D714-4243-A717-73445EE7DABA";
components = (
{
name = _connection.l;
}
);
layerId = "A14870FB-D9FE-4A49-A172-8B21363B5025";
name = "Dec 4 19, 21:24";
paths = (
{
closed = 1;
nodes = (
"506 0 LINE",
"532 75 LINE",
"450 68 LINE",
"450 68 OFFCURVE",
"394 75 OFFCURVE",
"344 75 CURVE SMOOTH",
"0 75 LINE",
"0 0 LINE"
);
},
{
closed = 1;
nodes = (
"266 246 OFFCURVE",
"358 126 OFFCURVE",
"475 20 CURVE",
"532 75 LINE",
"425 173 OFFCURVE",
"340 283 OFFCURVE",
"269 418 CURVE",
"194 383 LINE"
);
}
);
width = 582;
},
{
anchors = (
{
name = bottom;
position = "{235, -70}";
},
{
name = top;
position = "{340, 349}";
}
);
associatedMasterId = "14EEE41F-D714-4243-A717-73445EE7DABA";
components = (
{
name = _connection.l;
}
);
layerId = "17562693-BE67-43A1-B35B-B8A1E5CAE995";
name = "Dec 4 19, 21:31";
paths = (
{
closed = 1;
nodes = (
"532 75 LINE",
"371 160 OFFCURVE",
"243 253 OFFCURVE",
"136 370 CURVE",
"73 319 LINE",
"181 201 OFFCURVE",
"319 99 OFFCURVE",
"493 9 CURVE"
);
},
{
closed = 1;
nodes = (
"506 0 LINE",
"532 75 LINE",
"400 68 LINE",
"400 68 OFFCURVE",
"344 75 OFFCURVE",
"294 75 CURVE SMOOTH",
"0 75 LINE",
"0 0 LINE"
);
}
);
width = 582;
},
{
anchors = (
{
name = bottom;
position = "{235, -70}";
},
{
name = top;
position = "{176, 480}";
}
);
associatedMasterId = "14EEE41F-D714-4243-A717-73445EE7DABA";
components = (
{
name = _connection.l;
}
);
layerId = "83EBC56B-4596-405E-AD2E-1AE36938D65F";
name = "Dec 4 19, 21:35";
paths = (
{
closed = 1;
nodes = (
"532 75 LINE",
"413 115 OFFCURVE",
"370 183 OFFCURVE",
"324 257 CURVE SMOOTH",
"287 316 OFFCURVE",
"245 384 OFFCURVE",
"146 384 CURVE SMOOTH",
"103 384 OFFCURVE",
"56 371 OFFCURVE",
"28 352 CURVE",
"84 254 LINE",
"49 273 LINE",
"66 295 OFFCURVE",
"104 309 OFFCURVE",
"144 309 CURVE SMOOTH",
"194 309 OFFCURVE",
"205 288 OFFCURVE",
"252 217 CURVE SMOOTH",
"329 101 OFFCURVE",
"367 52 OFFCURVE",
"505 4 CURVE"
);
},
{
closed = 1;
nodes = (
"506 0 LINE",
"532 75 LINE",
"380 68 LINE",
"380 68 OFFCURVE",
"324 75 OFFCURVE",
"274 75 CURVE SMOOTH",
"0 75 LINE",
"0 0 LINE"
);
}
);
width = 582;
},
{
anchors = (
{
name = bottom;
position = "{215, -70}";
},
{
name = top;
position = "{156, 450}";
}
);
associatedMasterId = "14EEE41F-D714-4243-A717-73445EE7DABA";
components = (
{
name = _connection.l;
}
);
layerId = "6AB96585-68A8-407B-B9C1-774F9BB468E2";
name = "Dec 18 19, 20:39";
paths = (
{
closed = 1;
nodes = (
"512 75 LINE",
"398 113 OFFCURVE",
"358 178 OFFCURVE",
"313 249 CURVE SMOOTH",
"277 306 OFFCURVE",
"237 371 OFFCURVE",
"142 371 CURVE SMOOTH",
"101 371 OFFCURVE",
"56 359 OFFCURVE",
"29 340 CURVE",
"86 244 LINE",
"52 261 LINE",
"63 283 OFFCURVE",
"109 296 OFFCURVE",
"138 296 CURVE SMOOTH",
"167 296 OFFCURVE",
"195 283 OFFCURVE",
"241 209 CURVE SMOOTH",
"314 92 OFFCURVE",
"372 41 OFFCURVE",
"485 4 CURVE"
);
},
{
closed = 1;
nodes = (
"486 0 LINE",
"512 75 LINE",
"370 68 LINE",
"370 68 OFFCURVE",
"314 75 OFFCURVE",
"264 75 CURVE SMOOTH",
"0 75 LINE",
"0 0 LINE"
);
}
);
width = 562;
},
{
anchors = (
{
name = bottom;
position = "{215, -70}";
},
{
name = top;
position = "{209, 541}";
}
);
associatedMasterId = "14EEE41F-D714-4243-A717-73445EE7DABA";
components = (
{
name = _connection.l;
}
);
layerId = "5FC48857-D5E1-4706-B04D-7E181CA7DBD1";
name = "Jan 19 20, 19:27";
paths = (
{
closed = 1;
nodes = (
"41 375 OFFCURVE",
"86 387 OFFCURVE",
"120 387 CURVE SMOOTH",
"165 387 OFFCURVE",
"189 364 OFFCURVE",
"239 263 CURVE SMOOTH",
"275 193 OFFCURVE",
"335 60 OFFCURVE",
"482 5 CURVE",
"512 75 LINE",
"401 117 OFFCURVE",
"353 222 OFFCURVE",
"315 297 CURVE SMOOTH",
"271 385 OFFCURVE",
"226 462 OFFCURVE",
"120 462 CURVE SMOOTH",
"61 462 OFFCURVE",
"-1 439 OFFCURVE",
"-22 431 CURVE",
"-23 479 LINE",
"40 324 LINE",
"-13 351 LINE"
);
},
{
closed = 1;
nodes = (
"486 0 LINE",
"512 75 LINE",
"360 68 LINE",
"360 68 OFFCURVE",
"304 75 OFFCURVE",
"254 75 CURVE SMOOTH",
"0 75 LINE",
"0 0 LINE"
);
}
);
width = 562;
},
{
anchors = (
{
name = bottom;
position = "{275, -96}";
},
{
name = top;
position = "{179, 558}";
}
);
associatedMasterId = "14EEE41F-D714-4243-A717-73445EE7DABA";
components = (
{
name = _connection.l;
}
);
layerId = "7B5BB32E-C3B3-47BF-B004-F63D210223A1";
name = "Feb 20 20, 20:27";
paths = (
{
closed = 1;
nodes = (
"572 75 LINE",
"461 117 OFFCURVE",
"413 222 OFFCURVE",
"375 297 CURVE SMOOTH",
"331 385 OFFCURVE",
"286 462 OFFCURVE",
"180 462 CURVE SMOOTH",
"121 462 OFFCURVE",
"59 439 OFFCURVE",
"38 431 CURVE",
"42 480 LINE",
"76 317 LINE",
"38 356 LINE",
"59 364 OFFCURVE",
"123 387 OFFCURVE",
"176 387 CURVE SMOOTH",
"226 387 OFFCURVE",
"249 364 OFFCURVE",
"299 263 CURVE SMOOTH",
"340 181 OFFCURVE",
"401 58 OFFCURVE",
"542 5 CURVE"
);
},
{
closed = 1;
nodes = (
"546 0 LINE",
"572 75 LINE",
"440 68 LINE",
"440 68 OFFCURVE",
"384 75 OFFCURVE",
"334 75 CURVE SMOOTH",
"0 75 LINE",
"0 0 LINE"
);
}
);
width = 622;
},
{
anchors = (
{
name = bottom;
position = "{255, -96}";
},
{
name = top;
position = "{229, 509}";
}
);
components = (
{
name = _connection.l;
}
);
layerId = "090CB6A0-BE7C-4D17-A551-206C7456A8A3";
paths = (
{
closed = 1;
nodes = (
"621 113 LINE",
"427 153 OFFCURVE",
"250 300 OFFCURVE",
"165 406 CURVE",
"158 406 LINE",
"62 329 LINE",
"191 177 OFFCURVE",
"405 50 OFFCURVE",
"594 13 CURVE"
);
},
{
closed = 1;
nodes = (
"616 0 LINE",
"650 112 LINE",
"650 119 LINE",
"449 119 LINE",
"355 112 LINE",
"355 112 OFFCURVE",
"267 119 OFFCURVE",
"188 119 CURVE SMOOTH",
"0 119 LINE",
"0 0 LINE"
);
}
);
width = 705;
},
{
anchors = (
{
name = bottom;
position = "{275, -96}";
},
{
name = top;
position = "{179, 558}";
}
);
associatedMasterId = "090CB6A0-BE7C-4D17-A551-206C7456A8A3";
components = (
{
name = _connection.l;
}
);
layerId = "5FCBCF1B-6561-4145-837A-0E80DF146DC1";
name = "Mar 24 20, 16:44";
paths = (
{
closed = 1;
nodes = (
"572 75 LINE",
"461 117 OFFCURVE",
"413 222 OFFCURVE",
"375 297 CURVE SMOOTH",
"331 385 OFFCURVE",
"286 462 OFFCURVE",
"180 462 CURVE SMOOTH",
"109 462 OFFCURVE",
"33 429 OFFCURVE",
"31 428 CURVE",
"42 480 LINE",
"76 317 LINE",
"70 324 LINE",
"77 325 OFFCURVE",
"136 352 OFFCURVE",
"180 352 CURVE SMOOTH",
"203 352 OFFCURVE",
"217 339 OFFCURVE",
"263 248 CURVE SMOOTH",
"340 96 OFFCURVE",
"402 20 OFFCURVE",
"528 -28 CURVE"
);
},
{
closed = 1;
nodes = (
"546 0 LINE",
"521 67 LINE",
"407 100 LINE",
"407 100 OFFCURVE",
"317 110 OFFCURVE",
"317 110 CURVE",
"0 110 LINE",
"0 0 LINE"
);
}
);
width = 600;
},
{
anchors = (
{
name = bottom;
position = "{275, -96}";
},
{
name = top;
position = "{179, 575}";
}
);
associatedMasterId = "090CB6A0-BE7C-4D17-A551-206C7456A8A3";
components = (
{
name = _connection.l;
}
);
layerId = "41DAA8BE-BB55-415F-B08C-9E0DDD4E43ED";
name = "Mar 24 20, 16:54";
paths = (
{
closed = 1;
nodes = (
"584 110 LINE",
"470 148 OFFCURVE",
"421 244 OFFCURVE",
"382 312 CURVE SMOOTH",
"337 392 OFFCURVE",
"291 462 OFFCURVE",
"183 462 CURVE SMOOTH",
"122 462 OFFCURVE",
"49 439 OFFCURVE",
"10 423 CURVE",
"42 479 LINE",
"82 286 LINE",
"10 313 LINE",
"49 329 OFFCURVE",
"111 352 OFFCURVE",
"163 352 CURVE SMOOTH",
"218 352 OFFCURVE",
"231 326 OFFCURVE",
"273 258 CURVE SMOOTH",
"355 123 OFFCURVE",
"406 65 OFFCURVE",
"551 14 CURVE"
);
},
{
closed = 1;
nodes = (
"546 0 LINE",
"584 110 LINE",
"407 100 LINE",
"407 100 OFFCURVE",
"317 110 OFFCURVE",
"317 110 CURVE",
"0 110 LINE",
"0 0 LINE"
);
}
);
width = 600;
},
{
anchors = (
{
name = bottom;
position = "{275, -96}";
},
{
name = top;
position = "{179, 575}";
}
);
associatedMasterId = "090CB6A0-BE7C-4D17-A551-206C7456A8A3";
components = (
{
name = _connection.l;
}
);
layerId = "1DF46778-A1D8-497C-821C-14001D6E4BEA";
name = "Mar 24 20, 17:06";
paths = (
{
closed = 1;
nodes = (
"572 75 LINE",
"461 117 OFFCURVE",
"413 222 OFFCURVE",
"375 297 CURVE SMOOTH",
"331 385 OFFCURVE",
"286 462 OFFCURVE",
"180 462 CURVE SMOOTH",
"109 462 OFFCURVE",
"33 429 OFFCURVE",
"31 428 CURVE",
"42 480 LINE",
"76 317 LINE",
"48 330 LINE",
"50 331 OFFCURVE",
"112 352 OFFCURVE",
"159 352 CURVE SMOOTH",
"208 352 OFFCURVE",
"221 322 OFFCURVE",
"263 248 CURVE SMOOTH",
"347 101 OFFCURVE",
"380 66 OFFCURVE",
"546 0 CURVE"
);
},
{
closed = 1;
nodes = (
"546 0 LINE",
"501 67 LINE",
"387 100 LINE",
"387 100 OFFCURVE",
"297 110 OFFCURVE",
"297 110 CURVE",
"0 110 LINE",
"0 0 LINE"
);
}
);
width = 622;
},
{
anchors = (
{
name = bottom;
position = "{275, -96}";
},
{
name = top;
position = "{179, 575}";
}
);
associatedMasterId = "090CB6A0-BE7C-4D17-A551-206C7456A8A3";
components = (
{
name = _connection.l;
}
);
layerId = "57E27531-E453-4EED-9942-49D40EF31314";
name = "Mar 25 20, 18:43";
paths = (
{
closed = 1;
nodes = (
"584 110 LINE",
"470 148 OFFCURVE",
"421 244 OFFCURVE",
"382 312 CURVE SMOOTH",
"337 392 OFFCURVE",
"291 462 OFFCURVE",
"183 462 CURVE SMOOTH",
"122 462 OFFCURVE",
"49 439 OFFCURVE",
"10 423 CURVE",
"42 479 LINE",
"82 286 LINE",
"10 313 LINE",
"49 329 OFFCURVE",
"111 352 OFFCURVE",
"163 352 CURVE SMOOTH",
"218 352 OFFCURVE",
"231 326 OFFCURVE",
"273 258 CURVE SMOOTH",
"355 123 OFFCURVE",
"406 66 OFFCURVE",
"551 15 CURVE"
);
},
{
closed = 1;
nodes = (
"546 0 LINE",
"584 110 LINE",
"407 100 LINE",
"407 100 OFFCURVE",
"317 110 OFFCURVE",
"317 110 CURVE",
"0 110 LINE",
"0 0 LINE"
);
}
);
width = 634;
},
{
anchors = (
{
name = bottom;
position = "{275, -96}";
},
{
name = top;
position = "{179, 575}";
}
);
associatedMasterId = "090CB6A0-BE7C-4D17-A551-206C7456A8A3";
components = (
{
name = _connection.l;
}
);
layerId = "8620F167-B9C8-4BC7-93D8-9F6E3918135A";
name = "Mar 25 20, 18:45";
paths = (
{
closed = 1;
nodes = (
"84 326 OFFCURVE",
"143 343 OFFCURVE",
"183 343 CURVE SMOOTH",
"210 343 OFFCURVE",
"218 337 OFFCURVE",
"266 255 CURVE SMOOTH",
"348 116 OFFCURVE",
"413 48 OFFCURVE",
"542 6 CURVE",
"584 119 LINE",
"470 156 OFFCURVE",
"421 250 OFFCURVE",
"382 316 CURVE SMOOTH",
"337 394 OFFCURVE",
"291 462 OFFCURVE",
"183 462 CURVE SMOOTH",
"112 462 OFFCURVE",
"24 432 OFFCURVE",
"-7 417 CURVE",
"42 480 LINE",
"76 317 LINE",
"29 300 LINE"
);
},
{
closed = 1;
nodes = (
"546 0 LINE",
"584 119 LINE",
"407 109 LINE",
"407 109 OFFCURVE",
"317 119 OFFCURVE",
"317 119 CURVE",
"0 119 LINE",
"0 0 LINE"
);
}
);
width = 634;
},
{
anchors = (
{
name = bottom;
position = "{275, -96}";
},
{
name = top;
position = "{179, 558}";
}
);
associatedMasterId = "14EEE41F-D714-4243-A717-73445EE7DABA";
components = (
{
name = _connection.l;
}
);
layerId = "BF56962C-8897-47B8-9829-32A236669330";
name = "Sep 26 22, 12:33";
paths = (
{
closed = 1;
nodes = (
"572 75 LINE",
"461 117 OFFCURVE",
"413 222 OFFCURVE",
"375 297 CURVE SMOOTH",
"331 385 OFFCURVE",
"286 462 OFFCURVE",
"180 462 CURVE SMOOTH",
"121 462 OFFCURVE",
"59 439 OFFCURVE",
"38 431 CURVE",
"42 480 LINE",
"76 317 LINE",
"38 356 LINE",
"59 364 OFFCURVE",
"123 387 OFFCURVE",
"176 387 CURVE SMOOTH",
"226 387 OFFCURVE",
"249 364 OFFCURVE",
"299 263 CURVE SMOOTH",
"340 181 OFFCURVE",
"401 58 OFFCURVE",
"542 5 CURVE"
);
},
{
closed = 1;
nodes = (
"546 0 LINE",
"572 75 LINE",
"440 68 LINE",
"440 68 OFFCURVE",
"384 75 OFFCURVE",
"334 75 CURVE SMOOTH",
"0 75 LINE",
"0 0 LINE"
);
}
);
width = 622;
},
{
anchors = (
{
name = bottom;
position = "{295, -96}";
},
{
name = top;
position = "{199, 558}";
}
);
associatedMasterId = "14EEE41F-D714-4243-A717-73445EE7DABA";
components = (
{
name = _connection.l;
}
);
layerId = "C272F172-A189-407E-854C-AD6C2F841625";
name = "Sep 26 22, 12:39";
paths = (
{
closed = 1;
nodes = (
"185 172 OFFCURVE",
"384 53 OFFCURVE",
"551 0 CURVE",
"576 72 LINE",
"397 128 OFFCURVE",
"219 261 OFFCURVE",
"135 367 CURVE",
"68 320 LINE"
);
},
{
closed = 1;
nodes = (
"596 0 LINE",
"622 75 LINE",
"395 68 LINE",
"395 68 OFFCURVE",
"339 75 OFFCURVE",
"289 75 CURVE SMOOTH",
"0 75 LINE",
"0 0 LINE"
);
}
);
width = 652;
},
{
anchors = (
{
name = bottom;
position = "{295, -96}";
},
{
name = top;
position = "{199, 558}";
}
);
associatedMasterId = "14EEE41F-D714-4243-A717-73445EE7DABA";
components = (
{
name = _connection.l;
}
);
layerId = "F412821F-440D-436C-88B4-0702C30B881F";
name = "Sep 26 22, 15:06";
paths = (
{
closed = 1;
nodes = (
"596 0 LINE",
"622 85 LINE",
"489 85 LINE",
"395 78 LINE",
"395 78 OFFCURVE",
"339 85 OFFCURVE",
"289 85 CURVE SMOOTH",
"0 85 LINE",
"0 0 LINE"
);
},
{
closed = 1;
nodes = (
"191 167 OFFCURVE",
"395 37 OFFCURVE",
"574 1 CURVE",
"591 74 LINE",
"397 114 OFFCURVE",
"219 262 OFFCURVE",
"135 367 CURVE",
"69 320 LINE"
);
}
);
width = 652;
},
{
anchors = (
{
name = bottom;
position = "{245, -96}";
},
{
name = top;
position = "{149, 465}";
}
);
components = (
{
name = _connection.l;
}
);
layerId = "3114FB65-9464-41A5-B67E-A8F9F43C0EF1";
paths = (
{
closed = 1;
nodes = (
"541 24 LINE",
"347 70 OFFCURVE",
"169 241 OFFCURVE",
"85 362 CURVE",
"78 362 LINE",
"59 347 LINE",
"139 230 OFFCURVE",
"311 64 OFFCURVE",
"500 4 CURVE"
);
},
{
closed = 1;
nodes = (
"546 0 LINE",
"553 23 LINE",
"553 30 LINE",
"494 30 LINE",
"460 23 LINE",
"460 23 OFFCURVE",
"344 30 OFFCURVE",
"239 30 CURVE SMOOTH",
"0 30 LINE",
"0 0 LINE"
);
}
);
width = 618;
},
{
anchors = (
{
name = bottom;
position = "{275, -96}";
},
{
name = top;
position = "{179, 575}";
}
);
associatedMasterId = "090CB6A0-BE7C-4D17-A551-206C7456A8A3";
components = (
{
name = _connection.l;
}
);
layerId = "CD8D2110-9E43-45A8-A40E-B72B2CA36DCC";
name = "Oct 7 22, 13:55";
paths = (
{
closed = 1;
nodes = (
"584 119 LINE",
"470 156 OFFCURVE",
"421 250 OFFCURVE",
"382 316 CURVE SMOOTH",
"337 394 OFFCURVE",
"291 462 OFFCURVE",
"183 462 CURVE SMOOTH",
"112 462 OFFCURVE",
"24 432 OFFCURVE",
"-7 417 CURVE",
"42 480 LINE",
"76 317 LINE",
"2 304 LINE",
"28 315 OFFCURVE",
"106 343 OFFCURVE",
"164 343 CURVE SMOOTH",
"211 343 OFFCURVE",
"222 324 OFFCURVE",
"266 255 CURVE SMOOTH",
"351 122 OFFCURVE",
"395 72 OFFCURVE",
"552 19 CURVE"
);
},
{
closed = 1;
nodes = (
"546 0 LINE",
"584 119 LINE",
"407 109 LINE",
"407 109 OFFCURVE",
"317 119 OFFCURVE",
"317 119 CURVE",
"0 119 LINE",
"0 0 LINE"
);
}
);
width = 634;
}
);
leftMetricsKey = "=-20";
rightMetricsKey = "=hah-ar";
},
{
glyphname = "dal-ar";
layers = (
{
anchors = (
{
name = bottom;
position = "{269, -96}";
},
{
name = top;
position = "{203, 362}";
}
);
layerId = "14EEE41F-D714-4243-A717-73445EE7DABA";
paths = (
{
closed = 1;
nodes = (
"479 97 LINE",
"479 194 OFFCURVE",
"395 266 OFFCURVE",
"293 266 CURVE SMOOTH",
"151 266 LINE",
"143 202 LINE",
"143 191 LINE",
"293 191 LINE SMOOTH",
"357 191 OFFCURVE",
"404 149 OFFCURVE",
"404 97 CURVE"
);
},
{
closed = 1;
nodes = (
"419 0 LINE",
"419 68 LINE",
"419 68 OFFCURVE",
"363 75 OFFCURVE",
"313 75 CURVE SMOOTH",
"62 75 LINE",
"62 0 LINE"
);
},
{
closed = 1;
nodes = (
"472 0 LINE",
"487 14 LINE",
"484 30 OFFCURVE",
"479 53 OFFCURVE",
"479 97 CURVE",
"404 97 LINE",
"404 46 OFFCURVE",
"410 17 OFFCURVE",
"413 0 CURVE"
);
},
{
closed = 1;
nodes = (
"25 6 LINE",
"28 0 LINE",
"180 0 LINE",
"180 75 LINE",
"62 75 LINE"
);
},
{
closed = 1;
nodes = (
"108 197 LINE",
"111 191 LINE",
"263 191 LINE",
"263 266 LINE",
"145 266 LINE"
);
}
);
width = 542;
},
{
associatedMasterId = "14EEE41F-D714-4243-A717-73445EE7DABA";
layerId = "876D89D8-D3A0-4A6B-8B30-10D1559EEAF1";
name = "Nov 20 19, 17:23";
paths = (
{
closed = 1;
nodes = (
"478 0 LINE",
"493 14 LINE",
"487 95 OFFCURVE",
"477 166 OFFCURVE",
"478 237 CURVE",
"478 448 LINE",
"393 448 LINE",
"393 135 LINE",
"406 42 LINE",
"402 0 LINE"
);
},
{
closed = 1;
nodes = (
"413 67 LINE",
"307 75 LINE",
"277 75 LINE",
"277 0 LINE",
"413 0 LINE"
);
}
);
width = 600;
},
{
associatedMasterId = "14EEE41F-D714-4243-A717-73445EE7DABA";
layerId = "439A7709-CB3C-4788-82A5-36CE76874C5E";
name = "Nov 20 19, 17:23";
paths = (
{
closed = 1;
nodes = (
"477 181 LINE",
"477 359 OFFCURVE",
"375 466 OFFCURVE",
"206 466 CURVE SMOOTH",
"158 466 OFFCURVE",
"106 457 OFFCURVE",
"67 442 CURVE",
"97 372 LINE",
"131 385 OFFCURVE",
"168 391 OFFCURVE",
"206 391 CURVE SMOOTH",
"344 391 OFFCURVE",
"392 297 OFFCURVE",
"392 181 CURVE"
);
},
{
closed = 1;
nodes = (
"412 0 LINE",
"412 67 LINE",
"306 75 LINE",
"49 75 LINE",
"49 0 LINE"
);
},
{
closed = 1;
nodes = (
"477 0 LINE",
"492 14 LINE",
"486 74 OFFCURVE",
"476 133 OFFCURVE",
"477 181 CURVE",
"392 233 LINE",
"392 135 LINE",
"405 42 LINE",
"401 0 LINE"
);
}
);
width = 600;
},
{
anchors = (
{
name = bottom;
position = "{272, -70}";
},
{
name = top;
position = "{207, 460}";
}
);
associatedMasterId = "14EEE41F-D714-4243-A717-73445EE7DABA";
layerId = "25422D74-C223-44EC-81E3-8BE53722F956";
name = "Nov 21 19, 17:51";
paths = (
{
closed = 1;
nodes = (
"413 0 LINE",
"413 67 LINE",
"307 75 LINE",
"50 75 LINE",
"50 0 LINE"
);
},
{
closed = 1;
nodes = (
"478 0 LINE",
"493 11 LINE",
"487 72 OFFCURVE",
"477 127 OFFCURVE",
"478 181 CURVE",
"393 181 LINE",
"393 103 LINE",
"406 32 LINE",
"402 0 LINE"
);
},
{
closed = 1;
nodes = (
"126 318 OFFCURVE",
"167 323 OFFCURVE",
"207 323 CURVE SMOOTH",
"332 323 OFFCURVE",
"393 273 OFFCURVE",
"393 181 CURVE",
"478 181 LINE",
"478 317 OFFCURVE",
"376 398 OFFCURVE",
"207 398 CURVE SMOOTH",
"159 398 OFFCURVE",
"107 391 OFFCURVE",
"68 380 CURVE",
"91 308 LINE"
);
}
);
width = 543;
},
{
anchors = (
{
name = bottom;
position = "{272, -70}";
},
{
name = top;
position = "{207, 480}";
}
);
associatedMasterId = "14EEE41F-D714-4243-A717-73445EE7DABA";
layerId = "F3951865-EBF7-4784-82E4-F4AE0B217F8E";
name = "Dec 4 19, 16:42";
paths = (
{
closed = 1;
nodes = (
"478 181 LINE",
"478 317 OFFCURVE",
"376 398 OFFCURVE",
"207 398 CURVE",
"91 398 LINE",
"91 323 LINE",
"207 323 LINE",
"332 323 OFFCURVE",
"393 273 OFFCURVE",
"393 181 CURVE"
);
},
{
closed = 1;
nodes = (
"413 0 LINE",
"413 67 LINE",
"307 75 LINE",
"50 75 LINE",
"50 0 LINE"
);
},
{
closed = 1;
nodes = (
"478 0 LINE",
"493 14 LINE",
"487 74 OFFCURVE",
"477 128 OFFCURVE",
"478 181 CURVE",
"393 181 LINE",
"393 103 LINE",
"406 32 LINE",
"402 0 LINE"
);
}
);
width = 543;
},
{
anchors = (
{
name = bottom;
position = "{272, -70}";
},
{
name = top;
position = "{207, 480}";
}
);
associatedMasterId = "14EEE41F-D714-4243-A717-73445EE7DABA";
layerId = "45E66D50-F740-4EB7-BFDF-19C9738CD8FA";
name = "Dec 4 19, 16:50";
paths = (
{
closed = 1;
nodes = (
"481 227 LINE",
"481 334 OFFCURVE",
"397 378 OFFCURVE",
"310 398 CURVE",
"161 398 LINE",
"152 323 LINE",
"299 323 LINE",
"370 305 OFFCURVE",
"396 277 OFFCURVE",
"396 227 CURVE"
);
},
{
closed = 1;
nodes = (
"478 0 LINE",
"493 14 LINE",
"489 39 OFFCURVE",
"481 178 OFFCURVE",
"481 227 CURVE",
"396 227 LINE",
"396 161 OFFCURVE",
"411 0 OFFCURVE",
"411 0 CURVE"
);
},
{
closed = 1;
nodes = (
"413 0 LINE",
"413 68 LINE",
"413 68 OFFCURVE",
"357 75 OFFCURVE",
"307 75 CURVE SMOOTH",
"110 75 LINE",
"111 0 LINE"
);
}
);
width = 543;
},
{
anchors = (
{
name = bottom;
position = "{272, -70}";
},
{
name = top;
position = "{207, 480}";
}
);
associatedMasterId = "14EEE41F-D714-4243-A717-73445EE7DABA";
layerId = "B11DAB0B-9975-4052-AC27-01ACC58CA024";
name = "Dec 4 19, 16:52";
paths = (
{
closed = 1;
nodes = (
"481 227 LINE",
"481 334 OFFCURVE",
"397 378 OFFCURVE",
"310 398 CURVE",
"161 398 LINE",
"152 323 LINE",
"299 323 LINE",
"370 305 OFFCURVE",
"396 277 OFFCURVE",
"396 227 CURVE"
);
},
{
closed = 1;
nodes = (
"478 0 LINE",
"493 14 LINE",
"489 39 OFFCURVE",
"481 178 OFFCURVE",
"481 227 CURVE",
"396 227 LINE",
"396 161 OFFCURVE",
"411 0 OFFCURVE",
"411 0 CURVE"
);
},
{
closed = 1;
nodes = (
"413 0 LINE",
"413 68 LINE",
"413 68 OFFCURVE",
"357 75 OFFCURVE",
"307 75 CURVE SMOOTH",
"110 75 LINE",
"111 0 LINE"
);
}
);
width = 543;
},
{
anchors = (
{
name = bottom;
position = "{272, -70}";
},
{
name = top;
position = "{177, 480}";
}
);
associatedMasterId = "14EEE41F-D714-4243-A717-73445EE7DABA";
layerId = "7301A6C7-DD62-48F9-A740-D2C4566E21CB";
name = "Dec 5 19, 16:47";
paths = (
{
closed = 1;
nodes = (
"481 181 LINE",
"481 317 OFFCURVE",
"379 398 OFFCURVE",
"210 398 CURVE",
"124 398 LINE",
"114 323 LINE",
"210 323 LINE",
"335 323 OFFCURVE",
"396 273 OFFCURVE",
"396 181 CURVE"
);
},
{
closed = 1;
nodes = (
"416 0 LINE",
"416 68 LINE",
"416 68 OFFCURVE",
"360 75 OFFCURVE",
"310 75 CURVE SMOOTH",
"73 75 LINE",
"73 0 LINE"
);
},
{
closed = 1;
nodes = (
"478 0 LINE",
"493 14 LINE",
"489 34 OFFCURVE",
"481 142 OFFCURVE",
"481 181 CURVE",
"396 181 LINE",
"396 142 OFFCURVE",
"404 34 OFFCURVE",
"408 14 CURVE",
"411 0 LINE"
);
}
);
width = 543;
},
{
anchors = (
{
name = bottom;
position = "{229, -70}";
},
{
name = top;
position = "{134, 394}";
}
);
associatedMasterId = "14EEE41F-D714-4243-A717-73445EE7DABA";
layerId = "EAA8DCD0-8986-4C9F-8E5E-738B74DF9EC5";
name = "Jan 20 20, 14:17";
paths = (
{
closed = 1;
nodes = (
"438 95 LINE",
"438 231 OFFCURVE",
"336 312 OFFCURVE",
"167 312 CURVE",
"111 312 LINE",
"101 237 LINE",
"167 237 LINE",
"292 237 OFFCURVE",
"353 187 OFFCURVE",
"353 95 CURVE"
);
},
{
closed = 1;
nodes = (
"373 0 LINE",
"373 68 LINE",
"373 68 OFFCURVE",
"317 75 OFFCURVE",
"267 75 CURVE SMOOTH",
"60 75 LINE",
"60 0 LINE"
);
},
{
closed = 1;
nodes = (
"429 0 LINE",
"444 14 LINE",
"440 34 OFFCURVE",
"438 56 OFFCURVE",
"438 95 CURVE",
"353 95 LINE",
"353 56 OFFCURVE",
"355 34 OFFCURVE",
"359 14 CURVE",
"362 0 LINE"
);
}
);
width = 500;
},
{
anchors = (
{
name = bottom;
position = "{229, -70}";
},
{
name = top;
position = "{134, 394}";
}
);
associatedMasterId = "14EEE41F-D714-4243-A717-73445EE7DABA";
layerId = "A5C86EB1-63EC-423B-A95E-300D5EFA9F12";
name = "Jan 20 20, 14:20";
paths = (
{
closed = 1;
nodes = (
"438 95 LINE",
"438 231 OFFCURVE",
"336 312 OFFCURVE",
"167 312 CURVE",
"111 312 LINE",
"101 237 LINE",
"167 237 LINE",
"292 237 OFFCURVE",
"353 187 OFFCURVE",
"353 95 CURVE"
);
},
{
closed = 1;
nodes = (
"373 0 LINE",
"373 68 LINE",
"373 68 OFFCURVE",
"317 75 OFFCURVE",
"267 75 CURVE SMOOTH",
"60 75 LINE",
"60 0 LINE"
);
},
{
closed = 1;
nodes = (
"583 0 LINE",
"598 14 LINE",
"594 34 OFFCURVE",
"592 56 OFFCURVE",
"592 95 CURVE",
"507 95 LINE",
"507 56 OFFCURVE",
"509 34 OFFCURVE",
"513 14 CURVE",
"516 0 LINE"
);
},
{
closed = 0;
nodes = (
"444 14 LINE",
"407 83 OFFCURVE",
"422 370 OFFCURVE",
"197 370 CURVE SMOOTH",
"159 370 OFFCURVE",
"130 362 OFFCURVE",
"111 356 CURVE"
);
},
{
closed = 1;
nodes = (
"429 0 LINE",
"444 14 LINE",
"440 34 OFFCURVE",
"438 56 OFFCURVE",
"438 95 CURVE",
"353 95 LINE",
"353 56 OFFCURVE",
"355 34 OFFCURVE",
"359 14 CURVE",
"362 0 LINE"
);
}
);
width = 500;
},
{
anchors = (
{
name = bottom;
position = "{229, -70}";
},
{
name = top;
position = "{134, 394}";
}
);
associatedMasterId = "14EEE41F-D714-4243-A717-73445EE7DABA";
layerId = "ECBE0C57-E6B2-4EDE-B6AC-23EF35A42812";
name = "Jan 20 20, 14:24";
paths = (
{
closed = 1;
nodes = (
"376 0 LINE",
"353 68 LINE",
"353 68 OFFCURVE",
"297 75 OFFCURVE",
"247 75 CURVE SMOOTH",
"60 75 LINE",
"60 0 LINE"
);
},
{
closed = 1;
nodes = (
"583 0 LINE",
"598 14 LINE",
"594 34 OFFCURVE",
"592 56 OFFCURVE",
"592 95 CURVE",
"507 95 LINE",
"507 56 OFFCURVE",
"509 34 OFFCURVE",
"513 14 CURVE SMOOTH",
"516 0 LINE"
);
},
{
closed = 1;
nodes = (
"342 0 LINE",
"429 0 LINE",
"444 14 LINE",
"435 31 OFFCURVE",
"429 60 OFFCURVE",
"422 96 CURVE SMOOTH",
"401 206 OFFCURVE",
"367 370 OFFCURVE",
"197 370 CURVE SMOOTH",
"101 370 LINE",
"91 295 LINE",
"197 295 LINE SMOOTH",
"274 295 OFFCURVE",
"308 242 OFFCURVE",
"339 82 CURVE SMOOTH",
"348 35 OFFCURVE",
"355 5 OFFCURVE",
"369 -21 CURVE"
);
}
);
width = 500;
},
{
anchors = (
{
name = bottom;
position = "{315, -96}";
},
{
name = top;
position = "{219, 436}";
}
);
layerId = "090CB6A0-BE7C-4D17-A551-206C7456A8A3";
paths = (
{
closed = 1;
nodes = (
"555 127 LINE",
"555 252 OFFCURVE",
"439 340 OFFCURVE",
"309 340 CURVE SMOOTH",
"180 340 LINE",
"166 232 LINE",
"166 221 LINE",
"309 221 LINE SMOOTH",
"373 221 OFFCURVE",
"420 179 OFFCURVE",
"420 127 CURVE"
);
},
{
closed = 1;
nodes = (
"435 0 LINE",
"435 112 LINE",
"435 112 OFFCURVE",
"379 119 OFFCURVE",
"329 119 CURVE SMOOTH",
"78 119 LINE",
"78 0 LINE"
);
},
{
closed = 1;
nodes = (
"551 0 LINE",
"566 14 LINE",
"561 45 OFFCURVE",
"555 89 OFFCURVE",
"555 127 CURVE",
"420 127 LINE",
"420 92 OFFCURVE",
"425 45 OFFCURVE",
"432 0 CURVE"
);
},
{
closed = 1;
nodes = (
"20 9 LINE",
"25 0 LINE",
"247 0 LINE",
"247 119 LINE",
"78 119 LINE"
);
},
{
closed = 1;
nodes = (
"122 230 LINE",
"127 221 LINE",
"299 221 LINE",
"299 340 LINE",
"180 340 LINE"
);
}
);
width = 616;
},
{
anchors = (
{
name = bottom;
position = "{229, -96}";
},
{
name = top;
position = "{183, 524}";
}
);
associatedMasterId = "090CB6A0-BE7C-4D17-A551-206C7456A8A3";
layerId = "D9D3A9F0-0BA1-467B-A52C-224055F87CC3";
name = "Mar 25 20, 15:30";
paths = (
{
closed = 1;
nodes = (
"438 153 LINE",
"438 325 OFFCURVE",
"336 428 OFFCURVE",
"167 428 CURVE SMOOTH",
"91 428 LINE",
"81 353 LINE",
"167 353 LINE SMOOTH",
"288 353 OFFCURVE",
"353 284 OFFCURVE",
"353 153 CURVE"
);
},
{
closed = 1;
nodes = (
"429 0 LINE",
"444 14 LINE",
"440 34 OFFCURVE",
"438 88 OFFCURVE",
"438 153 CURVE",
"353 153 LINE",
"353 114 OFFCURVE",
"355 34 OFFCURVE",
"359 14 CURVE SMOOTH",
"362 0 LINE"
);
},
{
closed = 1;
nodes = (
"363 0 LINE",
"363 100 LINE",
"363 100 OFFCURVE",
"273 110 OFFCURVE",
"273 110 CURVE SMOOTH",
"50 110 LINE",
"50 0 LINE"
);
},
{
closed = 0;
nodes = (
"448 153 LINE",
"448 88 OFFCURVE",
"450 34 OFFCURVE",
"454 14 CURVE",
"439 0 LINE"
);
}
);
width = 600;
},
{
anchors = (
{
name = bottom;
position = "{229, -96}";
},
{
name = top;
position = "{183, 524}";
}
);
associatedMasterId = "14EEE41F-D714-4243-A717-73445EE7DABA";
layerId = "4BC93A9F-9FA2-441B-96EB-FCD6C919C4B1";
name = "Sep 26 22, 12:45";
paths = (
{
closed = 1;
nodes = (
"438 153 LINE",
"438 325 OFFCURVE",
"336 428 OFFCURVE",
"167 428 CURVE SMOOTH",
"91 428 LINE",
"81 353 LINE",
"167 353 LINE SMOOTH",
"288 353 OFFCURVE",
"353 284 OFFCURVE",
"353 153 CURVE"
);
},
{
closed = 1;
nodes = (
"363 0 LINE",
"363 68 LINE",
"363 68 OFFCURVE",
"307 75 OFFCURVE",
"257 75 CURVE SMOOTH",
"50 75 LINE",
"50 0 LINE"
);
},
{
closed = 1;
nodes = (
"429 0 LINE",
"444 14 LINE",
"440 34 OFFCURVE",
"438 114 OFFCURVE",
"438 153 CURVE",
"353 153 LINE",
"353 114 OFFCURVE",
"355 34 OFFCURVE",
"359 14 CURVE SMOOTH",
"362 0 LINE"
);
}
);
width = 504;
},
{
anchors = (
{
name = bottom;
position = "{237, -96}";
},
{
name = top;
position = "{191, 428}";
}
);
associatedMasterId = "14EEE41F-D714-4243-A717-73445EE7DABA";
layerId = "811DA926-2EF8-4D30-8016-ECB1F567AF2B";
name = "Sep 26 22, 15:20";
paths = (
{
closed = 1;
nodes = (
"397 0 LINE",
"397 68 LINE",
"397 68 OFFCURVE",
"341 75 OFFCURVE",
"291 75 CURVE SMOOTH",
"50 75 LINE",
"50 0 LINE"
);
},
{
closed = 1;
nodes = (
"460 0 LINE",
"475 14 LINE",
"472 30 OFFCURVE",
"467 53 OFFCURVE",
"467 97 CURVE",
"382 97 LINE",
"382 46 OFFCURVE",
"388 17 OFFCURVE",
"391 0 CURVE"
);
},
{
closed = 1;
nodes = (
"467 194 OFFCURVE",
"383 266 OFFCURVE",
"281 266 CURVE SMOOTH",
"91 266 LINE",
"81 191 LINE",
"281 191 LINE SMOOTH",
"351 191 OFFCURVE",
"382 138 OFFCURVE",
"382 97 CURVE",
"467 97 LINE"
);
}
);
width = 525;
},
{
anchors = (
{
name = bottom;
position = "{212, -96}";
},
{
name = top;
position = "{166, 428}";
}
);
associatedMasterId = "14EEE41F-D714-4243-A717-73445EE7DABA";
layerId = "063BA40C-D915-4C5B-9868-3699FF1DF96D";
name = "Sep 26 22, 19:18";
paths = (
{
closed = 1;
nodes = (
"382 0 LINE",
"382 78 LINE",
"382 78 OFFCURVE",
"326 85 OFFCURVE",
"276 85 CURVE SMOOTH",
"25 85 LINE",
"25 0 LINE"
);
},
{
closed = 1;
nodes = (
"435 0 LINE",
"450 14 LINE",
"447 30 OFFCURVE",
"442 53 OFFCURVE",
"442 97 CURVE",
"367 97 LINE",
"367 46 OFFCURVE",
"373 17 OFFCURVE",
"376 0 CURVE"
);
},
{
closed = 1;
nodes = (
"256 181 LINE SMOOTH",
"319 181 OFFCURVE",
"367 143 OFFCURVE",
"367 97 CURVE",
"442 97 LINE",
"442 194 OFFCURVE",
"358 266 OFFCURVE",
"256 266 CURVE SMOOTH",
"66 266 LINE",
"55 181 LINE"
);
}
);
width = 510;
},
{
anchors = (
{
name = bottom;
position = "{230, -96}";
},
{
name = top;
position = "{184, 362}";
}
);
layerId = "3114FB65-9464-41A5-B67E-A8F9F43C0EF1";
paths = (
{
closed = 1;
nodes = (
"417 97 LINE",
"417 194 OFFCURVE",
"333 266 OFFCURVE",
"231 266 CURVE SMOOTH",
"116 266 LINE",
"114 247 LINE",
"114 236 LINE",
"231 236 LINE SMOOTH",
"319 236 OFFCURVE",
"387 175 OFFCURVE",
"387 97 CURVE"
);
},
{
closed = 1;
nodes = (
"400 0 LINE",
"400 23 LINE",
"400 23 OFFCURVE",
"344 30 OFFCURVE",
"294 30 CURVE SMOOTH",
"43 30 LINE",
"43 0 LINE"
);
},
{
closed = 1;
nodes = (
"410 0 LINE",
"425 14 LINE",
"422 30 OFFCURVE",
"417 53 OFFCURVE",
"417 97 CURVE",
"387 97 LINE",
"387 46 OFFCURVE",
"393 17 OFFCURVE",
"396 0 CURVE"
);
},
{
closed = 1;
nodes = (
"30 6 LINE",
"33 0 LINE",
"145 0 LINE",
"145 30 LINE",
"43 30 LINE"
);
},
{
closed = 1;
nodes = (
"103 242 LINE",
"106 236 LINE",
"218 236 LINE",
"218 266 LINE",
"116 266 LINE"
);
}
);
width = 485;
},
{
anchors = (
{
name = bottom;
position = "{229, -96}";
},
{
name = top;
position = "{183, 541}";
}
);
associatedMasterId = "090CB6A0-BE7C-4D17-A551-206C7456A8A3";
layerId = "55E81CF9-4AA9-489C-BEE9-133DDF92B820";
name = "Oct 7 22, 14:50";
paths = (
{
closed = 1;
nodes = (
"488 153 LINE",
"488 325 OFFCURVE",
"386 428 OFFCURVE",
"217 428 CURVE SMOOTH",
"91 428 LINE",
"76 309 LINE",
"217 309 LINE SMOOTH",
"309 309 OFFCURVE",
"353 262 OFFCURVE",
"353 153 CURVE"
);
},
{
closed = 1;
nodes = (
"379 0 LINE",
"368 109 LINE",
"368 109 OFFCURVE",
"281 119 OFFCURVE",
"278 119 CURVE SMOOTH",
"50 119 LINE",
"50 0 LINE"
);
},
{
closed = 1;
nodes = (
"488 0 LINE",
"503 14 LINE",
"496 52 OFFCURVE",
"488 107 OFFCURVE",
"488 153 CURVE",
"353 153 LINE",
"353 114 OFFCURVE",
"358 64 OFFCURVE",
"365 15 CURVE",
"368 0 LINE"
);
}
);
width = 563;
},
{
anchors = (
{
name = bottom;
position = "{232, -96}";
},
{
name = top;
position = "{166, 362}";
}
);
associatedMasterId = "14EEE41F-D714-4243-A717-73445EE7DABA";
layerId = "BAFAC20F-00AB-4C2E-8678-FC3ACA32FAE8";
name = "Oct 23 22, 11:47";
paths = (
{
closed = 1;
nodes = (
"442 97 LINE",
"442 194 OFFCURVE",
"358 266 OFFCURVE",
"256 266 CURVE SMOOTH",
"66 266 LINE",
"58 202 LINE",
"58 191 LINE",
"256 191 LINE SMOOTH",
"320 191 OFFCURVE",
"367 149 OFFCURVE",
"367 97 CURVE"
);
},
{
closed = 1;
nodes = (
"382 0 LINE",
"382 68 LINE",
"382 68 OFFCURVE",
"326 75 OFFCURVE",
"276 75 CURVE SMOOTH",
"25 75 LINE",
"25 0 LINE"
);
},
{
closed = 1;
nodes = (
"435 0 LINE",
"450 14 LINE",
"447 30 OFFCURVE",
"442 53 OFFCURVE",
"442 97 CURVE",
"367 97 LINE",
"367 46 OFFCURVE",
"373 17 OFFCURVE",
"376 0 CURVE"
);
}
);
width = 505;
}
);
rightMetricsKey = "=behDotless-ar.init";
unicode = 062F;
},
{
glyphname = "dal-ar.fina";
layers = (
{
components = (
{
name = "dal-ar";
},
{
name = _connection.r;
transform = "{1, 0, 0, 1, 494, 0}";
}
);
layerId = "14EEE41F-D714-4243-A717-73445EE7DABA";
paths = (
{
closed = 1;
nodes = (
"544 0 LINE",
"544 75 LINE",
"446 75 LINE",
"446 0 LINE"
);
}
);
width = 544;
},
{
components = (
{
name = "dal-ar";
},
{
name = _connection.r;
transform = "{1, 0, 0, 1, 573, 0}";
}
);
layerId = "090CB6A0-BE7C-4D17-A551-206C7456A8A3";
paths = (
{
closed = 1;
nodes = (
"623 0 LINE",
"623 119 LINE",
"521 119 LINE",
"521 0 LINE"
);
}
);
width = 623;
},
{
components = (
{
name = "dal-ar";
},
{
name = _connection.r;
transform = "{1, 0, 0, 1, 423, 0}";
}
);
layerId = "3114FB65-9464-41A5-B67E-A8F9F43C0EF1";
paths = (
{
closed = 1;
nodes = (
"473 0 LINE",
"473 30 LINE",
"400 30 LINE",
"400 0 LINE"
);
}
);
width = 473;
}
);
leftMetricsKey = "=dal-ar";
rightMetricsKey = "=-20";
},
{
glyphname = "reh-ar";
layers = (
{
associatedMasterId = "14EEE41F-D714-4243-A717-73445EE7DABA";
layerId = "8F1B4277-C29B-49A4-94E9-D7F17EB9D19B";
name = "Nov 21 19, 17:57";
paths = (
{
closed = 1;
nodes = (
"300 0 LINE",
"389 0 LINE",
"389 465 LINE",
"300 446 LINE"
);
},
{
closed = 1;
nodes = (
"300 -54 OFFCURVE",
"287 -91 OFFCURVE",
"261 -136 CURVE",
"299 -97 LINE",
"254 -128 OFFCURVE",
"214 -143 OFFCURVE",
"153 -143 CURVE",
"153 -222 LINE",
"329 -222 OFFCURVE",
"389 -123 OFFCURVE",
"389 0 CURVE",
"300 0 LINE"
);
}
);
width = 600;
},
{
associatedMasterId = "14EEE41F-D714-4243-A717-73445EE7DABA";
layerId = "B8ECEB38-C54D-4E9F-AABA-951B5780E1CA";
name = "Nov 21 19, 18:01";
paths = (
{
closed = 1;
nodes = (
"304 0 LINE SMOOTH",
"304 -104 OFFCURVE",
"260 -147 OFFCURVE",
"153 -147 CURVE",
"153 -222 LINE",
"329 -222 OFFCURVE",
"389 -123 OFFCURVE",
"389 0 CURVE SMOOTH",
"389 398 LINE",
"304 398 LINE"
);
}
);
width = 600;
},
{
anchors = (
{
name = bottom;
position = "{164, -300}";
},
{
name = top;
position = "{215, 480}";
}
);
associatedMasterId = "14EEE41F-D714-4243-A717-73445EE7DABA";
layerId = "BF1E5A60-A99B-4820-8F06-82C0D1228394";
name = "Nov 21 19, 19:25";
paths = (
{
closed = 1;
nodes = (
"172 -56 OFFCURVE",
"159 -102 OFFCURVE",
"132 -150 CURVE",
"179 -100 LINE",
"132 -132 OFFCURVE",
"83 -147 OFFCURVE",
"20 -147 CURVE",
"21 -222 LINE",
"197 -222 OFFCURVE",
"257 -123 OFFCURVE",
"257 0 CURVE SMOOTH",
"257 398 LINE",
"172 398 LINE",
"172 0 LINE SMOOTH"
);
}
);
width = 327;
},
{
anchors = (
{
name = bottom;
position = "{164, -340}";
},
{
name = top;
position = "{215, 290}";
}
);
associatedMasterId = "14EEE41F-D714-4243-A717-73445EE7DABA";
layerId = "8E2AE4AE-C40B-4C99-84D2-19E6D4A510CB";
name = "Dec 4 19, 16:00";
paths = (
{
closed = 1;
nodes = (
"172 -95 OFFCURVE",
"159 -157 OFFCURVE",
"132 -205 CURVE",
"195 -139 LINE",
"148 -171 OFFCURVE",
"83 -186 OFFCURVE",
"20 -186 CURVE",
"21 -261 LINE",
"197 -261 OFFCURVE",
"257 -162 OFFCURVE",
"257 -39 CURVE SMOOTH",
"257 199 LINE",
"172 199 LINE",
"172 -39 LINE SMOOTH"
);
}
);
width = 327;
},
{
anchors = (
{
name = bottom;
position = "{164, -340}";
},
{
name = top;
position = "{215, 420}";
}
);
associatedMasterId = "14EEE41F-D714-4243-A717-73445EE7DABA";
layerId = "ABC51FA2-C18E-4B1F-8417-4A35408CE461";
name = "Dec 5 19, 16:42";
paths = (
{
closed = 1;
nodes = (
"-78 -250 LINE",
"-64 -258 OFFCURVE",
"-9 -261 OFFCURVE",
"15 -261 CURVE SMOOTH",
"193 -261 OFFCURVE",
"257 -135 OFFCURVE",
"257 64 CURVE SMOOTH",
"257 348 LINE",
"172 338 LINE",
"172 64 LINE SMOOTH",
"172 -43 OFFCURVE",
"153 -152 OFFCURVE",
"119 -190 CURVE",
"174 -106 LINE",
"149 -160 OFFCURVE",
"80 -186 OFFCURVE",
"15 -186 CURVE SMOOTH",
"-10 -186 OFFCURVE",
"-39 -184 OFFCURVE",
"-48 -181 CURVE",
"-76 -296 LINE"
);
}
);
width = 327;
},
{
anchors = (
{
name = bottom;
position = "{164, -340}";
},
{
name = top;
position = "{215, 420}";
}
);
associatedMasterId = "14EEE41F-D714-4243-A717-73445EE7DABA";
layerId = "7727E7D9-40FA-430B-A788-AF86F12E19FC";
name = "Dec 17 19, 19:34";
paths = (
{
closed = 1;
nodes = (
"-78 -250 LINE",
"-64 -258 OFFCURVE",
"-9 -261 OFFCURVE",
"15 -261 CURVE SMOOTH",
"193 -261 OFFCURVE",
"257 -135 OFFCURVE",
"257 64 CURVE SMOOTH",
"257 348 LINE",
"172 338 LINE",
"172 64 LINE SMOOTH",
"172 -43 OFFCURVE",
"153 -152 OFFCURVE",
"119 -190 CURVE",
"174 -106 LINE",
"149 -160 OFFCURVE",
"80 -186 OFFCURVE",
"15 -186 CURVE SMOOTH",
"-10 -186 OFFCURVE",
"-39 -184 OFFCURVE",
"-48 -181 CURVE",
"-76 -296 LINE"
);
}
);
width = 327;
},
{
anchors = (
{
name = bottom;
position = "{164, -340}";
},
{
name = top;
position = "{215, 420}";
}
);
associatedMasterId = "14EEE41F-D714-4243-A717-73445EE7DABA";
layerId = "16943DCF-286D-4175-90FF-0D4B50F95A45";
name = "Dec 17 19, 19:37";
paths = (
{
closed = 1;
nodes = (
"172 0 LINE SMOOTH",
"172 -135 OFFCURVE",
"139 -186 OFFCURVE",
"68 -186 CURVE SMOOTH",
"52 -186 OFFCURVE",
"33 -184 OFFCURVE",
"3 -178 CURVE",
"-12 -252 LINE",
"15 -257 OFFCURVE",
"43 -261 OFFCURVE",
"68 -261 CURVE SMOOTH",
"206 -261 OFFCURVE",
"257 -158 OFFCURVE",
"257 0 CURVE SMOOTH",
"257 348 LINE",
"172 348 LINE"
);
}
);
width = 327;
},
{
anchors = (
{
name = bottom;
position = "{144, -340}";
},
{
name = top;
position = "{195, 420}";
}
);
associatedMasterId = "14EEE41F-D714-4243-A717-73445EE7DABA";
layerId = "A8C2DA03-934C-4C09-853F-BBEE3987B1F2";
name = "Dec 18 19, 18:38";
paths = (
{
closed = 1;
nodes = (
"152 0 LINE SMOOTH",
"152 -90 OFFCURVE",
"136 -156 OFFCURVE",
"107 -182 CURVE",
"148 -125 LINE",
"128 -167 OFFCURVE",
"90 -186 OFFCURVE",
"48 -186 CURVE SMOOTH",
"32 -186 OFFCURVE",
"13 -184 OFFCURVE",
"-17 -178 CURVE",
"-32 -252 LINE",
"-5 -257 OFFCURVE",
"23 -261 OFFCURVE",
"48 -261 CURVE SMOOTH",
"186 -261 OFFCURVE",
"237 -158 OFFCURVE",
"237 0 CURVE SMOOTH",
"237 348 LINE",
"152 338 LINE"
);
}
);
width = 307;
},
{
anchors = (
{
name = bottom;
position = "{144, -270}";
},
{
name = top;
position = "{195, 420}";
}
);
associatedMasterId = "14EEE41F-D714-4243-A717-73445EE7DABA";
layerId = "9510ED43-FBD5-4A01-9B0B-D4044B0FE151";
name = "Dec 19 19, 13:26";
paths = (
{
closed = 1;
nodes = (
"186 -200 OFFCURVE",
"237 -108 OFFCURVE",
"237 35 CURVE SMOOTH",
"237 348 LINE",
"152 338 LINE",
"152 35 LINE SMOOTH",
"152 -44 OFFCURVE",
"137 -102 OFFCURVE",
"109 -124 CURVE",
"152 -69 LINE",
"130 -110 OFFCURVE",
"92 -125 OFFCURVE",
"45 -125 CURVE SMOOTH",
"15 -125 OFFCURVE",
"0 -122 OFFCURVE",
"-53 -113 CURVE",
"-7 -75 LINE",
"-30 -190 LINE",
"-4 -197 OFFCURVE",
"20 -200 OFFCURVE",
"45 -200 CURVE SMOOTH"
);
}
);
width = 307;
},
{
anchors = (
{
name = bottom;
position = "{144, -296}";
},
{
name = top;
position = "{195, 458}";
}
);
associatedMasterId = "14EEE41F-D714-4243-A717-73445EE7DABA";
layerId = "AE27F7C5-3C6C-45D6-90EE-339BBECF10D5";
name = "Feb 22 20, 16:01";
paths = (
{
closed = 1;
nodes = (
"186 -200 OFFCURVE",
"237 -108 OFFCURVE",
"237 35 CURVE SMOOTH",
"237 362 LINE",
"152 352 LINE",
"152 35 LINE SMOOTH",
"152 -44 OFFCURVE",
"137 -120 OFFCURVE",
"109 -142 CURVE",
"166 -69 LINE",
"144 -110 OFFCURVE",
"92 -125 OFFCURVE",
"45 -125 CURVE SMOOTH",
"15 -125 OFFCURVE",
"0 -122 OFFCURVE",
"-53 -113 CURVE",
"-7 -75 LINE",
"-30 -190 LINE",
"-4 -197 OFFCURVE",
"20 -200 OFFCURVE",
"45 -200 CURVE SMOOTH"
);
},
{
closed = 1;
nodes = (
"45 -125 LINE",
"121 -125 OFFCURVE",
"152 -85 OFFCURVE",
"152 35 CURVE",
"237 35 LINE",
"237 -108 OFFCURVE",
"186 -200 OFFCURVE",
"45 -200 CURVE"
);
}
);
width = 307;
},
{
anchors = (
{
name = bottom;
position = "{99, -356}";
},
{
name = center;
position = "{17, 99}";
},
{
name = top;
position = "{193, 458}";
}
);
layerId = "090CB6A0-BE7C-4D17-A551-206C7456A8A3";
paths = (
{
closed = 1;
nodes = (
"125 95 LINE SMOOTH",
"125 -32 OFFCURVE",
"87 -81 OFFCURVE",
"0 -81 CURVE",
"0 -200 LINE",
"168 -200 OFFCURVE",
"260 -96 OFFCURVE",
"260 95 CURVE SMOOTH",
"260 354 LINE",
"257 362 LINE",
"125 346 LINE"
);
}
);
width = 310;
},
{
anchors = (
{
name = bottom;
position = "{144, -296}";
},
{
name = top;
position = "{195, 458}";
}
);
associatedMasterId = "14EEE41F-D714-4243-A717-73445EE7DABA";
layerId = "A065DD31-5B40-4B79-8CB7-0A8367DF45DB";
name = "Sep 26 22, 15:28";
paths = (
{
closed = 1;
nodes = (
"162 35 LINE SMOOTH",
"162 -79 OFFCURVE",
"130 -115 OFFCURVE",
"45 -115 CURVE",
"45 -200 LINE",
"186 -200 OFFCURVE",
"237 -108 OFFCURVE",
"237 35 CURVE SMOOTH",
"237 362 LINE",
"162 362 LINE"
);
}
);
width = 307;
},
{
anchors = (
{
name = bottom;
position = "{144, -296}";
},
{
name = top;
position = "{195, 458}";
}
);
associatedMasterId = "14EEE41F-D714-4243-A717-73445EE7DABA";
layerId = "0D8F6EF0-ACAD-468E-989E-259229A5E8C7";
name = "Sep 26 22, 15:29";
paths = (
{
closed = 1;
nodes = (
"186 -200 OFFCURVE",
"237 -108 OFFCURVE",
"237 35 CURVE",
"152 35 LINE",
"152 -85 OFFCURVE",
"121 -125 OFFCURVE",
"45 -125 CURVE",
"45 -200 LINE"
);
},
{
closed = 1;
nodes = (
"237 35 LINE",
"237 362 LINE",
"152 352 LINE",
"152 35 LINE"
);
},
{
closed = 1;
nodes = (
"43 -200 LINE",
"45 -200 LINE",
"45 -125 LINE",
"43 -125 LINE"
);
}
);
visible = 1;
width = 307;
},
{
anchors = (
{
name = bottom;
position = "{99, -296}";
},
{
name = center;
position = "{17, 69}";
},
{
name = top;
position = "{155, 458}";
}
);
layerId = "14EEE41F-D714-4243-A717-73445EE7DABA";
paths = (
{
closed = 1;
nodes = (
"117 35 LINE SMOOTH",
"117 -84 OFFCURVE",
"83 -125 OFFCURVE",
"0 -125 CURVE",
"0 -200 LINE",
"141 -200 OFFCURVE",
"192 -108 OFFCURVE",
"192 35 CURVE SMOOTH",
"192 354 LINE",
"189 362 LINE",
"117 353 LINE"
);
}
);
width = 247;
},
{
anchors = (
{
name = bottom;
position = "{144, -296}";
},
{
name = top;
position = "{200, 458}";
}
);
associatedMasterId = "14EEE41F-D714-4243-A717-73445EE7DABA";
layerId = "9D99AF67-B520-488D-8DC3-AA6108608170";
name = "Sep 26 22, 19:19";
paths = (
{
closed = 1;
nodes = (
"162 35 LINE SMOOTH",
"162 -79 OFFCURVE",
"130 -115 OFFCURVE",
"45 -115 CURVE",
"45 -200 LINE",
"186 -200 OFFCURVE",
"237 -108 OFFCURVE",
"237 35 CURVE SMOOTH",
"237 362 LINE",
"162 353 LINE"
);
}
);
width = 307;
},
{
anchors = (
{
name = bottom;
position = "{99, -296}";
},
{
name = center;
position = "{67, 9}";
},
{
name = top;
position = "{177, 458}";
}
);
layerId = "3114FB65-9464-41A5-B67E-A8F9F43C0EF1";
paths = (
{
closed = 1;
nodes = (
"162 35 LINE SMOOTH",
"162 -107 OFFCURVE",
"111 -170 OFFCURVE",
"0 -170 CURVE",
"0 -200 LINE",
"141 -200 OFFCURVE",
"192 -108 OFFCURVE",
"192 35 CURVE SMOOTH",
"192 354 LINE",
"189 362 LINE",
"162 358 LINE"
);
}
);
width = 252;
},
{
anchors = (
{
name = bottom;
position = "{144, -296}";
},
{
name = top;
position = "{180, 475}";
}
);
associatedMasterId = "090CB6A0-BE7C-4D17-A551-206C7456A8A3";
layerId = "0D901419-3683-493D-8DA0-6109CED055C9";
name = "Oct 7 22, 15:01";
paths = (
{
closed = 1;
nodes = (
"196 -200 OFFCURVE",
"247 -108 OFFCURVE",
"247 35 CURVE",
"112 35 LINE",
"112 -65 OFFCURVE",
"96 -81 OFFCURVE",
"55 -81 CURVE",
"55 -200 LINE"
);
},
{
closed = 1;
nodes = (
"247 35 LINE",
"247 362 LINE",
"112 346 LINE",
"112 35 LINE"
);
},
{
closed = 1;
nodes = (
"43 -200 LINE",
"55 -200 LINE",
"55 -81 LINE",
"43 -81 LINE"
);
}
);
width = 317;
}
);
rightMetricsKey = "=behDotless-ar";
unicode = 0631;
},
{
glyphname = "reh-ar.fina";
layers = (
{
components = (
{
name = "reh-ar";
},
{
name = _connection.r;
transform = "{1, 0, 0, 1, 225, 0}";
}
);
layerId = "14EEE41F-D714-4243-A717-73445EE7DABA";
paths = (
{
closed = 1;
nodes = (
"275 0 LINE",
"275 75 LINE",
"169 75 LINE",
"169 0 LINE"
);
}
);
width = 275;
},
{
components = (
{
name = "reh-ar";
},
{
name = _connection.r;
transform = "{1, 0, 0, 1, 273, 0}";
}
);
layerId = "090CB6A0-BE7C-4D17-A551-206C7456A8A3";
paths = (
{
closed = 1;
nodes = (
"323 0 LINE",
"323 119 LINE",
"244 119 LINE",
"244 0 LINE"
);
}
);
width = 323;
},
{
components = (
{
name = "reh-ar";
},
{
name = _connection.r;
transform = "{1, 0, 0, 1, 225, 0}";
}
);
layerId = "3114FB65-9464-41A5-B67E-A8F9F43C0EF1";
paths = (
{
closed = 1;
nodes = (
"275 0 LINE",
"275 30 LINE",
"188 30 LINE",
"188 0 LINE"
);
}
);
width = 275;
}
);
leftMetricsKey = "=reh-ar";
rightMetricsKey = "=-20";
},
{
glyphname = "seen-ar";
layers = (
{
anchors = (
{
name = bottom;
position = "{710, -96}";
},
{
name = ring;
position = "{888, 0}";
},
{
name = top;
position = "{710, 476}";
}
);
layerId = "14EEE41F-D714-4243-A717-73445EE7DABA";
paths = (
{
closed = 1;
nodes = (
"427 -232 OFFCURVE",
"528 -135 OFFCURVE",
"528 28 CURVE",
"453 28 LINE",
"453 -89 OFFCURVE",
"389 -157 OFFCURVE",
"282 -157 CURVE SMOOTH",
"178 -157 OFFCURVE",
"120 -92 OFFCURVE",
"120 28 CURVE",
"45 28 LINE",
"45 -135 OFFCURVE",
"137 -232 OFFCURVE",
"282 -232 CURVE SMOOTH"
);
},
{
closed = 1;
nodes = (
"120 28 LINE",
"120 85 LINE",
"117 93 LINE",
"45 83 LINE",
"45 28 LINE"
);
},
{
closed = 1;
nodes = (
"528 28 LINE",
"528 259 LINE",
"525 267 LINE",
"453 258 LINE",
"453 28 LINE"
);
},
{
closed = 1;
nodes = (
"901 0 LINE",
"901 75 LINE",
"480 75 LINE",
"480 0 LINE"
);
},
{
closed = 1;
nodes = (
"742 0 LINE",
"757 14 LINE",
"757 14 OFFCURVE",
"742 138 OFFCURVE",
"742 247 CURVE SMOOTH",
"742 307 LINE",
"739 315 LINE",
"667 306 LINE",
"667 265 LINE SMOOTH",
"667 153 OFFCURVE",
"679 42 OFFCURVE",
"679 42 CURVE",
"676 0 LINE"
);
},
{
closed = 1;
nodes = (
"956 0 LINE",
"971 14 LINE",
"971 14 OFFCURVE",
"956 138 OFFCURVE",
"956 247 CURVE SMOOTH",
"956 354 LINE",
"953 362 LINE",
"881 353 LINE",
"881 265 LINE SMOOTH",
"881 153 OFFCURVE",
"893 42 OFFCURVE",
"893 42 CURVE",
"890 0 LINE"
);
}
);
width = 1026;
},
{
anchors = (
{
name = bottom;
position = "{377, -70}";
},
{
name = top;
position = "{377, 480}";
}
);
associatedMasterId = "14EEE41F-D714-4243-A717-73445EE7DABA";
layerId = "ACAEF3D4-C8C7-4F3A-8AF2-6E05106ACA6F";
name = "Nov 21 19, 19:16";
paths = (
{
closed = 1;
nodes = (
"679 0 LINE",
"694 14 LINE",
"688 95 OFFCURVE",
"678 166 OFFCURVE",
"679 237 CURVE",
"679 398 LINE",
"594 398 LINE",
"594 135 LINE",
"607 42 LINE",
"603 0 LINE"
);
},
{
closed = 1;
nodes = (
"614 67 LINE",
"508 75 LINE",
"488 75 LINE",
"488 0 LINE",
"614 0 LINE"
);
},
{
closed = 1;
nodes = (
"435 0 LINE",
"450 14 LINE",
"444 95 OFFCURVE",
"434 166 OFFCURVE",
"435 237 CURVE",
"435 339 LINE",
"350 339 LINE",
"350 135 LINE",
"363 42 LINE",
"359 0 LINE"
);
},
{
closed = 1;
nodes = (
"370 67 LINE",
"264 75 LINE",
"244 75 LINE",
"244 0 LINE",
"370 0 LINE"
);
},
{
closed = 1;
nodes = (
"488 0 LINE",
"488 75 LINE",
"404 75 LINE",
"404 0 LINE"
);
},
{
closed = 1;
nodes = (
"191 0 LINE",
"206 14 LINE",
"200 95 OFFCURVE",
"190 166 OFFCURVE",
"191 237 CURVE",
"191 299 LINE",
"106 299 LINE",
"106 135 LINE",
"119 42 LINE",
"115 0 LINE"
);
},
{
closed = 1;
nodes = (
"244 0 LINE",
"244 75 LINE",
"160 75 LINE",
"160 0 LINE"
);
},
{
closed = 0;
nodes = (
"191 299 LINE",
"191 0 LINE SMOOTH",
"191 -123 OFFCURVE",
"127 -222 OFFCURVE",
"-60 -222 CURVE SMOOTH",
"-248 -222 OFFCURVE",
"-312 -123 OFFCURVE",
"-312 0 CURVE SMOOTH",
"-312 54 LINE"
);
}
);
width = 754;
},
{
anchors = (
{
name = bottom;
position = "{377, -70}";
},
{
name = top;
position = "{377, 480}";
}
);
associatedMasterId = "14EEE41F-D714-4243-A717-73445EE7DABA";
layerId = "04ABF819-2075-4F52-88BA-1176BB4EE4CF";
name = "Nov 21 19, 19:16";
paths = (
{
closed = 1;
nodes = (
"679 0 LINE",
"694 14 LINE",
"688 95 OFFCURVE",
"678 166 OFFCURVE",
"679 237 CURVE SMOOTH",
"679 398 LINE",
"594 398 LINE",
"594 135 LINE",
"607 42 LINE",
"603 0 LINE"
);
},
{
closed = 1;
nodes = (
"614 67 LINE",
"508 75 LINE",
"488 75 LINE",
"488 0 LINE",
"614 0 LINE"
);
},
{
closed = 1;
nodes = (
"435 0 LINE",
"450 14 LINE",
"444 95 OFFCURVE",
"434 166 OFFCURVE",
"435 237 CURVE SMOOTH",
"435 339 LINE",
"350 339 LINE",
"350 135 LINE",
"363 42 LINE",
"359 0 LINE"
);
},
{
closed = 1;
nodes = (
"370 67 LINE",
"264 75 LINE",
"244 75 LINE",
"244 0 LINE",
"370 0 LINE"
);
},
{
closed = 1;
nodes = (
"488 0 LINE",
"488 75 LINE",
"404 75 LINE",
"404 0 LINE"
);
},
{
closed = 1;
nodes = (
"244 0 LINE",
"244 75 LINE",
"160 75 LINE",
"160 0 LINE"
);
},
{
closed = 1;
nodes = (
"-312 0 LINE SMOOTH",
"-312 -123 OFFCURVE",
"-248 -222 OFFCURVE",
"-60 -222 CURVE SMOOTH",
"127 -222 OFFCURVE",
"191 -123 OFFCURVE",
"191 0 CURVE SMOOTH",
"191 299 LINE",
"106 299 LINE",
"106 0 LINE SMOOTH",
"106 -103 OFFCURVE",
"58 -147 OFFCURVE",
"-60 -147 CURVE SMOOTH",
"-178 -147 OFFCURVE",
"-227 -103 OFFCURVE",
"-227 0 CURVE SMOOTH",
"-227 54 LINE",
"-312 54 LINE"
);
}
);
width = 754;
},
{
anchors = (
{
name = bottom;
position = "{704, -70}";
},
{
name = top;
position = "{704, 480}";
}
);
associatedMasterId = "14EEE41F-D714-4243-A717-73445EE7DABA";
layerId = "D4268B1F-5CE1-4E76-9EA9-DC0E2B639642";
name = "Nov 22 19, 14:20";
paths = (
{
closed = 1;
nodes = (
"1006 0 LINE",
"1021 14 LINE",
"1015 95 OFFCURVE",
"1005 166 OFFCURVE",
"1006 237 CURVE SMOOTH",
"1006 398 LINE",
"921 398 LINE",
"921 135 LINE",
"934 42 LINE",
"930 0 LINE"
);
},
{
closed = 1;
nodes = (
"941 67 LINE",
"835 75 LINE",
"815 75 LINE",
"815 0 LINE",
"941 0 LINE"
);
},
{
closed = 1;
nodes = (
"762 0 LINE",
"777 14 LINE",
"771 95 OFFCURVE",
"761 166 OFFCURVE",
"762 237 CURVE SMOOTH",
"762 339 LINE",
"677 339 LINE",
"677 135 LINE",
"690 42 LINE",
"686 0 LINE"
);
},
{
closed = 1;
nodes = (
"697 67 LINE",
"591 75 LINE",
"571 75 LINE",
"571 0 LINE",
"697 0 LINE"
);
},
{
closed = 1;
nodes = (
"815 0 LINE",
"815 75 LINE",
"731 75 LINE",
"731 0 LINE"
);
},
{
closed = 1;
nodes = (
"571 0 LINE",
"571 75 LINE",
"487 75 LINE",
"487 0 LINE"
);
},
{
closed = 1;
nodes = (
"433 0 LINE SMOOTH",
"433 -65 OFFCURVE",
"416 -153 OFFCURVE",
"378 -174 CURVE",
"462 -92 LINE",
"440 -130 OFFCURVE",
"350 -147 OFFCURVE",
"284 -147 CURVE SMOOTH",
"234 -147 OFFCURVE",
"197 -137 OFFCURVE",
"173 -116 CURVE SMOOTH",
"147 -92 OFFCURVE",
"135 -55 OFFCURVE",
"135 0 CURVE SMOOTH",
"135 54 LINE",
"50 54 LINE",
"50 0 LINE SMOOTH",
"50 -123 OFFCURVE",
"109 -222 OFFCURVE",
"284 -222 CURVE SMOOTH",
"458 -222 OFFCURVE",
"518 -123 OFFCURVE",
"518 0 CURVE SMOOTH",
"518 299 LINE",
"433 299 LINE"
);
}
);
width = 1081;
},
{
anchors = (
{
name = bottom;
position = "{704, -70}";
},
{
name = top;
position = "{704, 480}";
}
);
associatedMasterId = "14EEE41F-D714-4243-A717-73445EE7DABA";
layerId = "B837014B-2849-4BDD-A33A-CE16C0789E27";
name = "Nov 22 19, 17:13";
paths = (
{
closed = 1;
nodes = (
"1006 0 LINE",
"1021 14 LINE",
"1015 95 OFFCURVE",
"1005 166 OFFCURVE",
"1006 237 CURVE SMOOTH",
"1006 398 LINE",
"921 398 LINE",
"921 135 LINE",
"934 42 LINE",
"930 0 LINE"
);
},
{
closed = 1;
nodes = (
"941 67 LINE",
"835 75 LINE",
"815 75 LINE",
"815 0 LINE",
"941 0 LINE"
);
},
{
closed = 1;
nodes = (
"762 0 LINE",
"777 14 LINE",
"771 95 OFFCURVE",
"761 166 OFFCURVE",
"762 237 CURVE SMOOTH",
"762 339 LINE",
"677 339 LINE",
"677 135 LINE",
"690 42 LINE",
"686 0 LINE"
);
},
{
closed = 1;
nodes = (
"697 67 LINE",
"591 75 LINE",
"571 75 LINE",
"571 0 LINE",
"697 0 LINE"
);
},
{
closed = 1;
nodes = (
"815 0 LINE",
"815 75 LINE",
"731 75 LINE",
"731 0 LINE"
);
},
{
closed = 1;
nodes = (
"571 0 LINE",
"571 75 LINE",
"487 75 LINE",
"487 0 LINE"
);
},
{
closed = 1;
nodes = (
"433 -22 LINE SMOOTH",
"433 -94 OFFCURVE",
"415 -193 OFFCURVE",
"377 -216 CURVE",
"464 -128 LINE",
"439 -167 OFFCURVE",
"348 -186 OFFCURVE",
"284 -186 CURVE SMOOTH",
"180 -186 OFFCURVE",
"135 -138 OFFCURVE",
"135 -22 CURVE SMOOTH",
"135 36 LINE",
"50 36 LINE",
"50 -22 LINE SMOOTH",
"50 -154 OFFCURVE",
"109 -261 OFFCURVE",
"284 -261 CURVE SMOOTH",
"458 -261 OFFCURVE",
"518 -154 OFFCURVE",
"518 -22 CURVE SMOOTH",
"518 299 LINE",
"433 299 LINE"
);
}
);
width = 1081;
},
{
anchors = (
{
name = bottom;
position = "{704, -70}";
},
{
name = top;
position = "{704, 480}";
}
);
associatedMasterId = "14EEE41F-D714-4243-A717-73445EE7DABA";
layerId = "10FF909C-5914-45F7-865C-21A8EA9990E9";
name = "Dec 4 19, 16:23";
paths = (
{
closed = 1;
nodes = (
"941 67 LINE",
"835 75 LINE",
"815 75 LINE",
"815 0 LINE",
"941 0 LINE"
);
},
{
closed = 1;
nodes = (
"697 67 LINE",
"591 75 LINE",
"571 75 LINE",
"571 0 LINE",
"697 0 LINE"
);
},
{
closed = 1;
nodes = (
"815 0 LINE",
"815 75 LINE",
"731 75 LINE",
"731 0 LINE"
);
},
{
closed = 1;
nodes = (
"571 0 LINE",
"571 75 LINE",
"487 75 LINE",
"487 0 LINE"
);
},
{
closed = 1;
nodes = (
"433 -22 LINE SMOOTH",
"433 -94 OFFCURVE",
"415 -193 OFFCURVE",
"377 -216 CURVE",
"464 -128 LINE",
"439 -167 OFFCURVE",
"348 -186 OFFCURVE",
"284 -186 CURVE SMOOTH",
"180 -186 OFFCURVE",
"135 -138 OFFCURVE",
"135 -22 CURVE SMOOTH",
"135 36 LINE",
"50 36 LINE",
"50 -22 LINE SMOOTH",
"50 -154 OFFCURVE",
"109 -261 OFFCURVE",
"284 -261 CURVE SMOOTH",
"458 -261 OFFCURVE",
"518 -154 OFFCURVE",
"518 -22 CURVE SMOOTH",
"518 299 LINE",
"433 299 LINE"
);
},
{
closed = 1;
nodes = (
"1006 0 LINE",
"1021 14 LINE",
"1015 95 OFFCURVE",
"1006 166 OFFCURVE",
"1006 237 CURVE SMOOTH",
"1006 398 LINE",
"921 398 LINE",
"921 265 LINE SMOOTH",
"921 194 OFFCURVE",
"930 123 OFFCURVE",
"936 42 CURVE",
"930 0 LINE"
);
},
{
closed = 1;
nodes = (
"762 0 LINE",
"777 14 LINE",
"771 95 OFFCURVE",
"762 166 OFFCURVE",
"762 237 CURVE SMOOTH",
"762 339 LINE",
"677 339 LINE",
"677 265 LINE SMOOTH",
"677 194 OFFCURVE",
"686 123 OFFCURVE",
"692 42 CURVE",
"686 0 LINE"
);
}
);
width = 1081;
},
{
anchors = (
{
name = bottom;
position = "{704, -70}";
},
{
name = top;
position = "{704, 480}";
}
);
associatedMasterId = "14EEE41F-D714-4243-A717-73445EE7DABA";
layerId = "00C7DA74-726B-4C54-B062-88AD78885CA5";
name = "Dec 19 19, 13:37";
paths = (
{
closed = 1;
nodes = (
"458 -261 OFFCURVE",
"518 -154 OFFCURVE",
"518 -22 CURVE SMOOTH",
"518 299 LINE",
"433 289 LINE",
"433 -22 LINE SMOOTH",
"433 -94 OFFCURVE",
"415 -193 OFFCURVE",
"377 -216 CURVE",
"464 -128 LINE",
"439 -167 OFFCURVE",
"348 -186 OFFCURVE",
"284 -186 CURVE SMOOTH",
"180 -186 OFFCURVE",
"135 -138 OFFCURVE",
"135 -22 CURVE SMOOTH",
"135 36 LINE",
"50 26 LINE",
"50 -22 LINE SMOOTH",
"50 -154 OFFCURVE",
"109 -261 OFFCURVE",
"284 -261 CURVE SMOOTH"
);
},
{
closed = 1;
nodes = (
"687 0 LINE",
"687 68 LINE",
"687 68 OFFCURVE",
"631 75 OFFCURVE",
"581 75 CURVE SMOOTH",
"501 75 LINE",
"501 0 LINE"
);
},
{
closed = 1;
nodes = (
"921 0 LINE",
"921 68 LINE",
"921 68 OFFCURVE",
"865 75 OFFCURVE",
"815 75 CURVE SMOOTH",
"724 75 LINE",
"724 0 LINE"
);
},
{
closed = 1;
nodes = (
"752 0 LINE",
"767 14 LINE",
"767 14 OFFCURVE",
"752 138 OFFCURVE",
"752 247 CURVE SMOOTH",
"752 339 LINE",
"667 329 LINE",
"667 265 LINE SMOOTH",
"667 153 OFFCURVE",
"679 42 OFFCURVE",
"679 42 CURVE",
"676 0 LINE"
);
},
{
closed = 1;
nodes = (
"986 0 LINE",
"1001 14 LINE",
"1001 14 OFFCURVE",
"986 138 OFFCURVE",
"986 247 CURVE SMOOTH",
"986 398 LINE",
"901 388 LINE",
"901 265 LINE SMOOTH",
"901 153 OFFCURVE",
"913 42 OFFCURVE",
"913 42 CURVE",
"910 0 LINE"
);
}
);
width = 1061;
},
{
anchors = (
{
name = bottom;
position = "{704, -70}";
},
{
name = top;
position = "{704, 520}";
}
);
associatedMasterId = "14EEE41F-D714-4243-A717-73445EE7DABA";
layerId = "8DDC3FF2-E354-4E6B-8C6C-1FA90495AF2B";
name = "Jan 20 20, 22:06";
paths = (
{
closed = 1;
nodes = (
"458 -261 OFFCURVE",
"518 -154 OFFCURVE",
"518 -22 CURVE SMOOTH",
"518 388 LINE",
"433 378 LINE",
"433 -22 LINE SMOOTH",
"433 -94 OFFCURVE",
"415 -178 OFFCURVE",
"377 -201 CURVE",
"449 -128 LINE",
"424 -167 OFFCURVE",
"348 -186 OFFCURVE",
"284 -186 CURVE SMOOTH",
"180 -186 OFFCURVE",
"135 -138 OFFCURVE",
"135 -22 CURVE SMOOTH",
"135 36 LINE",
"50 26 LINE",
"50 -22 LINE SMOOTH",
"50 -154 OFFCURVE",
"109 -261 OFFCURVE",
"284 -261 CURVE SMOOTH"
);
},
{
closed = 1;
nodes = (
"687 0 LINE",
"687 68 LINE",
"687 68 OFFCURVE",
"631 75 OFFCURVE",
"581 75 CURVE SMOOTH",
"501 75 LINE",
"501 0 LINE"
);
},
{
closed = 1;
nodes = (
"921 0 LINE",
"921 68 LINE",
"921 68 OFFCURVE",
"865 75 OFFCURVE",
"815 75 CURVE SMOOTH",
"724 75 LINE",
"724 0 LINE"
);
},
{
closed = 1;
nodes = (
"752 0 LINE",
"767 14 LINE",
"767 14 OFFCURVE",
"752 138 OFFCURVE",
"752 247 CURVE SMOOTH",
"752 428 LINE",
"667 418 LINE",
"667 265 LINE SMOOTH",
"667 153 OFFCURVE",
"679 42 OFFCURVE",
"679 42 CURVE",
"676 0 LINE"
);
},
{
closed = 1;
nodes = (
"986 0 LINE",
"1001 14 LINE",
"1001 14 OFFCURVE",
"986 138 OFFCURVE",
"986 247 CURVE SMOOTH",
"986 487 LINE",
"901 477 LINE",
"901 265 LINE SMOOTH",
"901 153 OFFCURVE",
"913 42 OFFCURVE",
"913 42 CURVE",
"910 0 LINE"
);
}
);
width = 1061;
},
{
anchors = (
{
name = bottom;
position = "{762, -96}";
},
{
name = top;
position = "{762, 476}";
}
);
associatedMasterId = "14EEE41F-D714-4243-A717-73445EE7DABA";
layerId = "A149D171-624F-497A-9154-1D131A17D4B8";
name = "Feb 22 20, 14:19";
paths = (
{
closed = 1;
nodes = (
"739 0 LINE",
"739 68 LINE",
"739 68 OFFCURVE",
"683 75 OFFCURVE",
"633 75 CURVE SMOOTH",
"553 75 LINE",
"553 0 LINE"
);
},
{
closed = 1;
nodes = (
"973 0 LINE",
"973 68 LINE",
"973 68 OFFCURVE",
"917 75 OFFCURVE",
"867 75 CURVE SMOOTH",
"776 75 LINE",
"776 0 LINE"
);
},
{
closed = 1;
nodes = (
"804 0 LINE",
"819 14 LINE",
"819 14 OFFCURVE",
"804 138 OFFCURVE",
"804 247 CURVE SMOOTH",
"804 380 LINE",
"719 370 LINE",
"719 265 LINE SMOOTH",
"719 153 OFFCURVE",
"731 42 OFFCURVE",
"731 42 CURVE",
"728 0 LINE"
);
},
{
closed = 1;
nodes = (
"1038 0 LINE",
"1053 14 LINE",
"1053 14 OFFCURVE",
"1038 138 OFFCURVE",
"1038 247 CURVE SMOOTH",
"1038 428 LINE",
"953 418 LINE",
"953 265 LINE SMOOTH",
"953 153 OFFCURVE",
"965 42 OFFCURVE",
"965 42 CURVE",
"962 0 LINE"
);
},
{
closed = 1;
nodes = (
"485 30 LINE SMOOTH",
"485 -49 OFFCURVE",
"469 -131 OFFCURVE",
"423 -162 CURVE",
"491 -92 LINE",
"460 -141 OFFCURVE",
"383 -156 OFFCURVE",
"310 -156 CURVE SMOOTH",
"188 -156 OFFCURVE",
"135 -101 OFFCURVE",
"135 30 CURVE SMOOTH",
"135 94 LINE",
"50 84 LINE",
"50 30 LINE SMOOTH",
"50 -116 OFFCURVE",
"116 -231 OFFCURVE",
"310 -231 CURVE SMOOTH",
"503 -231 OFFCURVE",
"570 -116 OFFCURVE",
"570 30 CURVE SMOOTH",
"570 332 LINE",
"485 322 LINE"
);
},
{
closed = 1;
nodes = (
"485 -101 OFFCURVE",
"431 -156 OFFCURVE",
"310 -156 CURVE",
"310 -231 LINE",
"503 -231 OFFCURVE",
"570 -116 OFFCURVE",
"570 30 CURVE",
"485 30 LINE"
);
}
);
visible = 1;
width = 1113;
},
{
anchors = (
{
name = bottom;
position = "{702, -96}";
},
{
name = ring;
position = "{878, 0}";
},
{
name = top;
position = "{702, 469}";
}
);
layerId = "090CB6A0-BE7C-4D17-A551-206C7456A8A3";
paths = (
{
closed = 1;
nodes = (
"428 -231 OFFCURVE",
"535 -134 OFFCURVE",
"535 29 CURVE",
"400 29 LINE",
"400 -65 OFFCURVE",
"357 -112 OFFCURVE",
"275 -112 CURVE SMOOTH",
"198 -112 OFFCURVE",
"160 -69 OFFCURVE",
"160 29 CURVE",
"40 29 LINE",
"40 -134 OFFCURVE",
"122 -231 OFFCURVE",
"275 -231 CURVE SMOOTH"
);
},
{
closed = 1;
nodes = (
"160 29 LINE",
"160 86 LINE",
"157 94 LINE",
"40 78 LINE",
"40 29 LINE"
);
},
{
closed = 1;
nodes = (
"535 29 LINE",
"535 259 LINE",
"532 267 LINE",
"400 251 LINE",
"400 29 LINE"
);
},
{
closed = 1;
nodes = (
"945 0 LINE",
"945 119 LINE",
"479 119 LINE",
"479 0 LINE"
);
},
{
closed = 1;
nodes = (
"769 0 LINE",
"784 14 LINE",
"784 14 OFFCURVE",
"769 138 OFFCURVE",
"769 247 CURVE SMOOTH",
"769 307 LINE",
"766 315 LINE",
"634 299 LINE",
"634 265 LINE SMOOTH",
"634 153 OFFCURVE",
"646 42 OFFCURVE",
"646 42 CURVE",
"643 0 LINE"
);
},
{
closed = 1;
nodes = (
"1003 0 LINE",
"1018 14 LINE",
"1018 14 OFFCURVE",
"1003 138 OFFCURVE",
"1003 247 CURVE SMOOTH",
"1003 354 LINE",
"1000 362 LINE",
"868 346 LINE",
"868 265 LINE SMOOTH",
"868 153 OFFCURVE",
"880 42 OFFCURVE",
"880 42 CURVE",
"877 0 LINE"
);
}
);
width = 1068;
},
{
anchors = (
{
name = bottom;
position = "{619, -96}";
},
{
name = ring;
position = "{729, 0}";
},
{
name = top;
position = "{619, 411}";
}
);
layerId = "3114FB65-9464-41A5-B67E-A8F9F43C0EF1";
paths = (
{
closed = 1;
nodes = (
"383 -231 OFFCURVE",
"470 -134 OFFCURVE",
"470 29 CURVE",
"440 29 LINE",
"440 -113 OFFCURVE",
"369 -201 OFFCURVE",
"256 -201 CURVE SMOOTH",
"146 -201 OFFCURVE",
"80 -116 OFFCURVE",
"80 29 CURVE",
"50 29 LINE",
"50 -134 OFFCURVE",
"130 -231 OFFCURVE",
"256 -231 CURVE SMOOTH"
);
},
{
closed = 1;
nodes = (
"80 29 LINE",
"80 76 LINE",
"77 84 LINE",
"50 80 LINE",
"50 29 LINE"
);
},
{
closed = 1;
nodes = (
"470 29 LINE",
"470 259 LINE",
"467 267 LINE",
"440 263 LINE",
"440 29 LINE"
);
},
{
closed = 1;
nodes = (
"788 0 LINE",
"788 30 LINE",
"456 30 LINE",
"456 0 LINE"
);
},
{
closed = 1;
nodes = (
"634 0 LINE",
"649 14 LINE",
"642 77 OFFCURVE",
"634 170 OFFCURVE",
"634 247 CURVE SMOOTH",
"634 307 LINE",
"631 315 LINE",
"604 311 LINE",
"604 247 LINE SMOOTH",
"604 172 OFFCURVE",
"613 83 OFFCURVE",
"619 20 CURVE SMOOTH",
"621 0 LINE"
);
},
{
closed = 1;
nodes = (
"798 0 LINE",
"813 14 LINE",
"806 77 OFFCURVE",
"798 170 OFFCURVE",
"798 247 CURVE SMOOTH",
"798 354 LINE",
"795 362 LINE",
"768 358 LINE",
"768 247 LINE SMOOTH",
"768 172 OFFCURVE",
"777 83 OFFCURVE",
"783 20 CURVE SMOOTH",
"785 0 LINE"
);
}
);
width = 873;
}
);
leftMetricsKey = "=noonghunna-ar";
rightMetricsKey = "=behDotless-ar";
unicode = 0633;
},
{
glyphname = "seen-ar.fina";
layers = (
{
components = (
{
name = _connection.r;
transform = "{1, 0, 0, 1, 989, 0}";
},
{
name = "seen-ar";
}
);
layerId = "14EEE41F-D714-4243-A717-73445EE7DABA";
paths = (
{
closed = 1;
nodes = (
"1039 0 LINE",
"1039 75 LINE",
"955 75 LINE",
"955 0 LINE"
);
}
);
width = 1039;
},
{
anchors = (
{
name = bottom;
position = "{704, -70}";
},
{
name = top;
position = "{704, 480}";
}
);
associatedMasterId = "14EEE41F-D714-4243-A717-73445EE7DABA";
components = (
{
name = _connection.r;
transform = "{1, 0, 0, 1, 1049, 0}";
},
{
name = "hah-ar";
}
);
layerId = "00E64C23-3C02-421B-A393-EAF0A1D743A7";
name = "Nov 22 19, 13:52";
paths = (
{
closed = 1;
nodes = (
"941 67 LINE",
"835 75 LINE",
"815 75 LINE",
"815 0 LINE",
"941 0 LINE"
);
},
{
closed = 1;
nodes = (
"697 67 LINE",
"591 75 LINE",
"571 75 LINE",
"571 0 LINE",
"697 0 LINE"
);
},
{
closed = 1;
nodes = (
"815 0 LINE",
"815 75 LINE",
"731 75 LINE",
"731 0 LINE"
);
},
{
closed = 1;
nodes = (
"571 0 LINE",
"571 75 LINE",
"487 75 LINE",
"487 0 LINE"
);
},
{
closed = 1;
nodes = (
"433 0 LINE SMOOTH",
"433 -65 OFFCURVE",
"416 -154 OFFCURVE",
"378 -174 CURVE",
"462 -92 LINE",
"440 -130 OFFCURVE",
"350 -147 OFFCURVE",
"284 -147 CURVE SMOOTH",
"234 -147 OFFCURVE",
"197 -137 OFFCURVE",
"173 -116 CURVE SMOOTH",
"147 -92 OFFCURVE",
"135 -55 OFFCURVE",
"135 0 CURVE SMOOTH",
"135 54 LINE",
"50 54 LINE",
"50 0 LINE SMOOTH",
"50 -123 OFFCURVE",
"109 -222 OFFCURVE",
"284 -222 CURVE SMOOTH",
"458 -222 OFFCURVE",
"518 -123 OFFCURVE",
"518 0 CURVE SMOOTH",
"518 279 LINE",
"433 279 LINE"
);
},
{
closed = 1;
nodes = (
"1006 0 LINE",
"1021 14 LINE",
"1015 95 OFFCURVE",
"1005 166 OFFCURVE",
"1006 237 CURVE",
"1006 359 LINE",
"921 359 LINE",
"921 135 LINE",
"934 42 LINE",
"930 0 LINE"
);
},
{
closed = 1;
nodes = (
"762 0 LINE",
"777 14 LINE",
"771 95 OFFCURVE",
"761 166 OFFCURVE",
"762 237 CURVE",
"762 319 LINE",
"677 319 LINE",
"677 135 LINE",
"690 42 LINE",
"686 0 LINE"
);
},
{
closed = 1;
nodes = (
"1099 0 LINE",
"1099 75 LINE",
"975 75 LINE",
"975 0 LINE"
);
}
);
width = 1099;
},
{
anchors = (
{
name = bottom;
position = "{704, -70}";
},
{
name = top;
position = "{704, 480}";
}
);
associatedMasterId = "14EEE41F-D714-4243-A717-73445EE7DABA";
components = (
{
name = _connection.r;
transform = "{1, 0, 0, 1, 1049, 0}";
}
);
layerId = "BE5BF1AC-6996-4B80-A879-C2A5A58A9E47";
name = "Dec 5 19, 13:50";
paths = (
{
closed = 1;
nodes = (
"458 -261 OFFCURVE",
"518 -154 OFFCURVE",
"518 -22 CURVE SMOOTH",
"518 279 LINE",
"433 279 LINE",
"433 -22 LINE SMOOTH",
"433 -94 OFFCURVE",
"415 -193 OFFCURVE",
"377 -216 CURVE",
"464 -128 LINE",
"439 -167 OFFCURVE",
"348 -186 OFFCURVE",
"284 -186 CURVE SMOOTH",
"180 -186 OFFCURVE",
"135 -138 OFFCURVE",
"135 -22 CURVE SMOOTH",
"135 36 LINE",
"50 36 LINE",
"50 -22 LINE SMOOTH",
"50 -154 OFFCURVE",
"109 -261 OFFCURVE",
"284 -261 CURVE SMOOTH"
);
},
{
closed = 1;
nodes = (
"571 0 LINE",
"571 75 LINE",
"487 75 LINE",
"487 0 LINE"
);
},
{
closed = 1;
nodes = (
"697 0 LINE",
"697 67 LINE",
"591 75 LINE",
"571 75 LINE",
"571 0 LINE"
);
},
{
closed = 1;
nodes = (
"815 0 LINE",
"815 75 LINE",
"731 75 LINE",
"731 0 LINE"
);
},
{
closed = 1;
nodes = (
"762 0 LINE",
"777 14 LINE",
"771 95 OFFCURVE",
"761 166 OFFCURVE",
"762 237 CURVE SMOOTH",
"762 319 LINE",
"677 319 LINE",
"677 135 LINE",
"690 42 LINE",
"686 0 LINE"
);
},
{
closed = 1;
nodes = (
"941 0 LINE",
"941 67 LINE",
"835 75 LINE",
"815 75 LINE",
"815 0 LINE"
);
},
{
closed = 1;
nodes = (
"1099 0 LINE",
"1099 75 LINE",
"975 75 LINE",
"975 0 LINE"
);
},
{
closed = 1;
nodes = (
"1006 0 LINE",
"1021 14 LINE",
"1015 95 OFFCURVE",
"1005 166 OFFCURVE",
"1006 237 CURVE SMOOTH",
"1006 359 LINE",
"921 359 LINE",
"921 135 LINE",
"934 42 LINE",
"930 0 LINE"
);
}
);
width = 1099;
},
{
anchors = (
{
name = bottom;
position = "{704, -70}";
},
{
name = top;
position = "{704, 480}";
}
);
associatedMasterId = "14EEE41F-D714-4243-A717-73445EE7DABA";
components = (
{
name = _connection.r;
transform = "{1, 0, 0, 1, 1009, 0}";
}
);
layerId = "155C0D60-10C5-4997-8C72-7179FD4183A7";
name = "Dec 19 19, 13:38";
paths = (
{
closed = 1;
nodes = (
"458 -261 OFFCURVE",
"518 -154 OFFCURVE",
"518 -22 CURVE SMOOTH",
"518 279 LINE",
"433 269 LINE",
"433 -22 LINE SMOOTH",
"433 -94 OFFCURVE",
"415 -193 OFFCURVE",
"377 -216 CURVE",
"464 -128 LINE",
"439 -167 OFFCURVE",
"348 -186 OFFCURVE",
"284 -186 CURVE SMOOTH",
"180 -186 OFFCURVE",
"135 -138 OFFCURVE",
"135 -22 CURVE SMOOTH",
"135 36 LINE",
"50 26 LINE",
"50 -22 LINE SMOOTH",
"50 -154 OFFCURVE",
"109 -261 OFFCURVE",
"284 -261 CURVE SMOOTH"
);
},
{
closed = 1;
nodes = (
"687 0 LINE",
"687 68 LINE",
"687 68 OFFCURVE",
"631 75 OFFCURVE",
"581 75 CURVE SMOOTH",
"501 75 LINE",
"501 0 LINE"
);
},
{
closed = 1;
nodes = (
"921 0 LINE",
"921 68 LINE",
"921 68 OFFCURVE",
"865 75 OFFCURVE",
"815 75 CURVE SMOOTH",
"724 75 LINE",
"724 0 LINE"
);
},
{
closed = 1;
nodes = (
"752 0 LINE",
"767 14 LINE",
"767 14 OFFCURVE",
"752 138 OFFCURVE",
"752 247 CURVE SMOOTH",
"752 319 LINE",
"667 309 LINE",
"667 265 LINE SMOOTH",
"667 153 OFFCURVE",
"679 42 OFFCURVE",
"679 42 CURVE",
"676 0 LINE"
);
},
{
closed = 1;
nodes = (
"1059 0 LINE",
"1059 75 LINE",
"955 75 LINE",
"955 0 LINE"
);
},
{
closed = 1;
nodes = (
"986 0 LINE",
"1001 14 LINE",
"1001 14 OFFCURVE",
"986 138 OFFCURVE",
"986 247 CURVE SMOOTH",
"986 359 LINE",
"901 349 LINE",
"901 265 LINE SMOOTH",
"901 153 OFFCURVE",
"913 42 OFFCURVE",
"913 42 CURVE",
"910 0 LINE"
);
}
);
width = 1059;
},
{
anchors = (
{
name = bottom;
position = "{704, -70}";
},
{
name = top;
position = "{704, 510}";
}
);
associatedMasterId = "14EEE41F-D714-4243-A717-73445EE7DABA";
components = (
{
name = _connection.r;
transform = "{1, 0, 0, 1, 1009, 0}";
}
);
layerId = "7C283A8E-8F23-4399-85E3-2184DFFFD386";
name = "Jan 20 20, 22:07";
paths = (
{
closed = 1;
nodes = (
"458 -261 OFFCURVE",
"518 -154 OFFCURVE",
"518 -22 CURVE SMOOTH",
"518 359 LINE",
"433 349 LINE",
"433 -22 LINE SMOOTH",
"433 -94 OFFCURVE",
"415 -178 OFFCURVE",
"377 -201 CURVE",
"449 -128 LINE",
"424 -167 OFFCURVE",
"348 -186 OFFCURVE",
"284 -186 CURVE SMOOTH",
"180 -186 OFFCURVE",
"135 -138 OFFCURVE",
"135 -22 CURVE SMOOTH",
"135 36 LINE",
"50 26 LINE",
"50 -22 LINE SMOOTH",
"50 -154 OFFCURVE",
"109 -261 OFFCURVE",
"284 -261 CURVE SMOOTH"
);
},
{
closed = 1;
nodes = (
"687 0 LINE",
"687 68 LINE",
"687 68 OFFCURVE",
"631 75 OFFCURVE",
"581 75 CURVE SMOOTH",
"501 75 LINE",
"501 0 LINE"
);
},
{
closed = 1;
nodes = (
"921 0 LINE",
"921 68 LINE",
"921 68 OFFCURVE",
"865 75 OFFCURVE",
"815 75 CURVE SMOOTH",
"724 75 LINE",
"724 0 LINE"
);
},
{
closed = 1;
nodes = (
"752 0 LINE",
"767 14 LINE",
"767 14 OFFCURVE",
"752 138 OFFCURVE",
"752 247 CURVE SMOOTH",
"752 399 LINE",
"667 389 LINE",
"667 265 LINE SMOOTH",
"667 153 OFFCURVE",
"679 42 OFFCURVE",
"679 42 CURVE",
"676 0 LINE"
);
},
{
closed = 1;
nodes = (
"1059 0 LINE",
"1059 75 LINE",
"975 75 LINE",
"975 0 LINE"
);
},
{
closed = 1;
nodes = (
"986 0 LINE",
"1001 14 LINE",
"1001 14 OFFCURVE",
"986 138 OFFCURVE",
"986 247 CURVE SMOOTH",
"986 428 LINE",
"901 418 LINE",
"901 265 LINE SMOOTH",
"901 153 OFFCURVE",
"913 42 OFFCURVE",
"913 42 CURVE",
"910 0 LINE"
);
}
);
width = 1059;
},
{
components = (
{
name = _connection.r;
transform = "{1, 0, 0, 1, 1026, 0}";
},
{
name = "seen-ar";
}
);
layerId = "090CB6A0-BE7C-4D17-A551-206C7456A8A3";
paths = (
{
closed = 1;
nodes = (
"1076 0 LINE",
"1076 119 LINE",
"982 119 LINE",
"982 0 LINE"
);
}
);
width = 1076;
},
{
components = (
{
name = _connection.r;
transform = "{1, 0, 0, 1, 831, 0}";
},
{
name = "seen-ar";
}
);
layerId = "3114FB65-9464-41A5-B67E-A8F9F43C0EF1";
paths = (
{
closed = 1;
nodes = (
"881 0 LINE",
"881 30 LINE",
"792 30 LINE",
"792 0 LINE"
);
}
);
width = 881;
}
);
leftMetricsKey = "=noonghunna-ar";
rightMetricsKey = "=-20";
},
{
glyphname = "seen-ar.medi";
layers = (
{
components = (
{
name = _connection.r;
transform = "{1, 0, 0, 1, 622, 0}";
},
{
name = "seen-ar.init";
}
);
layerId = "14EEE41F-D714-4243-A717-73445EE7DABA";
paths = (
{
closed = 1;
nodes = (
"672 0 LINE",
"672 75 LINE",
"578 75 LINE",
"578 0 LINE"
);
}
);
width = 672;
},
{
anchors = (
{
name = bottom;
position = "{357, -70}";
},
{
name = top;
position = "{357, 480}";
}
);
associatedMasterId = "14EEE41F-D714-4243-A717-73445EE7DABA";
components = (
{
name = _connection.l;
},
{
name = _connection.r;
transform = "{1, 0, 0, 1, 702, 0}";
}
);
layerId = "C0A74F2B-1E19-472E-9DB3-2EC76DC6B452";
name = "Dec 5 19, 13:52";
paths = (
{
closed = 1;
nodes = (
"659 0 LINE",
"674 14 LINE",
"668 95 OFFCURVE",
"658 166 OFFCURVE",
"659 237 CURVE",
"659 359 LINE",
"574 359 LINE",
"574 135 LINE",
"587 42 LINE",
"583 0 LINE"
);
},
{
closed = 1;
nodes = (
"126 0 LINE",
"126 67 LINE",
"20 75 LINE",
"0 75 LINE",
"0 0 LINE"
);
},
{
closed = 1;
nodes = (
"234 0 LINE",
"234 75 LINE",
"160 75 LINE",
"160 0 LINE"
);
},
{
closed = 1;
nodes = (
"191 0 LINE",
"206 14 LINE",
"200 95 OFFCURVE",
"190 166 OFFCURVE",
"191 237 CURVE",
"191 279 LINE",
"106 279 LINE",
"106 135 LINE",
"119 42 LINE",
"115 0 LINE"
);
},
{
closed = 1;
nodes = (
"360 0 LINE",
"360 67 LINE",
"254 75 LINE",
"234 75 LINE",
"234 0 LINE"
);
},
{
closed = 1;
nodes = (
"468 0 LINE",
"468 75 LINE",
"394 75 LINE",
"394 0 LINE"
);
},
{
closed = 1;
nodes = (
"425 0 LINE",
"440 14 LINE",
"434 95 OFFCURVE",
"424 166 OFFCURVE",
"425 237 CURVE",
"425 319 LINE",
"340 319 LINE",
"340 135 LINE",
"353 42 LINE",
"349 0 LINE"
);
},
{
closed = 1;
nodes = (
"594 0 LINE",
"594 67 LINE",
"488 75 LINE",
"468 75 LINE",
"468 0 LINE"
);
},
{
closed = 1;
nodes = (
"752 0 LINE",
"752 75 LINE",
"628 75 LINE",
"628 0 LINE"
);
}
);
width = 752;
},
{
components = (
{
name = _connection.r;
transform = "{1, 0, 0, 1, 702, 0}";
},
{
name = "seen-ar.init";
}
);
layerId = "090CB6A0-BE7C-4D17-A551-206C7456A8A3";
paths = (
{
closed = 1;
nodes = (
"752 0 LINE",
"752 119 LINE",
"658 119 LINE",
"658 0 LINE"
);
}
);
width = 752;
},
{
components = (
{
name = _connection.r;
transform = "{1, 0, 0, 1, 477, 0}";
},
{
name = "seen-ar.init";
}
);
layerId = "3114FB65-9464-41A5-B67E-A8F9F43C0EF1";
paths = (
{
closed = 1;
nodes = (
"527 0 LINE",
"527 30 LINE",
"433 30 LINE",
"433 0 LINE"
);
}
);
width = 527;
}
);
leftMetricsKey = "=-20";
rightMetricsKey = "=-20";
},
